<svg width="16" height="16" viewBox="0 0 16 16" fill="none" xmlns="http://www.w3.org/2000/svg">
<g id="fluent:camera-add-24-filled">
<path id="Vector" d="M11.6673 7.99979C12.6398 7.99979 13.5724 8.3861 14.26 9.07373C14.9477 9.76136 15.334 10.694 15.334 11.6665C15.334 12.6389 14.9477 13.5715 14.26 14.2592C13.5724 14.9468 12.6398 15.3331 11.6673 15.3331C10.6949 15.3331 9.76223 14.9468 9.07459 14.2592C8.38696 13.5715 8.00065 12.6389 8.00065 11.6665C8.00065 10.694 8.38696 9.76136 9.07459 9.07373C9.76223 8.3861 10.6949 7.99979 11.6673 7.99979ZM11.6673 9.33312L11.6073 9.33846C11.5407 9.35062 11.4794 9.38279 11.4315 9.43066C11.3836 9.47854 11.3515 9.53985 11.3393 9.60646L11.334 9.66646V11.3331H9.66599L9.60598 11.3391C9.53938 11.3513 9.47806 11.3835 9.43019 11.4313C9.38231 11.4792 9.35015 11.5405 9.33798 11.6071L9.33265 11.6671L9.33798 11.7271C9.35015 11.7937 9.38231 11.855 9.43019 11.9029C9.47806 11.9508 9.53938 11.983 9.60598 11.9951L9.66599 12.0005H11.334V13.6691L11.3393 13.7291C11.3515 13.7957 11.3836 13.857 11.4315 13.9049C11.4794 13.9528 11.5407 13.985 11.6073 13.9971L11.6673 14.0025L11.7273 13.9971C11.7939 13.985 11.8552 13.9528 11.9031 13.9049C11.951 13.857 11.9832 13.7957 11.9953 13.7291L12.0007 13.6691V11.9998H13.67L13.73 11.9951C13.7966 11.983 13.8579 11.9508 13.9058 11.9029C13.9537 11.855 13.9858 11.7937 13.998 11.7271L14.0033 11.6671L13.998 11.6071C13.9858 11.5404 13.9535 11.479 13.9055 11.4312C13.8575 11.3833 13.796 11.3512 13.7293 11.3391L13.6693 11.3338H12.0007V9.66712L11.9953 9.60712C11.9833 9.5404 11.9512 9.47893 11.9033 9.43093C11.8554 9.38293 11.794 9.35067 11.7273 9.33846L11.6673 9.33312ZM9.28398 1.66912C9.54535 1.6691 9.80218 1.73737 10.029 1.86717C10.2559 1.99697 10.4449 2.18379 10.5773 2.40912L11.12 3.33379H12.5007C13.0752 3.33379 13.6262 3.56197 14.0325 3.96816C14.4388 4.37434 14.6671 4.92527 14.6673 5.49979V8.53979C13.8613 7.76425 12.7858 7.33167 11.6673 7.33312C11.39 7.33312 11.1187 7.35912 10.8553 7.40912C10.6935 6.90877 10.403 6.45973 10.013 6.107C9.62297 5.75426 9.1471 5.51022 8.63305 5.39932C8.11901 5.28842 7.58485 5.31456 7.08409 5.47512C6.58333 5.63568 6.13356 5.92502 5.77984 6.31415C5.42612 6.70329 5.18088 7.17854 5.06868 7.6923C4.95649 8.20607 4.98128 8.74029 5.14057 9.24145C5.29986 9.74262 5.58807 10.1931 5.9763 10.5478C6.36454 10.9025 6.83917 11.149 7.35265 11.2625C7.26311 12.2232 7.49628 13.1864 8.01532 13.9998H3.50065C2.92602 13.9998 2.37492 13.7715 1.96859 13.3652C1.56226 12.9589 1.33398 12.4078 1.33398 11.8331V5.49979C1.33398 4.92515 1.56226 4.37405 1.96859 3.96773C2.37492 3.5614 2.92602 3.33312 3.50065 3.33312H4.88732L5.47065 2.38379C5.60478 2.16527 5.79268 1.98478 6.01641 1.85955C6.24015 1.73432 6.49225 1.66852 6.74865 1.66846L9.28398 1.66912ZM8.00065 6.33312C8.42183 6.33311 8.83226 6.46606 9.17343 6.71303C9.5146 6.95999 9.7691 7.30835 9.90065 7.70846C9.35408 7.95318 8.86397 8.3082 8.46107 8.75125C8.05817 9.1943 7.75117 9.71583 7.55932 10.2831C7.08081 10.1733 6.65939 9.89136 6.37534 9.49093C6.09129 9.0905 5.96445 8.59958 6.01898 8.11167C6.0735 7.62376 6.30558 7.17294 6.67101 6.84509C7.03645 6.51724 7.50971 6.33525 8.00065 6.33379V6.33312Z" fill="#1CBF73"/>
</g>
</svg>
