<svg width="24" height="24" viewBox="0 0 24 24" fill="none" xmlns="http://www.w3.org/2000/svg">
<path d="M7.05677 2.41805L8.22377 2.06705C8.86306 1.87428 9.55066 1.92068 10.1582 2.19761C10.7658 2.47454 11.2519 2.96308 11.5258 3.57205L12.4278 5.57805C12.6632 6.10186 12.7288 6.68623 12.6153 7.24919C12.5018 7.81215 12.2148 8.32544 11.7948 8.71705L10.2998 10.1101C10.2561 10.1508 10.2284 10.2057 10.2218 10.2651C10.1778 10.6621 10.4468 11.4351 11.0678 12.5101C11.5178 13.2911 11.9268 13.8401 12.2738 14.1471C12.5168 14.3621 12.6498 14.4081 12.7068 14.3921L14.7168 13.7771C15.2657 13.6092 15.8534 13.6172 16.3975 13.8001C16.9416 13.9831 17.4148 14.3317 17.7508 14.7971L19.0308 16.5731C19.4204 17.113 19.601 17.776 19.5388 18.439C19.4766 19.102 19.176 19.7199 18.6928 20.1781L17.8058 21.0181C17.3355 21.4634 16.758 21.7793 16.1294 21.9351C15.5008 22.0909 14.8425 22.0812 14.2188 21.9071C11.4648 21.1381 8.99577 18.8141 6.78377 14.9831C4.56977 11.1471 3.79177 7.84305 4.50977 5.07005C4.67095 4.44639 4.99006 3.87476 5.43635 3.41025C5.88264 2.94575 6.44005 2.60404 7.05677 2.41805ZM7.48977 3.85505C7.11966 3.96636 6.78446 4.17113 6.51648 4.44962C6.2485 4.72811 6.05677 5.07094 5.95977 5.44505C5.35777 7.77705 6.04677 10.7061 8.08277 14.2331C10.1168 17.7551 12.3058 19.8151 14.6228 20.4631C14.9971 20.5674 15.392 20.5731 15.7691 20.4795C16.1462 20.386 16.4927 20.1963 16.7748 19.9291L17.6608 19.0891C17.8806 18.8808 18.0174 18.5999 18.0457 18.2985C18.074 17.997 17.992 17.6956 17.8148 17.4501L16.5348 15.6751C16.382 15.4633 16.1668 15.3046 15.9193 15.2214C15.6718 15.1382 15.4044 15.1346 15.1548 15.2111L13.1398 15.8281C11.9698 16.1761 10.9088 15.2351 9.76877 13.2601C8.99977 11.9301 8.64177 10.9001 8.73177 10.0991C8.77777 9.68305 8.97178 9.29905 9.27677 9.01305L10.7718 7.62005C10.9626 7.44195 11.0929 7.20856 11.1444 6.95264C11.1959 6.69671 11.1659 6.4311 11.0588 6.19305L10.1578 4.18705C10.0333 3.91024 9.81231 3.68819 9.53611 3.56233C9.25992 3.43647 8.94736 3.4154 8.65677 3.50305L7.48977 3.85505Z" fill="#1CBF73"/>
</svg>
