<svg width="24" height="25" viewBox="0 0 24 25" fill="none" xmlns="http://www.w3.org/2000/svg">
<path d="M11.7711 4.2442C12.8818 3.13936 14.3805 2.51276 15.9471 2.4983C17.5136 2.48384 19.0237 3.08268 20.1546 4.16683C21.2855 5.25098 21.9475 6.73445 21.9992 8.30022C22.0509 9.866 21.488 11.3899 20.4311 12.5462L20.2421 12.7432L11.4421 21.5412L11.4061 21.5712C10.7209 22.1881 9.83127 22.5288 8.90935 22.5274C7.98742 22.526 7.0988 22.1826 6.41552 21.5637C5.73224 20.9448 5.30291 20.0943 5.21064 19.177C5.11838 18.2597 5.36974 17.3408 5.91606 16.5982C5.93988 16.5521 5.96836 16.5085 6.00106 16.4682L6.05506 16.4082L6.14206 16.3202L6.28306 16.1722L6.28606 16.1752L13.7221 8.7212C13.8489 8.59403 14.0172 8.51662 14.1963 8.50304C14.3754 8.48946 14.5535 8.54061 14.6981 8.6472L14.7821 8.7202C14.9092 8.84706 14.9866 9.01535 15.0002 9.19446C15.0138 9.37358 14.9626 9.55161 14.8561 9.6962L14.7841 9.7802L7.18906 17.3932C6.83754 17.8245 6.65995 18.3716 6.69116 18.9271C6.72236 19.4826 6.96011 20.0064 7.35771 20.3956C7.75531 20.7848 8.28405 21.0114 8.84011 21.0307C9.39616 21.0501 9.93937 20.8608 10.3631 20.5002L19.1961 11.6702C20.0145 10.8377 20.4776 9.71988 20.4876 8.5525C20.4976 7.38511 20.0538 6.25949 19.2497 5.41311C18.4456 4.56674 17.3442 4.06581 16.1778 4.01601C15.0115 3.96622 13.8714 4.37144 12.9981 5.1462L12.8301 5.3062L12.8181 5.3202L3.28106 14.8562C3.14723 14.9904 2.96757 15.0689 2.77818 15.0761C2.5888 15.0832 2.40374 15.0183 2.26022 14.8946C2.11669 14.7708 2.02534 14.5973 2.00454 14.4089C1.98373 14.2206 2.03501 14.0313 2.14806 13.8792L2.22106 13.7952L11.7701 4.2452L11.7711 4.2442Z" fill="#111111"/>
</svg>
