<svg width="24" height="24" viewBox="0 0 24 24" fill="none" xmlns="http://www.w3.org/2000/svg">
<path d="M12 2C6.477 2 2 6.477 2 12C2 17.523 6.477 22 12 22C17.523 22 22 17.523 22 12C22 6.477 17.523 2 12 2ZM10.074 3.72C11.3412 3.42615 12.6588 3.42615 13.926 3.72L12.002 4.873L10.074 3.72ZM8.244 4.373L11.252 6.173V8.366L8.461 10.394L6.417 9.687L5.83 6.153C6.52316 5.42168 7.34047 4.81903 8.244 4.373ZM4.59 7.835L4.948 9.992L3.52 11.42C3.60428 10.1601 3.96991 8.93503 4.59 7.835ZM3.622 13.439L5.949 11.112L7.989 11.817L9.07 15.15L8.1 16.725L4.807 16.531C4.21155 15.5887 3.80947 14.5378 3.622 13.439ZM6.092 18.109L7.996 18.221L8.671 19.823C7.71339 19.4143 6.83991 18.8334 6.092 18.109ZM10.531 20.373L9.347 17.564L10.31 15.997H13.682L14.594 17.578L13.554 20.358C12.5552 20.5424 11.5316 20.5475 10.531 20.373ZM15.361 19.81L15.928 18.293L17.598 18.398C16.9303 18.9826 16.1751 19.459 15.36 19.81H15.361ZM18.893 16.976L15.869 16.786L14.931 15.162L16.018 11.817L18.031 11.121L20.343 13.641C20.1072 14.8446 19.6124 15.9826 18.893 16.976ZM20.491 11.585L19.051 10.015L19.413 7.837C20.0597 8.98519 20.4288 10.2687 20.491 11.585ZM18.173 6.155L17.584 9.689L15.544 10.394L12.753 8.366V6.172L15.755 4.372C16.6602 4.81886 17.4789 5.4219 18.173 6.155ZM9.468 11.517L12.003 9.675L14.538 11.517L13.57 14.497H10.436L9.468 11.517Z" fill="#1CBF73"/>
</svg>
