<svg width="18" height="20" viewBox="0 0 18 20" fill="none" xmlns="http://www.w3.org/2000/svg">
<path d="M2.75 0C2.15326 0 1.58097 0.237053 1.15901 0.65901C0.737053 1.08097 0.5 1.65326 0.5 2.25V17.75C0.5 18.3467 0.737053 18.919 1.15901 19.341C1.58097 19.7629 2.15326 20 2.75 20H10.25C10.8431 20 11.4123 19.7659 11.8336 19.3484C12.255 18.931 12.4945 18.3641 12.5 17.771V16.251C12.5 16.0521 12.421 15.8613 12.2803 15.7207C12.1397 15.58 11.9489 15.501 11.75 15.501C11.297 15.501 11.011 15.378 10.814 15.219C10.606 15.052 10.434 14.794 10.303 14.43C10.03 13.675 10.001 12.68 10.001 11.75C10.001 11.5599 9.92879 11.3769 9.799 11.238L9.634 11.061C9.58022 11.0006 9.52349 10.9428 9.464 10.888C9.39 10.818 9.164 10.603 8.281 9.72C7.812 9.251 7.553 8.855 7.468 8.552C7.43363 8.44706 7.42811 8.33481 7.452 8.227C7.48963 8.10267 7.56052 7.99098 7.657 7.904C7.74373 7.80792 7.85508 7.73738 7.979 7.7C8.08647 7.67609 8.19841 7.68162 8.303 7.716C8.605 7.801 9.001 8.062 9.47 8.531C10.01 9.071 10.523 9.577 10.982 10.031C11.742 10.783 12.355 11.391 12.702 11.761C12.838 11.9053 13.0255 11.9898 13.2236 11.9962C13.4217 12.0026 13.6143 11.9303 13.7593 11.7951C13.9043 11.6599 13.9899 11.4728 13.9973 11.2748C14.0047 11.0767 13.9334 10.8837 13.799 10.738C13.3733 10.2928 12.9403 9.85475 12.5 9.424V6.06L15.341 8.902C15.763 9.324 16.001 9.896 16.001 10.492V19.25C16.001 19.4489 16.08 19.6397 16.2207 19.7803C16.3613 19.921 16.5521 20 16.751 20C16.9499 20 17.1407 19.921 17.2813 19.7803C17.422 19.6397 17.501 19.4489 17.501 19.25V10.493C17.501 10.0004 17.4039 9.51271 17.2153 9.05767C17.0267 8.60264 16.7504 8.18921 16.402 7.841L12.5 3.939V2.249C12.4997 1.65244 12.2626 1.0804 11.8406 0.658656C11.4187 0.236916 10.8466 -5.89199e-08 10.25 0H2.75ZM9.874 16.388C10.2028 16.6511 10.5883 16.8339 11 16.922V17H10.25C10.0511 17 9.86032 17.079 9.71967 17.2197C9.57902 17.3603 9.5 17.5511 9.5 17.75V18.5H8V17.75C8.00005 17.3261 8.11985 16.9108 8.3456 16.552C8.57135 16.1932 8.89387 15.9055 9.276 15.722C9.436 15.966 9.632 16.194 9.874 16.388ZM8.502 12.046C8.504 12.299 8.509 12.572 8.524 12.856C8.05836 13.1858 7.51915 13.3968 6.95332 13.4705C6.38749 13.5443 5.81222 13.4786 5.2776 13.2791C4.74298 13.0797 4.26523 12.7525 3.88597 12.3262C3.5067 11.8999 3.23743 11.3873 3.10159 10.8331C2.96576 10.2789 2.96748 9.69985 3.10662 9.14646C3.24576 8.59307 3.51808 8.08209 3.89988 7.65803C4.28168 7.23397 4.76137 6.90968 5.29717 6.71342C5.83297 6.51717 6.40862 6.45488 6.974 6.532C6.841 6.621 6.714 6.725 6.596 6.844C6.304 7.136 6.096 7.474 5.999 7.854C5.902 8.234 5.925 8.608 6.024 8.958C6.213 9.631 6.689 10.249 7.221 10.781C7.6277 11.1927 8.03973 11.599 8.457 12L8.461 12.003L8.498 12.042L8.502 12.046ZM3.5 1.5H5V2.25C5 2.84674 4.76295 3.41903 4.34099 3.84099C3.91903 4.26295 3.34674 4.5 2.75 4.5H2V3H2.75C2.94891 3 3.13968 2.92098 3.28033 2.78033C3.42098 2.63968 3.5 2.44891 3.5 2.25V1.5ZM8 1.5H9.5V2.25C9.5 2.664 9.836 3 10.25 3H11V4.5H10.25C9.65326 4.5 9.08097 4.26295 8.65901 3.84099C8.23705 3.41903 8 2.84674 8 2.25V1.5ZM5 18.5H3.5V17.75C3.5 17.5511 3.42098 17.3603 3.28033 17.2197C3.13968 17.079 2.94891 17 2.75 17H2V15.5H2.75C3.34674 15.5 3.91903 15.7371 4.34099 16.159C4.76295 16.581 5 17.1533 5 17.75V18.5Z" fill="#1CBF73"/>
</svg>
