<svg width="25" height="24" viewBox="0 0 25 24" fill="none" xmlns="http://www.w3.org/2000/svg">
<g id="fluent:money-hand-24-regular">
<path id="Vector" d="M6.75 2C6.15326 2 5.58097 2.23705 5.15901 2.65901C4.73705 3.08097 4.5 3.65326 4.5 4.25V19.75C4.5 20.3467 4.73705 20.919 5.15901 21.341C5.58097 21.7629 6.15326 22 6.75 22H14.25C14.8431 22 15.4123 21.7659 15.8336 21.3484C16.255 20.931 16.4945 20.3641 16.5 19.771V18.251C16.5 18.0521 16.421 17.8613 16.2803 17.7207C16.1397 17.58 15.9489 17.501 15.75 17.501C15.297 17.501 15.011 17.378 14.814 17.219C14.606 17.052 14.434 16.794 14.303 16.43C14.03 15.675 14.001 14.68 14.001 13.75C14.001 13.5599 13.9288 13.3769 13.799 13.238L13.634 13.061C13.5802 13.0006 13.5235 12.9428 13.464 12.888C13.39 12.818 13.164 12.603 12.281 11.72C11.812 11.251 11.553 10.855 11.468 10.552C11.4336 10.4471 11.4281 10.3348 11.452 10.227C11.4896 10.1027 11.5605 9.99098 11.657 9.904C11.7437 9.80792 11.8551 9.73738 11.979 9.7C12.0865 9.67609 12.1984 9.68162 12.303 9.716C12.605 9.801 13.001 10.062 13.47 10.531C14.01 11.071 14.523 11.577 14.982 12.031C15.742 12.783 16.355 13.391 16.702 13.761C16.838 13.9053 17.0255 13.9898 17.2236 13.9962C17.4217 14.0026 17.6143 13.9303 17.7593 13.7951C17.9043 13.6599 17.9899 13.4728 17.9973 13.2748C18.0047 13.0767 17.9334 12.8837 17.799 12.738C17.3733 12.2928 16.9403 11.8548 16.5 11.424V8.06L19.341 10.902C19.763 11.324 20.001 11.896 20.001 12.492V21.25C20.001 21.4489 20.08 21.6397 20.2207 21.7803C20.3613 21.921 20.5521 22 20.751 22C20.9499 22 21.1407 21.921 21.2813 21.7803C21.422 21.6397 21.501 21.4489 21.501 21.25V12.493C21.501 12.0004 21.4039 11.5127 21.2153 11.0577C21.0267 10.6026 20.7504 10.1892 20.402 9.841L16.5 5.939V4.249C16.4997 3.65244 16.2626 3.0804 15.8406 2.65866C15.4187 2.23692 14.8466 2 14.25 2H6.75ZM12.892 16.94C12.989 17.208 13.114 17.474 13.276 17.722C12.8939 17.9055 12.5714 18.1932 12.3456 18.552C12.1198 18.9108 12 19.3261 12 19.75V20.5H9V19.75C9 19.1533 8.76295 18.581 8.34099 18.159C7.91903 17.7371 7.34674 17.5 6.75 17.5H6V6.5H6.75C7.34674 6.5 7.91903 6.26295 8.34099 5.84099C8.76295 5.41903 9 4.84674 9 4.25V3.5H12V4.25C12 4.84674 12.2371 5.41903 12.659 5.84099C13.081 6.26295 13.6533 6.5 14.25 6.5H15V9.938L14.531 9.47C14 8.939 13.383 8.462 12.71 8.272C12.3508 8.16562 11.9697 8.15699 11.606 8.247C11.3807 8.30554 11.167 8.40191 10.974 8.532C10.4086 8.45488 9.83297 8.51717 9.29717 8.71342C8.76137 8.90968 8.28168 9.23397 7.89988 9.65803C7.51808 10.0821 7.24576 10.5931 7.10662 11.1465C6.96748 11.6998 6.96576 12.2789 7.10159 12.8331C7.23743 13.3873 7.5067 13.8999 7.88597 14.3262C8.26523 14.7525 8.74298 15.0797 9.2776 15.2791C9.81222 15.4786 10.3875 15.5443 10.9533 15.4705C11.5191 15.3968 12.0584 15.1858 12.524 14.856C12.561 15.54 12.654 16.283 12.892 16.94ZM8.5 12C8.49991 11.5643 8.64208 11.1406 8.90489 10.7931C9.16769 10.4456 9.53677 10.1935 9.956 10.075C9.91744 10.3709 9.94059 10.6715 10.024 10.958C10.213 11.631 10.689 12.249 11.221 12.781L11.886 13.443C11.6032 13.7149 11.2467 13.8975 10.8608 13.9683C10.4749 14.0391 10.0768 13.9948 9.7159 13.841C9.35501 13.6872 9.04732 13.4307 8.83113 13.1033C8.61493 12.776 8.49978 12.3923 8.5 12ZM6 4.25C6 4.05109 6.07902 3.86032 6.21967 3.71967C6.36032 3.57902 6.55109 3.5 6.75 3.5H7.5V4.25C7.5 4.44891 7.42098 4.63968 7.28033 4.78033C7.13968 4.92098 6.94891 5 6.75 5H6V4.25ZM13.5 3.5H14.25C14.4489 3.5 14.6397 3.57902 14.7803 3.71967C14.921 3.86032 15 4.05109 15 4.25V5H14.25C14.0511 5 13.8603 4.92098 13.7197 4.78033C13.579 4.63968 13.5 4.44891 13.5 4.25V3.5ZM15 19V19.75C15 19.9489 14.921 20.1397 14.7803 20.2803C14.6397 20.421 14.4489 20.5 14.25 20.5H13.5V19.75C13.5 19.5511 13.579 19.3603 13.7197 19.2197C13.8603 19.079 14.0511 19 14.25 19H15ZM7.5 20.5H6.75C6.55109 20.5 6.36032 20.421 6.21967 20.2803C6.07902 20.1397 6 19.9489 6 19.75V19H6.75C6.94891 19 7.13968 19.079 7.28033 19.2197C7.42098 19.3603 7.5 19.5511 7.5 19.75V20.5Z" fill="#B3B3B3"/>
</g>
</svg>
