<svg width="24" height="24" viewBox="0 0 24 24" fill="none" xmlns="http://www.w3.org/2000/svg">
<g id="fluent:receipt-search-20-filled">
<path id="Vector" d="M5.02506 6.10013C5.02506 5.43708 5.30164 4.80119 5.79396 4.33234C6.28627 3.86349 6.95399 3.6001 7.65023 3.6001H16.8383C17.5345 3.6001 18.2023 3.86349 18.6946 4.33234C19.1869 4.80119 19.4635 5.43708 19.4635 6.10013V14.8503H23.4012V17.3503C23.4012 18.3449 22.9863 19.2987 22.2479 20.002C21.5094 20.7052 20.5078 21.1003 19.4635 21.1003H14.372L12.3243 19.1503C12.7047 18.3933 12.9016 17.5645 12.9006 16.7253C12.9015 15.8863 12.7049 15.0578 12.3254 14.3006C11.9458 13.5435 11.3929 12.877 10.7072 12.3502H14.8694C15.0435 12.3502 15.2104 12.2844 15.3335 12.1672C15.4566 12.0499 15.5257 11.891 15.5257 11.7252C15.5257 11.5594 15.4566 11.4005 15.3335 11.2833C15.2104 11.166 15.0435 11.1002 14.8694 11.1002H9.6191C9.49746 11.1001 9.37818 11.1322 9.27457 11.1929C9.17097 11.2536 9.08712 11.3405 9.03238 11.444C8.37951 11.2158 7.68939 11.0994 6.99394 11.1002C6.30352 11.1002 5.64198 11.2127 5.02506 11.4202V6.10013ZM19.4635 19.8503C20.1597 19.8503 20.8274 19.5869 21.3197 19.1181C21.8121 18.6492 22.0886 18.0133 22.0886 17.3503V16.1003H19.4635V19.8503ZM9.6191 7.35015C9.44504 7.35015 9.27811 7.416 9.15503 7.53321C9.03196 7.65042 8.96281 7.8094 8.96281 7.97516C8.96281 8.14092 9.03196 8.29989 9.15503 8.41711C9.27811 8.53432 9.44504 8.60017 9.6191 8.60017H14.8694C15.0435 8.60017 15.2104 8.53432 15.3335 8.41711C15.4566 8.29989 15.5257 8.14092 15.5257 7.97516C15.5257 7.8094 15.4566 7.65042 15.3335 7.53321C15.2104 7.416 15.0435 7.35015 14.8694 7.35015H9.6191ZM6.99394 21.1003C8.02563 21.1003 8.97856 20.7753 9.74511 20.2291L13.0922 23.4166C13.1531 23.4747 13.2255 23.5208 13.3051 23.5523C13.3848 23.5838 13.4702 23.6 13.5564 23.6001C13.6426 23.6002 13.728 23.584 13.8077 23.5527C13.8874 23.5213 13.9598 23.4753 14.0208 23.4172C14.0819 23.3592 14.1303 23.2903 14.1633 23.2145C14.1964 23.1386 14.2134 23.0573 14.2135 22.9752C14.2136 22.8931 14.1966 22.8117 14.1637 22.7358C14.1308 22.6599 14.0824 22.591 14.0215 22.5329L10.6744 19.3453C11.294 18.5563 11.6157 17.5912 11.5876 16.6063C11.5595 15.6214 11.1831 14.6744 10.5194 13.9186C9.85571 13.1628 8.94358 12.6425 7.93069 12.4419C6.91781 12.2413 5.86347 12.3721 4.9384 12.8132C4.01332 13.2543 3.27167 13.9799 2.83354 14.8724C2.3954 15.765 2.28643 16.7722 2.52426 17.7311C2.7621 18.6899 3.33282 19.5443 4.14401 20.1557C4.9552 20.7672 5.95938 21.1001 6.99394 21.1003ZM6.99394 19.8503C6.12364 19.8503 5.28899 19.5211 4.6736 18.935C4.05821 18.349 3.71248 17.5541 3.71248 16.7253C3.71248 15.8965 4.05821 15.1016 4.6736 14.5155C5.28899 13.9295 6.12364 13.6002 6.99394 13.6002C7.86423 13.6002 8.69888 13.9295 9.31428 14.5155C9.92967 15.1016 10.2754 15.8965 10.2754 16.7253C10.2754 17.5541 9.92967 18.349 9.31428 18.935C8.69888 19.5211 7.86423 19.8503 6.99394 19.8503Z" fill="#1CBF73"/>
</g>
</svg>
