<svg width="24" height="24" viewBox="0 0 24 24" fill="none" xmlns="http://www.w3.org/2000/svg">
<path d="M7.20004 3.59961C6.56352 3.59961 5.95307 3.85247 5.50299 4.30255C5.0529 4.75264 4.80004 5.36309 4.80004 5.99961V11.1068C5.18164 10.9724 5.58364 10.8788 6.00004 10.832V5.99961C6.00004 5.68135 6.12647 5.37613 6.35152 5.15108C6.57656 4.92604 6.88178 4.79961 7.20004 4.79961H15.6C15.9183 4.79961 16.2235 4.92604 16.4486 5.15108C16.6736 5.37613 16.8 5.68135 16.8 5.99961V19.1996H12.1452L13.3452 20.3996H18C18.9548 20.3996 19.8705 20.0203 20.5456 19.3452C21.2208 18.6701 21.6 17.7544 21.6 16.7996V14.3996H18V5.99961C18 5.36309 17.7472 4.75264 17.2971 4.30255C16.847 3.85247 16.2366 3.59961 15.6 3.59961H7.20004ZM9.99484 11.9996H13.8C13.9592 11.9996 14.1118 11.9364 14.2243 11.8239C14.3368 11.7114 14.4 11.5587 14.4 11.3996C14.4 11.2405 14.3368 11.0879 14.2243 10.9753C14.1118 10.8628 13.9592 10.7996 13.8 10.7996H9.00004C8.88884 10.7995 8.77979 10.8303 8.68507 10.8886C8.59035 10.9468 8.51369 11.0303 8.46364 11.1296C9.02284 11.336 9.54004 11.6312 9.99484 11.9996ZM18 19.1996V15.5996H20.4V16.7996C20.4 17.4361 20.1472 18.0466 19.6971 18.4967C19.247 18.9468 18.6366 19.1996 18 19.1996ZM9.00004 7.19961C8.84091 7.19961 8.6883 7.26282 8.57578 7.37535C8.46326 7.48787 8.40004 7.64048 8.40004 7.79961C8.40004 7.95874 8.46326 8.11135 8.57578 8.22387C8.6883 8.3364 8.84091 8.39961 9.00004 8.39961H13.8C13.9592 8.39961 14.1118 8.3364 14.2243 8.22387C14.3368 8.11135 14.4 7.95874 14.4 7.79961C14.4 7.64048 14.3368 7.48787 14.2243 7.37535C14.1118 7.26282 13.9592 7.19961 13.8 7.19961H9.00004ZM6.60004 20.3996C7.54324 20.3996 8.41444 20.0876 9.11524 19.5632L12.1752 22.6232C12.231 22.679 12.2971 22.7233 12.3699 22.7535C12.4427 22.7837 12.5208 22.7993 12.5996 22.7993C12.6785 22.7994 12.7565 22.7839 12.8294 22.7538C12.9022 22.7237 12.9685 22.6795 13.0242 22.6238C13.08 22.5681 13.1243 22.502 13.1545 22.4291C13.1847 22.3563 13.2003 22.2783 13.2004 22.1994C13.2004 22.1206 13.185 22.0425 13.1548 21.9697C13.1247 21.8968 13.0806 21.8306 13.0248 21.7748L9.96484 18.7148C10.5313 17.9573 10.8254 17.0309 10.7997 16.0854C10.774 15.1399 10.4299 14.2308 9.82312 13.5053C9.21636 12.7797 8.38246 12.2802 7.45645 12.0876C6.53044 11.895 5.56654 12.0206 4.72081 12.4441C3.87508 12.8676 3.19704 13.5641 2.79649 14.4209C2.39593 15.2777 2.2963 16.2447 2.51374 17.1652C2.73118 18.0856 3.25294 18.9058 3.99456 19.4928C4.73618 20.0798 5.65422 20.3993 6.60004 20.3996ZM6.60004 19.1996C5.80439 19.1996 5.04133 18.8835 4.47872 18.3209C3.91611 17.7583 3.60004 16.9953 3.60004 16.1996C3.60004 15.404 3.91611 14.6409 4.47872 14.0783C5.04133 13.5157 5.80439 13.1996 6.60004 13.1996C7.39569 13.1996 8.15875 13.5157 8.72136 14.0783C9.28397 14.6409 9.60004 15.404 9.60004 16.1996C9.60004 16.9953 9.28397 17.7583 8.72136 18.3209C8.15875 18.8835 7.39569 19.1996 6.60004 19.1996Z" fill="#B3B3B3"/>
</svg>
