<svg width="16" height="16" viewBox="0 0 16 16" fill="none" xmlns="http://www.w3.org/2000/svg">
<g id="fluent:number-row-24-filled">
<path id="Vector" d="M3.16732 2.66699H5.83398C6.32021 2.66699 6.78653 2.86015 7.13035 3.20396C7.47416 3.54778 7.66732 4.0141 7.66732 4.50033V11.5003C7.66732 11.7411 7.6199 11.9795 7.52776 12.2019C7.43563 12.4243 7.30059 12.6264 7.13035 12.7967C6.96011 12.9669 6.758 13.102 6.53557 13.1941C6.31314 13.2862 6.07474 13.3337 5.83398 13.3337H3.16732C2.92656 13.3337 2.68816 13.2862 2.46573 13.1941C2.2433 13.102 2.0412 12.9669 1.87096 12.7967C1.70071 12.6264 1.56567 12.4243 1.47354 12.2019C1.3814 11.9795 1.33398 11.7411 1.33398 11.5003V4.50033C1.33398 4.0141 1.52714 3.54778 1.87096 3.20396C2.21477 2.86015 2.68109 2.66699 3.16732 2.66699ZM4.00065 6.00033V10.0003C4.00065 10.1329 4.05333 10.2601 4.1471 10.3539C4.24087 10.4476 4.36804 10.5003 4.50065 10.5003C4.63326 10.5003 4.76044 10.4476 4.8542 10.3539C4.94797 10.2601 5.00065 10.1329 5.00065 10.0003V6.00033C5.00065 5.86772 4.94797 5.74054 4.8542 5.64677C4.76044 5.553 4.63326 5.50033 4.50065 5.50033C4.36804 5.50033 4.24087 5.553 4.1471 5.64677C4.05333 5.74054 4.00065 5.86772 4.00065 6.00033ZM10.1673 2.66699H12.834C13.3202 2.66699 13.7865 2.86015 14.1303 3.20396C14.4742 3.54778 14.6673 4.0141 14.6673 4.50033V11.5003C14.6673 11.7411 14.6199 11.9795 14.5278 12.2019C14.4356 12.4243 14.3006 12.6264 14.1303 12.7967C13.9601 12.9669 13.758 13.102 13.5356 13.1941C13.3131 13.2862 13.0747 13.3337 12.834 13.3337H10.1673C9.92656 13.3337 9.68816 13.2862 9.46573 13.1941C9.2433 13.102 9.0412 12.9669 8.87095 12.7967C8.70071 12.6264 8.56567 12.4243 8.47354 12.2019C8.3814 11.9795 8.33398 11.7411 8.33398 11.5003V4.50033C8.33398 4.0141 8.52714 3.54778 8.87095 3.20396C9.21477 2.86015 9.68109 2.66699 10.1673 2.66699ZM11.6673 6.50033V7.50033H10.834C10.7014 7.50033 10.5742 7.553 10.4804 7.64677C10.3867 7.74054 10.334 7.86772 10.334 8.00033V10.0003C10.334 10.2763 10.558 10.5003 10.834 10.5003H12.1673C12.2999 10.5003 12.4271 10.4476 12.5209 10.3539C12.6146 10.2601 12.6673 10.1329 12.6673 10.0003C12.6673 9.86772 12.6146 9.74054 12.5209 9.64677C12.4271 9.553 12.2999 9.50033 12.1673 9.50033H11.334V8.50033H12.1673C12.2999 8.50033 12.4271 8.44765 12.5209 8.35388C12.6146 8.26011 12.6673 8.13293 12.6673 8.00033V6.00033C12.6673 5.86772 12.6146 5.74054 12.5209 5.64677C12.4271 5.553 12.2999 5.50033 12.1673 5.50033H10.834C10.7014 5.50033 10.5742 5.553 10.4804 5.64677C10.3867 5.74054 10.334 5.86772 10.334 6.00033C10.334 6.13293 10.3867 6.26011 10.4804 6.35388C10.5742 6.44765 10.7014 6.50033 10.834 6.50033H11.6673Z" fill="#1CBF73"/>
</g>
</svg>
