<svg width="16" height="16" viewBox="0 0 16 16" fill="none" xmlns="http://www.w3.org/2000/svg">
<g id="fluent:call-48-filled">
<path id="Vector" d="M7.36565 2.29805C7.10565 1.77838 6.56232 1.35805 5.89498 1.43238C5.29798 1.49871 4.41165 1.72071 3.80732 2.44871C3.18698 3.19638 2.95565 4.36238 3.43198 6.10938C3.94065 7.97305 4.69598 9.81038 5.63498 11.2927C6.56698 12.7644 7.71498 13.9424 9.03199 14.394C10.1967 14.7934 11.0873 14.6267 11.737 14.188C12.3637 13.765 12.7077 13.1287 12.8857 12.688C13.085 12.1947 12.9537 11.681 12.6937 11.3024L11.7347 9.90771C11.5228 9.59954 11.2178 9.36733 10.8643 9.24514C10.5109 9.12294 10.1276 9.11719 9.77065 9.22872L8.44532 9.64305C8.40346 9.65739 8.3583 9.65913 8.31546 9.64805C8.27262 9.63697 8.23397 9.61356 8.20432 9.58072C7.61432 8.88972 6.95332 7.92605 6.77365 6.95072C6.76796 6.92467 6.77187 6.89744 6.78465 6.87405C6.97965 6.54638 7.31498 6.17505 7.64898 5.85005C8.21465 5.29938 8.42899 4.42405 8.05565 3.67805L7.36565 2.29805Z" fill="#1CBF73"/>
</g>
</svg>
