<svg width="25" height="24" viewBox="0 0 25 24" fill="none" xmlns="http://www.w3.org/2000/svg">
<g id="fluent:chat-32-filled">
<path id="Vector" d="M1.75001 12C1.75001 6.201 6.45101 1.5 12.25 1.5C18.049 1.5 22.75 6.201 22.75 12C22.75 17.799 18.049 22.5 12.25 22.5C10.474 22.5 8.79851 22.0583 7.33001 21.2782L3.18401 22.4573C2.99132 22.5119 2.78754 22.5141 2.59372 22.4636C2.3999 22.4131 2.22307 22.3118 2.08149 22.1702C1.93991 22.0285 1.83871 21.8516 1.78834 21.6578C1.73798 21.4639 1.74028 21.2602 1.79501 21.0675L2.97401 16.9222C2.16825 15.4068 1.74788 13.7163 1.75001 12ZM7.75001 9.75C7.75001 9.94891 7.82903 10.1397 7.96968 10.2803C8.11033 10.421 8.3011 10.5 8.50001 10.5H16C16.1989 10.5 16.3897 10.421 16.5303 10.2803C16.671 10.1397 16.75 9.94891 16.75 9.75C16.75 9.55109 16.671 9.36032 16.5303 9.21967C16.3897 9.07902 16.1989 9 16 9H8.50001C8.3011 9 8.11033 9.07902 7.96968 9.21967C7.82903 9.36032 7.75001 9.55109 7.75001 9.75ZM8.50001 13.5C8.3011 13.5 8.11033 13.579 7.96968 13.7197C7.82903 13.8603 7.75001 14.0511 7.75001 14.25C7.75001 14.4489 7.82903 14.6397 7.96968 14.7803C8.11033 14.921 8.3011 15 8.50001 15H13C13.1989 15 13.3897 14.921 13.5303 14.7803C13.671 14.6397 13.75 14.4489 13.75 14.25C13.75 14.0511 13.671 13.8603 13.5303 13.7197C13.3897 13.579 13.1989 13.5 13 13.5H8.50001Z" fill="#1CBF73"/>
</g>
</svg>
