<svg width="25" height="24" viewBox="0 0 25 24" fill="none" xmlns="http://www.w3.org/2000/svg">
<g id="fluent:chat-24-regular">
<path id="Vector" d="M12.25 2C17.773 2 22.25 6.477 22.25 12C22.25 17.523 17.773 22 12.25 22C10.654 22.0022 9.08083 21.6208 7.66301 20.888L3.83701 21.955C3.62355 22.0146 3.39809 22.0163 3.18373 21.9601C2.96937 21.9038 2.77382 21.7916 2.61712 21.6349C2.46041 21.4782 2.34818 21.2826 2.29194 21.0683C2.23569 20.8539 2.23744 20.6285 2.29701 20.415L3.36501 16.592C2.63036 15.1729 2.24793 13.5979 2.25001 12C2.25001 6.477 6.72701 2 12.25 2ZM12.25 3.5C9.99567 3.5 7.83366 4.39553 6.2396 5.98959C4.64554 7.58365 3.75001 9.74566 3.75001 12C3.75001 13.47 4.12301 14.883 4.82301 16.137L4.97301 16.407L3.86101 20.391L7.84801 19.279L8.11801 19.429C9.25239 20.0597 10.5161 20.4222 11.8124 20.4888C13.1086 20.5554 14.4028 20.3242 15.5958 19.8131C16.7889 19.3019 17.849 18.5244 18.695 17.54C19.5409 16.5556 20.1502 15.3906 20.4761 14.1343C20.802 12.8779 20.8358 11.5636 20.575 10.2922C20.3143 9.02073 19.7658 7.82589 18.9716 6.79927C18.1775 5.77264 17.1588 4.94152 15.9937 4.36962C14.8286 3.79773 13.5479 3.50025 12.25 3.5ZM9.00001 13H13.498C13.688 13.0001 13.8709 13.0722 14.0098 13.202C14.1487 13.3317 14.2331 13.5093 14.246 13.6989C14.259 13.8885 14.1995 14.0759 14.0796 14.2233C13.9597 14.3707 13.7883 14.4671 13.6 14.493L13.498 14.5H9.00001C8.80999 14.4999 8.62707 14.4278 8.48822 14.298C8.34937 14.1683 8.26493 13.9907 8.25198 13.8011C8.23903 13.6115 8.29852 13.4241 8.41844 13.2767C8.53836 13.1293 8.70976 13.0329 8.89801 13.007L9.00001 13ZM9.00001 9.5H15.505C15.6949 9.50031 15.8777 9.57267 16.0164 9.70248C16.155 9.83229 16.2393 10.0099 16.2521 10.1994C16.2649 10.3889 16.2053 10.5762 16.0854 10.7235C15.9655 10.8708 15.7942 10.9671 15.606 10.993L15.505 11H9.00001C8.80999 10.9999 8.62707 10.9278 8.48822 10.798C8.34937 10.6683 8.26493 10.4907 8.25198 10.3011C8.23903 10.1115 8.29852 9.92411 8.41844 9.7767C8.53836 9.62929 8.70976 9.5329 8.89801 9.507L9.00001 9.5Z" fill="#B3B3B3"/>
</g>
</svg>
