<svg width="23" height="24" viewBox="0 0 23 24" fill="none" xmlns="http://www.w3.org/2000/svg">
<g id="Layer 3">
<path id="Vector" d="M21.4584 13.5H11.7084C11.5096 13.5006 11.3192 13.5798 11.1787 13.7203C11.0382 13.8608 10.959 14.0513 10.9584 14.25V15.75C10.959 15.9487 11.0382 16.1392 11.1787 16.2797C11.3192 16.4202 11.5096 16.4994 11.7084 16.5H12.0834L12.6909 22.2825C12.7304 22.6509 12.9046 22.9918 13.18 23.2395C13.4555 23.4873 13.8128 23.6246 14.1834 23.625H18.9834C19.3539 23.6246 19.7112 23.4873 19.9867 23.2395C20.2622 22.9918 20.4364 22.6509 20.4759 22.2825L21.0834 16.5H21.4584C21.6571 16.4994 21.8475 16.4202 21.988 16.2797C22.1286 16.1392 22.2078 15.9487 22.2084 15.75V14.25C22.2078 14.0513 22.1286 13.8608 21.988 13.7203C21.8475 13.5798 21.6571 13.5006 21.4584 13.5Z" fill="#7FB3FA"/>
<path id="Vector_2" d="M14.5659 22.2825L13.9584 16.5H13.5834C13.3846 16.4994 13.1942 16.4202 13.0537 16.2797C12.9132 16.1392 12.834 15.9487 12.8334 15.75V14.25C12.834 14.0513 12.9132 13.8608 13.0537 13.7203C13.1942 13.5798 13.3846 13.5006 13.5834 13.5H11.7084C11.5096 13.5006 11.3192 13.5798 11.1787 13.7203C11.0382 13.8608 10.959 14.0513 10.9584 14.25V15.75C10.959 15.9487 11.0382 16.1392 11.1787 16.2797C11.3192 16.4202 11.5096 16.4994 11.7084 16.5H12.0834L12.6909 22.2825C12.7304 22.6509 12.9046 22.9918 13.18 23.2395C13.4555 23.4873 13.8128 23.6246 14.1834 23.625H16.0584C15.6878 23.6246 15.3305 23.4873 15.055 23.2395C14.7796 22.9918 14.6054 22.6509 14.5659 22.2825Z" fill="#64A6F4"/>
<path id="Vector_3" d="M22.2084 14.25V15.75C22.2078 15.9487 22.1286 16.1392 21.988 16.2797C21.8475 16.4202 21.6571 16.4994 21.4584 16.5H11.7084C11.5096 16.4994 11.3192 16.4202 11.1787 16.2797C11.0382 16.1392 10.959 15.9487 10.9584 15.75V14.25C10.959 14.0513 11.0382 13.8608 11.1787 13.7203C11.3192 13.5798 11.5096 13.5006 11.7084 13.5H21.4584C21.6571 13.5006 21.8475 13.5798 21.988 13.7203C22.1286 13.8608 22.2078 14.0513 22.2084 14.25Z" fill="#655E67"/>
<path id="Vector_4" d="M13.9584 15.375H13.5834C13.3846 15.3744 13.1942 15.2952 13.0537 15.1547C12.9132 15.0142 12.834 14.8237 12.8334 14.625V13.5H11.7084C11.5096 13.5006 11.3192 13.5798 11.1787 13.7203C11.0382 13.8608 10.959 14.0513 10.9584 14.25V15.75C10.959 15.9487 11.0382 16.1392 11.1787 16.2797C11.3192 16.4202 11.5096 16.4994 11.7084 16.5H21.4584C21.6571 16.4994 21.8475 16.4202 21.988 16.2797C22.1286 16.1392 22.2078 15.9487 22.2084 15.75V15.375H13.9584Z" fill="#544F56"/>
<path id="Vector_5" d="M21.0833 12V13.5H19.5833V12C19.5833 11.2044 19.2673 10.4413 18.7047 9.87868C18.1421 9.31607 17.379 9 16.5833 9C15.7877 9 15.0246 9.31607 14.462 9.87868C13.8994 10.4413 13.5833 11.2044 13.5833 12V13.5H12.0833V12C12.0833 10.8065 12.5575 9.66193 13.4014 8.81802C14.2453 7.97411 15.3899 7.5 16.5833 7.5C17.7768 7.5 18.9214 7.97411 19.7653 8.81802C20.6092 9.66193 21.0833 10.8065 21.0833 12ZM7.58335 15.0187V13.5C7.58335 13.1022 7.42531 12.7206 7.14401 12.4393C6.8627 12.158 6.48117 12 6.08335 12H3.83335C3.43552 12 3.05399 12.158 2.77269 12.4393C2.49138 12.7206 2.33335 13.1022 2.33335 13.5V15.0187C0.458346 17.2837 0.0833459 21.435 0.833346 22.5675C2.09754 23.2613 3.51629 23.625 4.95835 23.625C6.4004 23.625 7.81915 23.2613 9.08335 22.5675C9.36278 22.0012 9.48823 21.3714 9.4471 20.7413C9.44785 18.9938 8.8666 16.5675 7.58335 15.0187Z" fill="#DCDCDC"/>
<path id="Vector_6" d="M4.1761 15.1177V13.3455C4.17673 13.0876 4.23469 12.8331 4.34579 12.6004C4.45689 12.3677 4.61835 12.1626 4.81847 12H3.83335C3.43552 12 3.05399 12.158 2.77269 12.4393C2.49138 12.7206 2.33335 13.1022 2.33335 13.5V15.0187C0.458346 17.2837 0.0833459 21.435 0.833346 22.5675C1.24944 22.794 1.68354 22.9858 2.13122 23.1409C1.71722 21.24 2.30522 17.3779 4.1761 15.1177Z" fill="#C7BDC0"/>
<path id="Vector_7" d="M7.58337 13.5V15.0187H2.33337V13.5C2.33337 13.1022 2.49141 12.7206 2.77271 12.4393C3.05402 12.158 3.43555 12 3.83337 12H6.08337C6.4812 12 6.86273 12.158 7.14403 12.4393C7.42534 12.7206 7.58337 13.1022 7.58337 13.5Z" fill="#FF6F7F"/>
<path id="Vector_8" d="M4.58337 14.25C4.38446 14.25 4.1937 14.171 4.05304 14.0303C3.91239 13.8897 3.83337 13.6989 3.83337 13.5V12.7313C3.83488 12.4745 3.90297 12.2225 4.031 12H3.83337C3.43555 12 3.05402 12.158 2.77271 12.4393C2.49141 12.7206 2.33337 13.1022 2.33337 13.5V15.0187H7.58337V14.25H4.58337Z" fill="#ED5C79"/>
<path id="Vector_9" d="M6.08337 1.5V12H3.83337V1.5C3.83337 1.20163 3.9519 0.915483 4.16288 0.704505C4.37386 0.493526 4.66001 0.375 4.95837 0.375C5.25674 0.375 5.54289 0.493526 5.75387 0.704505C5.96485 0.915483 6.08337 1.20163 6.08337 1.5Z" fill="#F8E883"/>
<path id="Vector_10" d="M4.95837 10.125V0.375C4.66001 0.375 4.37386 0.493526 4.16288 0.704505C3.9519 0.915483 3.83337 1.20163 3.83337 1.5V12H6.08337V10.875H5.70837C5.50946 10.875 5.3187 10.796 5.17804 10.6553C5.03739 10.5147 4.95837 10.3239 4.95837 10.125Z" fill="#F2CB77"/>
</g>
</svg>
