<svg width="16" height="16" viewBox="0 0 16 16" fill="none" xmlns="http://www.w3.org/2000/svg">
<g id="fluent:delete-24-filled">
<path id="Vector" d="M6.66732 3.33333H9.33398C9.33398 2.97971 9.19351 2.64057 8.94346 2.39052C8.69341 2.14048 8.35427 2 8.00065 2C7.64703 2 7.30789 2.14048 7.05784 2.39052C6.80779 2.64057 6.66732 2.97971 6.66732 3.33333ZM5.66732 3.33333C5.66732 3.02692 5.72767 2.7235 5.84493 2.44041C5.96219 2.15731 6.13407 1.90009 6.35074 1.68342C6.56741 1.46675 6.82463 1.29488 7.10772 1.17761C7.39082 1.06035 7.69423 1 8.00065 1C8.30707 1 8.61049 1.06035 8.89358 1.17761C9.17667 1.29488 9.4339 1.46675 9.65057 1.68342C9.86724 1.90009 10.0391 2.15731 10.1564 2.44041C10.2736 2.7235 10.334 3.02692 10.334 3.33333H14.1673C14.2999 3.33333 14.4271 3.38601 14.5209 3.47978C14.6146 3.57355 14.6673 3.70073 14.6673 3.83333C14.6673 3.96594 14.6146 4.09312 14.5209 4.18689C14.4271 4.28066 14.2999 4.33333 14.1673 4.33333H13.2873L12.5073 12.4073C12.4475 13.026 12.1593 13.6002 11.6991 14.0179C11.2389 14.4356 10.6395 14.6669 10.018 14.6667H5.98332C5.36189 14.6667 4.76272 14.4354 4.30262 14.0177C3.84252 13.6 3.55447 13.0259 3.49465 12.4073L2.71398 4.33333H1.83398C1.70138 4.33333 1.5742 4.28066 1.48043 4.18689C1.38666 4.09312 1.33398 3.96594 1.33398 3.83333C1.33398 3.70073 1.38666 3.57355 1.48043 3.47978C1.5742 3.38601 1.70138 3.33333 1.83398 3.33333H5.66732ZM7.00065 6.5C7.00065 6.36739 6.94797 6.24022 6.8542 6.14645C6.76044 6.05268 6.63326 6 6.50065 6C6.36804 6 6.24087 6.05268 6.1471 6.14645C6.05333 6.24022 6.00065 6.36739 6.00065 6.5V11.5C6.00065 11.6326 6.05333 11.7598 6.1471 11.8536C6.24087 11.9473 6.36804 12 6.50065 12C6.63326 12 6.76044 11.9473 6.8542 11.8536C6.94797 11.7598 7.00065 11.6326 7.00065 11.5V6.5ZM9.50065 6C9.36804 6 9.24087 6.05268 9.1471 6.14645C9.05333 6.24022 9.00065 6.36739 9.00065 6.5V11.5C9.00065 11.6326 9.05333 11.7598 9.1471 11.8536C9.24087 11.9473 9.36804 12 9.50065 12C9.63326 12 9.76044 11.9473 9.8542 11.8536C9.94797 11.7598 10.0007 11.6326 10.0007 11.5V6.5C10.0007 6.36739 9.94797 6.24022 9.8542 6.14645C9.76044 6.05268 9.63326 6 9.50065 6Z" fill="#EF4444"/>
</g>
</svg>
