<svg width="24" height="24" viewBox="0 0 24 24" fill="none" xmlns="http://www.w3.org/2000/svg">
<path d="M12 2.00098C13.9228 2.00098 15.7669 2.76481 17.1265 4.12445C18.4862 5.48409 19.25 7.32816 19.25 9.25098C19.25 11.347 18.35 13.271 16.587 14.993C16.5104 15.0678 16.4507 15.1582 16.412 15.258L16.38 15.361L15.25 20.256C15.1422 20.7229 14.8881 21.1431 14.5247 21.4556C14.1614 21.768 13.7078 21.9563 13.23 21.993L13.057 22H10.943C10.4638 22 9.99721 21.847 9.61103 21.5634C9.22486 21.2797 8.93932 20.8802 8.796 20.423L8.751 20.256L7.621 15.361C7.58894 15.2211 7.51745 15.0934 7.415 14.993C5.735 13.353 4.838 11.53 4.756 9.54898L4.75 9.25098L4.754 9.01098C4.81653 7.13092 5.60734 5.34878 6.9594 4.04094C8.31146 2.7331 10.1189 2.00197 12 2.00198V2.00098ZM14.115 18.499H9.884L10.213 19.919C10.2473 20.0667 10.3256 20.2005 10.4376 20.3028C10.5495 20.4051 10.6898 20.471 10.84 20.492L10.943 20.5H13.057C13.2089 20.4998 13.3571 20.4535 13.4821 20.3673C13.6071 20.281 13.7029 20.1589 13.757 20.017L13.787 19.918L14.115 18.499ZM12 3.50098C10.5131 3.50092 9.08391 4.07689 8.01254 5.10799C6.94117 6.13908 6.31089 7.54513 6.254 9.03098L6.25 9.25098L6.257 9.52798C6.333 11.091 7.057 12.548 8.463 13.92C8.727 14.178 8.923 14.496 9.034 14.846L9.083 15.024L9.538 16.999H14.461L14.919 15.023C15.0015 14.6642 15.1708 14.3311 15.412 14.053L15.539 13.92C16.943 12.547 17.667 11.092 17.743 9.52798L17.75 9.25098L17.746 9.03098C17.6894 7.54495 17.0592 6.13866 15.9878 5.10735C14.9164 4.07604 13.4871 3.50093 12 3.50098Z" fill="#1CBF73"/>
</svg>
