<svg width="24" height="24" viewBox="0 0 24 24" fill="none" xmlns="http://www.w3.org/2000/svg">
<g id="Electrical plug">
<path id="Vector" d="M18.3023 5.72876H7.22777C7.03877 5.72876 6.88464 5.88326 6.88464 6.07151V7.15188C6.88464 7.34388 7.03877 7.49463 7.22777 7.49463H7.53264V11.5128C7.53264 12.01 7.74189 12.487 8.10189 12.8159L10.7111 15.2058C10.7726 15.2635 10.8551 15.298 10.9406 15.298H14.5886C14.6745 15.298 14.7566 15.2635 14.8185 15.2058L17.424 12.8159C17.7911 12.4833 18 12.0104 18 11.5128V7.49463H18.3019C18.4905 7.49463 18.6446 7.34388 18.6446 7.15188V6.07151C18.645 5.88326 18.4909 5.72876 18.3023 5.72876Z" fill="#EF6183"/>
<path id="Vector_2" d="M10.9755 16.9923C10.9755 17.1805 11.1296 17.335 11.3182 17.335H12.4188C12.357 19.1076 11.9081 21.3708 10.7835 22.3923C9.59734 23.4681 7.96196 23.3553 6.38134 23.2491C6.15484 23.2315 5.93584 23.2184 5.71646 23.2045C5.52784 23.1839 5.36659 23.3414 5.35646 23.5304C5.34634 23.7186 5.48996 23.8799 5.67859 23.89C5.89459 23.9001 6.11396 23.9178 6.33334 23.9309C6.81634 23.9654 7.31696 23.9999 7.82059 23.9999C9.03109 23.9999 10.2547 23.8015 11.2458 22.8989C12.5317 21.73 13.0425 19.3195 13.104 17.3346H14.1705C14.3625 17.3346 14.5132 17.1801 14.5132 16.9919V15.9839H10.9751L10.9755 16.9923Z" fill="#D3D3D3"/>
<path id="Vector_3" d="M10.7696 1.01137C10.7696 0.452625 10.317 0 9.76125 0C9.2025 0 8.74988 0.452625 8.74988 1.01137V5.04338H10.7696V1.01137ZM16.7798 1.01137C16.7798 0.452625 16.3271 0 15.7684 0C15.213 0 14.7604 0.452625 14.7604 1.01137V5.04338H16.7801V1.01137H16.7798Z" fill="#E04767"/>
</g>
</svg>
