<svg width="24" height="24" viewBox="0 0 24 24" fill="none" xmlns="http://www.w3.org/2000/svg">
<g id="fluent:airplane-take-off-24-regular">
<path id="Vector" d="M8.316 8.408L7.544 7.281C6.59 5.89 7.587 4 9.274 4C9.754 4 10.219 4.165 10.592 4.467L13.173 6.557C13.51 6.19694 13.8744 5.8636 14.263 5.56C14.923 5.052 15.763 4.574 16.693 4.503C18.93 4.33 20.602 5.746 21.547 6.829C22.036 7.389 22.134 8.097 21.925 8.712C21.8166 9.01969 21.6393 9.29855 21.4068 9.52732C21.1742 9.75608 20.8924 9.9287 20.583 10.032L15.212 11.884L12.05 16.101C11.7444 16.5081 11.3097 16.7995 10.8171 16.9276C10.3244 17.0556 9.80284 17.0127 9.33769 16.8059C8.87255 16.5991 8.49131 16.2407 8.25632 15.7891C8.02132 15.3375 7.94647 14.8196 8.044 14.32L8.295 13.036L5.765 13.583C5.43183 13.655 5.08678 13.6514 4.75516 13.5726C4.42355 13.4938 4.11379 13.3417 3.84861 13.1276C3.58344 12.9134 3.36958 12.6426 3.22273 12.335C3.07589 12.0274 2.99978 11.6909 3 11.35V7.69C2.99975 7.31406 3.12478 6.94875 3.35533 6.65181C3.58589 6.35486 3.90883 6.14322 4.27311 6.05031C4.63739 5.9574 5.02224 5.98854 5.36685 6.13879C5.71146 6.28905 5.99618 6.54986 6.176 6.88L7.142 8.652L8.316 8.407V8.408ZM8.781 6.434L9.907 8.077L11.805 7.681C11.895 7.662 11.985 7.633 12.071 7.594L9.65 5.633C9.53855 5.54375 9.3988 5.49739 9.25611 5.50235C9.11341 5.5073 8.97721 5.56323 8.87222 5.66C8.76723 5.75677 8.7004 5.88796 8.68384 6.02978C8.66729 6.1716 8.70211 6.31466 8.782 6.433L8.781 6.434ZM16.808 5.998C16.301 6.038 15.74 6.315 15.179 6.748C14.6793 7.14502 14.2234 7.59423 13.819 8.088C13.399 8.595 12.813 9.003 12.111 9.15L6.903 10.235C6.74548 10.2677 6.5816 10.249 6.43556 10.1814C6.28953 10.1139 6.16908 10.0012 6.092 9.86L4.859 7.6C4.83874 7.56253 4.80653 7.53291 4.76749 7.51585C4.72846 7.49879 4.68485 7.49527 4.64358 7.50584C4.60232 7.51642 4.56577 7.54048 4.53976 7.57421C4.51374 7.60794 4.49975 7.6494 4.5 7.692V11.351C4.5 11.85 4.96 12.221 5.449 12.116L9.092 11.33C9.21334 11.3039 9.33927 11.3083 9.4585 11.3428C9.57773 11.3773 9.68652 11.4409 9.77513 11.5278C9.86374 11.6147 9.92939 11.7223 9.96619 11.8408C10.003 11.9594 10.0098 12.0852 9.986 12.207L9.516 14.607C9.4833 14.7734 9.50806 14.946 9.58622 15.0966C9.66439 15.2471 9.79133 15.3666 9.94628 15.4356C10.1012 15.5046 10.275 15.519 10.4392 15.4764C10.6033 15.4337 10.7482 15.3367 10.85 15.201L14.15 10.801C14.2397 10.6808 14.3633 10.5902 14.505 10.541L20.094 8.614C20.187 8.58502 20.2722 8.53531 20.3433 8.46862C20.4143 8.40194 20.4692 8.32 20.504 8.229C20.5294 8.15889 20.5348 8.08307 20.5194 8.01009C20.504 7.93711 20.4686 7.86989 20.417 7.816C19.564 6.839 18.318 5.882 16.807 5.998H16.808ZM3.75 19.5C3.55109 19.5 3.36032 19.579 3.21967 19.7197C3.07902 19.8603 3 20.0511 3 20.25C3 20.4489 3.07902 20.6397 3.21967 20.7803C3.36032 20.921 3.55109 21 3.75 21H20.25C20.4489 21 20.6397 20.921 20.7803 20.7803C20.921 20.6397 21 20.4489 21 20.25C21 20.0511 20.921 19.8603 20.7803 19.7197C20.6397 19.579 20.4489 19.5 20.25 19.5H3.75Z" fill="#1CBF73"/>
</g>
</svg>
