<svg width="25" height="24" viewBox="0 0 25 24" fill="none" xmlns="http://www.w3.org/2000/svg">
<g id="Sofa" clip-path="url(#clip0_2307_268)">
<path id="Vector" d="M2 11.9288V5.625C2 4.58625 2.83625 3.75 3.875 3.75H6.875C7.91375 3.75 8.75 4.58625 8.75 5.625V11.9288M8.75 11.8912V5.625C8.75 4.58625 9.58625 3.75 10.625 3.75H13.625C14.6637 3.75 15.5 4.58625 15.5 5.625V11.8912M15.5 12.7815V5.625C15.5 4.58625 16.3363 3.75 17.375 3.75H20.375C21.4137 3.75 22.25 4.58625 22.25 5.625V12.7815" fill="#60C5B8"/>
<path id="Vector_2" fill-rule="evenodd" clip-rule="evenodd" d="M3.5 13.8826V14.6326H20.75V13.8826H3.5Z" fill="black"/>
<path id="Vector_3" d="M23.75 12.8325V16.7145C23.75 17.427 23.1793 18 22.4705 18H1.77877C1.61027 18 1.44343 17.9667 1.28785 17.902C1.13226 17.8374 0.990992 17.7426 0.87216 17.6231C0.753329 17.5036 0.659278 17.3619 0.595413 17.2059C0.531548 17.05 0.499128 16.883 0.500018 16.7145V12.8333" fill="#60C5B8"/>
<path id="Vector_4" d="M2 18H3.5V19.5H2V18ZM20.75 18H22.25V19.5H20.75V18Z" fill="#25B39E"/>
<path id="Vector_5" fill-rule="evenodd" clip-rule="evenodd" d="M3.86832 4.87505C3.76899 4.87682 3.67442 4.91787 3.60538 4.98931C3.53634 5.06074 3.49844 5.15667 3.50005 5.256V5.99401C3.50005 6.09346 3.53954 6.18882 3.60987 6.25914C3.68019 6.32947 3.77559 6.36901 3.87505 6.36901C3.97451 6.36901 4.06991 6.32947 4.14023 6.25914C4.21056 6.18882 4.25005 6.09346 4.25005 5.99401V5.256C4.25086 5.20574 4.24158 5.15583 4.22272 5.10924C4.20386 5.06265 4.17582 5.02036 4.14028 4.98482C4.10474 4.94928 4.0624 4.92119 4.01581 4.90233C3.96922 4.88347 3.91858 4.87424 3.86832 4.87505Z" fill="#25B39E"/>
<path id="Vector_6" fill-rule="evenodd" clip-rule="evenodd" d="M3.50598 5.25005C3.40653 5.25005 3.31117 5.28949 3.24084 5.35982C3.17052 5.43015 3.13098 5.52559 3.13098 5.62505C3.13098 5.72451 3.17052 5.81986 3.24084 5.89019C3.31117 5.96051 3.40653 6.00005 3.50598 6.00005H4.24399C4.34344 6.00005 4.43884 5.96051 4.50917 5.89019C4.5795 5.81986 4.61899 5.72451 4.61899 5.62505C4.61899 5.52559 4.5795 5.43015 4.50917 5.35982C4.43884 5.28949 4.34344 5.25005 4.24399 5.25005H3.50598ZM6.86899 4.87505C6.81974 4.87583 6.77114 4.88624 6.72594 4.90581C6.68074 4.92538 6.63981 4.95365 6.60555 4.98903C6.57128 5.02441 6.54433 5.06628 6.52621 5.11208C6.5081 5.15788 6.49919 5.20675 6.49998 5.256V5.99401C6.49998 6.09346 6.53948 6.18882 6.6098 6.25914C6.68013 6.32947 6.77553 6.36901 6.87498 6.36901C6.97444 6.36901 7.06984 6.32947 7.14017 6.25914C7.21049 6.18882 7.24998 6.09346 7.24998 5.99401V5.256C7.2508 5.20574 7.24152 5.15583 7.22266 5.10924C7.2038 5.06265 7.17576 5.02036 7.14021 4.98482C7.10467 4.94928 7.06234 4.92119 7.01575 4.90233C6.96916 4.88347 6.91925 4.87424 6.86899 4.87505Z" fill="#25B39E"/>
<path id="Vector_7" fill-rule="evenodd" clip-rule="evenodd" d="M6.50605 5.25C6.40659 5.25 6.31123 5.28945 6.24091 5.35977C6.17058 5.4301 6.13105 5.52554 6.13105 5.625C6.13105 5.72446 6.17058 5.81981 6.24091 5.89014C6.31123 5.96046 6.40659 6 6.50605 6H7.24405C7.34351 6 7.43891 5.96046 7.50923 5.89014C7.57956 5.81981 7.61905 5.72446 7.61905 5.625C7.61905 5.52554 7.57956 5.4301 7.50923 5.35977C7.43891 5.28945 7.34351 5.25 7.24405 5.25H6.50605ZM5.36905 7.125C5.3198 7.12578 5.2712 7.13619 5.226 7.15576C5.1808 7.17533 5.13988 7.2036 5.10561 7.23898C5.07134 7.27436 5.04439 7.31623 5.02628 7.36203C5.00816 7.40783 4.99925 7.4567 5.00005 7.50595V8.24396C5.00005 8.34341 5.03954 8.43877 5.10987 8.50909C5.18019 8.57942 5.27559 8.61896 5.37505 8.61896C5.47451 8.61896 5.56991 8.57942 5.64023 8.50909C5.71056 8.43877 5.75005 8.34341 5.75005 8.24396V7.50595C5.75086 7.45569 5.74158 7.40578 5.72272 7.35919C5.70386 7.3126 5.67582 7.27031 5.64028 7.23477C5.60474 7.19923 5.5624 7.17114 5.51581 7.15228C5.46922 7.13342 5.41931 7.12419 5.36905 7.125Z" fill="#25B39E"/>
<path id="Vector_8" fill-rule="evenodd" clip-rule="evenodd" d="M5.00598 7.5C4.90653 7.5 4.81117 7.53945 4.74084 7.60977C4.67052 7.6801 4.63098 7.77554 4.63098 7.875C4.63098 7.97446 4.67052 8.06981 4.74084 8.14014C4.81117 8.21046 4.90653 8.25 5.00598 8.25H5.74399C5.84344 8.25 5.93884 8.21046 6.00917 8.14014C6.0795 8.06981 6.11899 7.97446 6.11899 7.875C6.11899 7.77554 6.0795 7.6801 6.00917 7.60977C5.93884 7.53945 5.84344 7.5 5.74399 7.5H5.00598ZM6.86899 9.375C6.81974 9.37578 6.77114 9.38619 6.72594 9.40576C6.68074 9.42533 6.63981 9.4536 6.60555 9.48898C6.57128 9.52436 6.54433 9.56623 6.52621 9.61203C6.5081 9.65783 6.49919 9.7067 6.49998 9.75595V10.494C6.49998 10.5934 6.53948 10.6888 6.6098 10.7591C6.68013 10.8294 6.77553 10.869 6.87498 10.869C6.97444 10.869 7.06984 10.8294 7.14017 10.7591C7.21049 10.6888 7.24998 10.5934 7.24998 10.494V9.75595C7.2508 9.70569 7.24152 9.65578 7.22266 9.60919C7.2038 9.5626 7.17576 9.52031 7.14021 9.48477C7.10467 9.44923 7.06234 9.42114 7.01575 9.40228C6.96916 9.38342 6.91925 9.37419 6.86899 9.375Z" fill="#25B39E"/>
<path id="Vector_9" fill-rule="evenodd" clip-rule="evenodd" d="M6.50605 9.75005C6.40659 9.75005 6.31123 9.78949 6.24091 9.85982C6.17058 9.93015 6.13105 10.0256 6.13105 10.125C6.13105 10.2245 6.17058 10.3199 6.24091 10.3902C6.31123 10.4605 6.40659 10.5 6.50605 10.5H7.24405C7.34351 10.5 7.43891 10.4605 7.50923 10.3902C7.57956 10.3199 7.61905 10.2245 7.61905 10.125C7.61905 10.0256 7.57956 9.93015 7.50923 9.85982C7.43891 9.78949 7.34351 9.75005 7.24405 9.75005H6.50605ZM3.86905 9.37505C3.8198 9.37583 3.7712 9.38624 3.726 9.40581C3.6808 9.42538 3.63988 9.45365 3.60561 9.48903C3.57134 9.52441 3.54439 9.56628 3.52628 9.61208C3.50816 9.65788 3.49925 9.70675 3.50005 9.756V10.494C3.50005 10.5935 3.53954 10.6888 3.60987 10.7591C3.68019 10.8295 3.77559 10.869 3.87505 10.869C3.97451 10.869 4.06991 10.8295 4.14023 10.7591C4.21056 10.6888 4.25005 10.5935 4.25005 10.494V9.756C4.25086 9.70574 4.24158 9.65583 4.22272 9.60924C4.20386 9.56265 4.17582 9.52036 4.14028 9.48482C4.10474 9.44928 4.0624 9.42119 4.01581 9.40233C3.96922 9.38347 3.91931 9.37424 3.86905 9.37505Z" fill="#25B39E"/>
<path id="Vector_10" fill-rule="evenodd" clip-rule="evenodd" d="M3.50598 9.75C3.40653 9.75 3.31117 9.78945 3.24084 9.85977C3.17052 9.9301 3.13098 10.0255 3.13098 10.125C3.13098 10.2245 3.17052 10.3198 3.24084 10.3901C3.31117 10.4605 3.40653 10.5 3.50598 10.5H4.24399C4.34344 10.5 4.43884 10.4605 4.50917 10.3901C4.5795 10.3198 4.61899 10.2245 4.61899 10.125C4.61899 10.0255 4.5795 9.9301 4.50917 9.85977C4.43884 9.78945 4.34344 9.75 4.24399 9.75H3.50598Z" fill="#25B39E"/>
<path id="Vector_11" d="M2 6.75073V8.25073C2.417 8.25073 2.75 8.57991 2.75 9.04266V11.9287H4.25V9.04266C4.25 7.79691 3.245 6.75073 2 6.75073Z" fill="#25B39E"/>
<path id="Vector_12" fill-rule="evenodd" clip-rule="evenodd" d="M10.6183 4.87505C10.519 4.87682 10.4244 4.91787 10.3554 4.98931C10.2863 5.06074 10.2484 5.15667 10.25 5.256V5.99401C10.25 6.09346 10.2895 6.18882 10.3599 6.25914C10.4302 6.32947 10.5256 6.36901 10.625 6.36901C10.7245 6.36901 10.8199 6.32947 10.8902 6.25914C10.9606 6.18882 11 6.09346 11 5.99401V5.256C11.0009 5.20574 10.9916 5.15583 10.9727 5.10924C10.9539 5.06265 10.9258 5.02036 10.8903 4.98482C10.8547 4.94928 10.8124 4.92119 10.7658 4.90233C10.7192 4.88347 10.6686 4.87424 10.6183 4.87505Z" fill="#25B39E"/>
<path id="Vector_13" fill-rule="evenodd" clip-rule="evenodd" d="M10.256 5.25005C10.1565 5.25005 10.0612 5.28949 9.99084 5.35982C9.92052 5.43015 9.88098 5.52559 9.88098 5.62505C9.88098 5.72451 9.92052 5.81986 9.99084 5.89019C10.0612 5.96051 10.1565 6.00005 10.256 6.00005H10.994C11.0934 6.00005 11.1888 5.96051 11.2592 5.89019C11.3295 5.81986 11.369 5.72451 11.369 5.62505C11.369 5.52559 11.3295 5.43015 11.2592 5.35982C11.1888 5.28949 11.0934 5.25005 10.994 5.25005H10.256ZM13.619 4.87505C13.5697 4.87583 13.5211 4.88624 13.4759 4.90581C13.4307 4.92538 13.3898 4.95365 13.3555 4.98903C13.3213 5.02441 13.2943 5.06628 13.2762 5.11208C13.2581 5.15788 13.2492 5.20675 13.25 5.256V5.99401C13.25 6.09346 13.2895 6.18882 13.3598 6.25914C13.4301 6.32947 13.5255 6.36901 13.625 6.36901C13.7244 6.36901 13.8198 6.32947 13.8902 6.25914C13.9605 6.18882 14 6.09346 14 5.99401V5.256C14.0008 5.20574 13.9915 5.15583 13.9727 5.10924C13.9538 5.06265 13.9258 5.02036 13.8902 4.98482C13.8547 4.94928 13.8123 4.92119 13.7657 4.90233C13.7192 4.88347 13.6692 4.87424 13.619 4.87505Z" fill="#25B39E"/>
<path id="Vector_14" fill-rule="evenodd" clip-rule="evenodd" d="M13.256 5.25C13.1566 5.25 13.0612 5.28945 12.9909 5.35977C12.9206 5.4301 12.881 5.52554 12.881 5.625C12.881 5.72446 12.9206 5.81981 12.9909 5.89014C13.0612 5.96046 13.1566 6 13.256 6H13.9941C14.0935 6 14.1889 5.96046 14.2592 5.89014C14.3296 5.81981 14.3691 5.72446 14.3691 5.625C14.3691 5.52554 14.3296 5.4301 14.2592 5.35977C14.1889 5.28945 14.0935 5.25 13.9941 5.25H13.256ZM12.1191 7.125C12.0698 7.12578 12.0212 7.13619 11.976 7.15576C11.9308 7.17533 11.8899 7.2036 11.8556 7.23898C11.8213 7.27436 11.7944 7.31623 11.7763 7.36203C11.7582 7.40783 11.7493 7.4567 11.75 7.50595V8.24396C11.75 8.34341 11.7895 8.43877 11.8599 8.50909C11.9302 8.57942 12.0256 8.61896 12.125 8.61896C12.2245 8.61896 12.3199 8.57942 12.3902 8.50909C12.4606 8.43877 12.5 8.34341 12.5 8.24396V7.50595C12.5009 7.45569 12.4916 7.40578 12.4727 7.35919C12.4539 7.3126 12.4258 7.27031 12.3903 7.23477C12.3547 7.19923 12.3124 7.17114 12.2658 7.15228C12.2192 7.13342 12.1693 7.12419 12.1191 7.125Z" fill="#25B39E"/>
<path id="Vector_15" fill-rule="evenodd" clip-rule="evenodd" d="M11.756 7.5C11.6565 7.5 11.5612 7.53945 11.4908 7.60977C11.4205 7.6801 11.381 7.77554 11.381 7.875C11.381 7.97446 11.4205 8.06981 11.4908 8.14014C11.5612 8.21046 11.6565 8.25 11.756 8.25H12.494C12.5934 8.25 12.6888 8.21046 12.7592 8.14014C12.8295 8.06981 12.869 7.97446 12.869 7.875C12.869 7.77554 12.8295 7.6801 12.7592 7.60977C12.6888 7.53945 12.5934 7.5 12.494 7.5H11.756ZM13.619 9.375C13.5697 9.37578 13.5211 9.38619 13.4759 9.40576C13.4307 9.42533 13.3898 9.4536 13.3555 9.48898C13.3213 9.52436 13.2943 9.56623 13.2762 9.61203C13.2581 9.65783 13.2492 9.7067 13.25 9.75595V10.494C13.25 10.5934 13.2895 10.6888 13.3598 10.7591C13.4301 10.8294 13.5255 10.869 13.625 10.869C13.7244 10.869 13.8198 10.8294 13.8902 10.7591C13.9605 10.6888 14 10.5934 14 10.494V9.75595C14.0008 9.70569 13.9915 9.65578 13.9727 9.60919C13.9538 9.5626 13.9258 9.52031 13.8902 9.48477C13.8547 9.44923 13.8123 9.42114 13.7657 9.40228C13.7192 9.38342 13.6692 9.37419 13.619 9.375Z" fill="#25B39E"/>
<path id="Vector_16" fill-rule="evenodd" clip-rule="evenodd" d="M13.256 9.75005C13.1566 9.75005 13.0612 9.78949 12.9909 9.85982C12.9206 9.93015 12.881 10.0256 12.881 10.125C12.881 10.2245 12.9206 10.3199 12.9909 10.3902C13.0612 10.4605 13.1566 10.5 13.256 10.5H13.9941C14.0935 10.5 14.1889 10.4605 14.2592 10.3902C14.3296 10.3199 14.3691 10.2245 14.3691 10.125C14.3691 10.0256 14.3296 9.93015 14.2592 9.85982C14.1889 9.78949 14.0935 9.75005 13.9941 9.75005H13.256ZM10.6191 9.37505C10.5698 9.37583 10.5212 9.38624 10.476 9.40581C10.4308 9.42538 10.3899 9.45365 10.3556 9.48903C10.3213 9.52441 10.2944 9.56628 10.2763 9.61208C10.2582 9.65788 10.2493 9.70675 10.25 9.756V10.494C10.25 10.5935 10.2895 10.6888 10.3599 10.7591C10.4302 10.8295 10.5256 10.869 10.625 10.869C10.7245 10.869 10.8199 10.8295 10.8902 10.7591C10.9606 10.6888 11 10.5935 11 10.494V9.756C11.0009 9.70574 10.9916 9.65583 10.9727 9.60924C10.9539 9.56265 10.9258 9.52036 10.8903 9.48482C10.8547 9.44928 10.8124 9.42119 10.7658 9.40233C10.7192 9.38347 10.6693 9.37424 10.6191 9.37505Z" fill="#25B39E"/>
<path id="Vector_17" fill-rule="evenodd" clip-rule="evenodd" d="M10.256 9.75005C10.1565 9.75005 10.0612 9.78949 9.99084 9.85982C9.92052 9.93015 9.88098 10.0256 9.88098 10.125C9.88098 10.2245 9.92052 10.3199 9.99084 10.3902C10.0612 10.4605 10.1565 10.5 10.256 10.5H10.994C11.0934 10.5 11.1888 10.4605 11.2592 10.3902C11.3295 10.3199 11.369 10.2245 11.369 10.125C11.369 10.0256 11.3295 9.93015 11.2592 9.85982C11.1888 9.78949 11.0934 9.75005 10.994 9.75005H10.256ZM17.369 4.87505C17.3197 4.87583 17.2711 4.88624 17.2259 4.90581C17.1807 4.92538 17.1398 4.95365 17.1055 4.98903C17.0713 5.02441 17.0443 5.06628 17.0262 5.11208C17.0081 5.15788 16.9992 5.20675 17 5.256V5.99401C17 6.09346 17.0395 6.18882 17.1098 6.25914C17.1801 6.32947 17.2755 6.36901 17.375 6.36901C17.4744 6.36901 17.5698 6.32947 17.6402 6.25914C17.7105 6.18882 17.75 6.09346 17.75 5.99401V5.256C17.7508 5.20574 17.7415 5.15583 17.7227 5.10924C17.7038 5.06265 17.6758 5.02036 17.6402 4.98482C17.6047 4.94928 17.5623 4.92119 17.5157 4.90233C17.4692 4.88347 17.4192 4.87424 17.369 4.87505Z" fill="#25B39E"/>
<path id="Vector_18" fill-rule="evenodd" clip-rule="evenodd" d="M17.006 5.25005C16.9065 5.25005 16.8112 5.28949 16.7408 5.35982C16.6705 5.43015 16.631 5.52559 16.631 5.62505C16.631 5.72451 16.6705 5.81986 16.7408 5.89019C16.8112 5.96051 16.9065 6.00005 17.006 6.00005H17.744C17.8434 6.00005 17.9388 5.96051 18.0092 5.89019C18.0795 5.81986 18.119 5.72451 18.119 5.62505C18.119 5.52559 18.0795 5.43015 18.0092 5.35982C17.9388 5.28949 17.8434 5.25005 17.744 5.25005H17.006ZM20.369 4.87505C20.3197 4.87583 20.2711 4.88624 20.2259 4.90581C20.1807 4.92538 20.1398 4.95365 20.1055 4.98903C20.0713 5.02441 20.0443 5.06628 20.0262 5.11208C20.0081 5.15788 19.9992 5.20675 20 5.256V5.99401C20 6.09346 20.0395 6.18882 20.1098 6.25914C20.1801 6.32947 20.2755 6.36901 20.375 6.36901C20.4744 6.36901 20.5698 6.32947 20.6402 6.25914C20.7105 6.18882 20.75 6.09346 20.75 5.99401V5.256C20.7508 5.20574 20.7415 5.15583 20.7227 5.10924C20.7038 5.06265 20.6758 5.02036 20.6402 4.98482C20.6047 4.94928 20.5623 4.92119 20.5157 4.90233C20.4692 4.88347 20.4192 4.87424 20.369 4.87505Z" fill="#25B39E"/>
<path id="Vector_19" fill-rule="evenodd" clip-rule="evenodd" d="M20.006 5.25C19.9066 5.25 19.8112 5.28945 19.7409 5.35977C19.6706 5.4301 19.631 5.52554 19.631 5.625C19.631 5.72446 19.6706 5.81981 19.7409 5.89014C19.8112 5.96046 19.9066 6 20.006 6H20.7441C20.8435 6 20.9389 5.96046 21.0092 5.89014C21.0796 5.81981 21.1191 5.72446 21.1191 5.625C21.1191 5.52554 21.0796 5.4301 21.0092 5.35977C20.9389 5.28945 20.8435 5.25 20.7441 5.25H20.006ZM18.8691 7.125C18.8198 7.12578 18.7712 7.13619 18.726 7.15576C18.6808 7.17533 18.6399 7.2036 18.6056 7.23898C18.5713 7.27436 18.5444 7.31623 18.5263 7.36203C18.5082 7.40783 18.4993 7.4567 18.5 7.50595V8.24396C18.5 8.34341 18.5395 8.43877 18.6099 8.50909C18.6802 8.57942 18.7756 8.61896 18.875 8.61896C18.9745 8.61896 19.0699 8.57942 19.1402 8.50909C19.2106 8.43877 19.25 8.34341 19.25 8.24396V7.50595C19.2509 7.45569 19.2416 7.40578 19.2227 7.35919C19.2039 7.3126 19.1758 7.27031 19.1403 7.23477C19.1047 7.19923 19.0624 7.17114 19.0158 7.15228C18.9692 7.13342 18.9193 7.12419 18.8691 7.125Z" fill="#25B39E"/>
<path id="Vector_20" fill-rule="evenodd" clip-rule="evenodd" d="M18.506 7.5C18.4065 7.5 18.3112 7.53945 18.2408 7.60977C18.1705 7.6801 18.131 7.77554 18.131 7.875C18.131 7.97446 18.1705 8.06981 18.2408 8.14014C18.3112 8.21046 18.4065 8.25 18.506 8.25H19.244C19.3434 8.25 19.4388 8.21046 19.5092 8.14014C19.5795 8.06981 19.619 7.97446 19.619 7.875C19.619 7.77554 19.5795 7.6801 19.5092 7.60977C19.4388 7.53945 19.3434 7.5 19.244 7.5H18.506ZM20.369 9.375C20.3197 9.37578 20.2711 9.38619 20.2259 9.40576C20.1807 9.42533 20.1398 9.4536 20.1055 9.48898C20.0713 9.52436 20.0443 9.56623 20.0262 9.61203C20.0081 9.65783 19.9992 9.7067 20 9.75595V10.494C20 10.5934 20.0395 10.6888 20.1098 10.7591C20.1801 10.8294 20.2755 10.869 20.375 10.869C20.4744 10.869 20.5698 10.8294 20.6402 10.7591C20.7105 10.6888 20.75 10.5934 20.75 10.494V9.75595C20.7508 9.70569 20.7415 9.65578 20.7227 9.60919C20.7038 9.5626 20.6758 9.52031 20.6402 9.48477C20.6047 9.44923 20.5623 9.42114 20.5157 9.40228C20.4692 9.38342 20.4192 9.37419 20.369 9.375Z" fill="#25B39E"/>
<path id="Vector_21" fill-rule="evenodd" clip-rule="evenodd" d="M20.006 9.75005C19.9066 9.75005 19.8112 9.78949 19.7409 9.85982C19.6706 9.93015 19.631 10.0256 19.631 10.125C19.631 10.2245 19.6706 10.3199 19.7409 10.3902C19.8112 10.4605 19.9066 10.5 20.006 10.5H20.7441C20.8435 10.5 20.9389 10.4605 21.0092 10.3902C21.0796 10.3199 21.1191 10.2245 21.1191 10.125C21.1191 10.0256 21.0796 9.93015 21.0092 9.85982C20.9389 9.78949 20.8435 9.75005 20.7441 9.75005H20.006ZM17.3691 9.37505C17.3198 9.37583 17.2712 9.38624 17.226 9.40581C17.1808 9.42538 17.1399 9.45365 17.1056 9.48903C17.0713 9.52441 17.0444 9.56628 17.0263 9.61208C17.0082 9.65788 16.9993 9.70675 17 9.756V10.494C17 10.5935 17.0395 10.6888 17.1099 10.7591C17.1802 10.8295 17.2756 10.869 17.375 10.869C17.4745 10.869 17.5699 10.8295 17.6402 10.7591C17.7106 10.6888 17.75 10.5935 17.75 10.494V9.756C17.7509 9.70574 17.7416 9.65583 17.7227 9.60924C17.7039 9.56265 17.6758 9.52036 17.6403 9.48482C17.6047 9.44928 17.5624 9.42119 17.5158 9.40233C17.4692 9.38347 17.4193 9.37424 17.3691 9.37505Z" fill="#25B39E"/>
<path id="Vector_22" fill-rule="evenodd" clip-rule="evenodd" d="M17.006 9.75C16.9065 9.75 16.8112 9.78945 16.7408 9.85977C16.6705 9.9301 16.631 10.0255 16.631 10.125C16.631 10.2245 16.6705 10.3198 16.7408 10.3901C16.8112 10.4605 16.9065 10.5 17.006 10.5H17.744C17.8434 10.5 17.9388 10.4605 18.0092 10.3901C18.0795 10.3198 18.119 10.2245 18.119 10.125C18.119 10.0255 18.0795 9.9301 18.0092 9.85977C17.9388 9.78945 17.8434 9.75 17.744 9.75H17.006Z" fill="#25B39E"/>
<path id="Vector_23" d="M0.5 14.4412V9.04275C0.5 8.18775 1.169 7.5 2 7.5C2.831 7.5 3.5 8.18775 3.5 9.04275V18" fill="#60C5B8"/>
<path id="Vector_24" d="M22.25 6.75C21.005 6.75 20 7.797 20 9.04275V12.7815H21.5V9.04275C21.5 8.58 21.833 8.25075 22.25 8.25075V6.75Z" fill="#25B39E"/>
<path id="Vector_25" d="M20.75 18V9.04275C20.75 8.18775 21.419 7.5 22.25 7.5C23.081 7.5 23.75 8.18775 23.75 9.04275V14.4412M3.5 11.625H20.75V13.875H3.5V11.625Z" fill="#60C5B8"/>
<path id="Vector_26" d="M3.50001 11.6243H20.75V12.3743H3.50001V11.6243ZM0.500011 15.9645V16.7145C0.500011 17.4263 1.07001 18 1.77876 18H22.4713C23.1793 18 23.75 17.4255 23.75 16.7138V15.9638C23.75 16.6755 23.18 17.25 22.4713 17.25H1.77876C1.61032 17.2498 1.44357 17.2164 1.28808 17.1516C1.13258 17.0869 0.991389 16.9921 0.872597 16.8727C0.753805 16.7532 0.659746 16.6115 0.59581 16.4557C0.531875 16.2999 0.49932 16.133 0.500011 15.9645Z" fill="#25B39E"/>
</g>
<defs>
<clipPath id="clip0_2307_268">
<rect width="24" height="24" fill="white" transform="translate(0.5)"/>
</clipPath>
</defs>
</svg>
