<svg width="18" height="21" viewBox="0 0 18 21" fill="none" xmlns="http://www.w3.org/2000/svg">
<g id="Group 21">
<path id="Vector" d="M18 14C18.0014 14.1905 17.9435 14.3767 17.8343 14.5327C17.7251 14.6888 17.5699 14.807 17.3904 14.8708L13.7075 16.2101L12.3688 19.8924C12.3028 20.0701 12.184 20.2234 12.0284 20.3317C11.8727 20.44 11.6876 20.498 11.498 20.498C11.3084 20.498 11.1233 20.44 10.9677 20.3317C10.812 20.2234 10.6932 20.0701 10.6272 19.8924L9.28794 16.206L5.60562 14.8708C5.42786 14.8048 5.27455 14.686 5.16629 14.5303C5.05803 14.3747 5 14.1896 5 14C5 13.8104 5.05803 13.6253 5.16629 13.4696C5.27455 13.314 5.42786 13.1952 5.60562 13.1292L9.292 11.7899L10.6272 8.10758C10.6932 7.92982 10.812 7.77651 10.9677 7.66824C11.1233 7.55998 11.3084 7.50195 11.498 7.50195C11.6876 7.50195 11.8727 7.55998 12.0284 7.66824C12.184 7.77651 12.3028 7.92982 12.3688 8.10758L13.7081 11.794L17.3904 13.1292C17.5699 13.193 17.7251 13.3111 17.8343 13.4672C17.9435 13.6233 18.0014 13.8095 18 14Z" fill="#06B106"/>
<path id="Vector_2" d="M17 2.50134C17.0004 2.55996 16.9826 2.61725 16.949 2.66527C16.9154 2.71329 16.8677 2.74965 16.8124 2.76928L15.6792 3.18137L15.2673 4.31439C15.247 4.36908 15.2105 4.41626 15.1626 4.44957C15.1147 4.48288 15.0577 4.50073 14.9994 4.50073C14.941 4.50073 14.8841 4.48288 14.8362 4.44957C14.7883 4.41626 14.7518 4.36908 14.7315 4.31439L14.3194 3.18012L13.1863 2.76928C13.1317 2.74898 13.0845 2.71242 13.0512 2.66453C13.0179 2.61663 13 2.55969 13 2.50134C13 2.443 13.0179 2.38606 13.0512 2.33816C13.0845 2.29026 13.1317 2.25371 13.1863 2.23341L14.3206 1.82132L14.7315 0.688299C14.7518 0.633603 14.7883 0.586431 14.8362 0.55312C14.8841 0.519808 14.941 0.501953 14.9994 0.501953C15.0577 0.501953 15.1147 0.519808 15.1626 0.55312C15.2105 0.586431 15.247 0.633603 15.2673 0.688299L15.6794 1.82257L16.8124 2.23341C16.8677 2.25304 16.9154 2.2894 16.949 2.33741C16.9826 2.38543 17.0004 2.44273 17 2.50134Z" fill="#06B106"/>
<path id="Vector_3" d="M7.99998 6.50073C8.00089 6.61796 7.96526 6.73256 7.89803 6.82859C7.8308 6.92463 7.73533 6.99734 7.62487 7.03661L5.35847 7.86079L4.53466 10.1268C4.49405 10.2362 4.42094 10.3306 4.32515 10.3972C4.22935 10.4638 4.11546 10.4995 3.99878 10.4995C3.8821 10.4995 3.76821 10.4638 3.67241 10.3972C3.57662 10.3306 3.50351 10.2362 3.46291 10.1268L2.63873 7.85829L0.372692 7.03661C0.263301 6.99601 0.168956 6.9229 0.102333 6.8271C0.0357102 6.73131 0 6.61742 0 6.50073C0 6.38405 0.0357102 6.27016 0.102333 6.17437C0.168956 6.07857 0.263301 6.00546 0.372692 5.96486L2.64123 5.14068L3.46291 2.87464C3.50351 2.76525 3.57662 2.67091 3.67241 2.60429C3.76821 2.53766 3.8821 2.50195 3.99878 2.50195C4.11546 2.50195 4.22935 2.53766 4.32515 2.60429C4.42094 2.67091 4.49405 2.76525 4.53466 2.87464L5.35883 5.14318L7.62487 5.96486C7.73533 6.00413 7.8308 6.07684 7.89803 6.17288C7.96526 6.26891 8.00089 6.38351 7.99998 6.50073Z" fill="#06B106"/>
</g>
</svg>
