<svg width="16" height="16" viewBox="0 0 16 16" fill="none" xmlns="http://www.w3.org/2000/svg">
<g id="fluent:access-time-24-filled">
<path id="Vector" d="M14.6667 7.99967C14.6667 4.31767 11.682 1.33301 8.00004 1.33301C4.31804 1.33301 1.33337 4.31767 1.33337 7.99967C1.33337 11.6817 4.31804 14.6663 8.00004 14.6663C11.682 14.6663 14.6667 11.6817 14.6667 7.99967ZM5.00004 5.82901C5.23137 5.57434 5.61004 5.33301 6.16671 5.33301C6.93471 5.33301 7.42937 5.86101 7.60337 6.44034C7.77204 7.00501 7.67004 7.70367 7.19004 8.18567C7.02356 8.34573 6.84697 8.49492 6.66137 8.63234L6.63471 8.65301C6.44804 8.79701 6.28137 8.92767 6.13471 9.07301C5.96471 9.24367 5.82537 9.42967 5.74471 9.66634H7.16671C7.29932 9.66634 7.42649 9.71902 7.52026 9.81279C7.61403 9.90656 7.66671 10.0337 7.66671 10.1663C7.66671 10.2989 7.61403 10.4261 7.52026 10.5199C7.42649 10.6137 7.29932 10.6663 7.16671 10.6663H5.16671C5.0341 10.6663 4.90692 10.6137 4.81315 10.5199C4.71939 10.4261 4.66671 10.2989 4.66671 10.1663C4.66671 9.33501 5.01604 8.77767 5.42937 8.36567C5.62671 8.16834 5.84137 8.00234 6.02271 7.86167L6.02471 7.86034C6.21537 7.71301 6.36337 7.59834 6.48137 7.48034C6.66271 7.29767 6.72604 6.99701 6.64537 6.72701C6.56871 6.47301 6.39871 6.33301 6.16671 6.33301C5.93137 6.33301 5.81004 6.42434 5.74004 6.50167C5.69908 6.54687 5.66576 6.59844 5.64137 6.65434V6.65634C5.60053 6.78258 5.51121 6.88743 5.39306 6.94782C5.27491 7.0082 5.13762 7.01918 5.01137 6.97834C4.88513 6.9375 4.78028 6.84818 4.7199 6.73003C4.65951 6.61188 4.64853 6.47458 4.68937 6.34834L4.71271 6.28434C4.78121 6.11712 4.87887 5.96306 5.00004 5.82901ZM8.83337 5.33301C8.96598 5.33301 9.09316 5.38569 9.18693 5.47945C9.28069 5.57322 9.33337 5.7004 9.33337 5.83301V7.66634H10.3334V5.83301C10.3334 5.7004 10.3861 5.57322 10.4798 5.47945C10.5736 5.38569 10.7008 5.33301 10.8334 5.33301C10.966 5.33301 11.0932 5.38569 11.1869 5.47945C11.2807 5.57322 11.3334 5.7004 11.3334 5.83301V10.1463C11.3334 10.2789 11.2807 10.4061 11.1869 10.4999C11.0932 10.5937 10.966 10.6463 10.8334 10.6463C10.7008 10.6463 10.5736 10.5937 10.4798 10.4999C10.3861 10.4061 10.3334 10.2789 10.3334 10.1463V8.66634H8.83337C8.70077 8.66634 8.57359 8.61366 8.47982 8.51989C8.38605 8.42613 8.33337 8.29895 8.33337 8.16634V5.83301C8.33337 5.7004 8.38605 5.57322 8.47982 5.47945C8.57359 5.38569 8.70077 5.33301 8.83337 5.33301Z" fill="#1CBF73"/>
</g>
</svg>
