<svg width="18" height="19" viewBox="0 0 18 19" fill="none" xmlns="http://www.w3.org/2000/svg">
<path d="M7.55 0.532465C7.95577 0.190487 8.46935 0.00292969 9 0.00292969C9.53065 0.00292969 10.0442 0.190487 10.45 0.532465L17.2 6.22446C17.707 6.65246 18 7.28146 18 7.94446V17.2545C18 17.7186 17.8156 18.1637 17.4874 18.4919C17.1592 18.8201 16.7141 19.0045 16.25 19.0045H12.75C12.2859 19.0045 11.8408 18.8201 11.5126 18.4919C11.1844 18.1637 11 17.7186 11 17.2545V12.2475C11 12.1812 10.9737 12.1176 10.9268 12.0707C10.8799 12.0238 10.8163 11.9975 10.75 11.9975H7.25C7.1837 11.9975 7.12011 12.0238 7.07322 12.0707C7.02634 12.1176 7 12.1812 7 12.2475V17.2545C7 17.7186 6.81563 18.1637 6.48744 18.4919C6.15925 18.8201 5.71413 19.0045 5.25 19.0045H1.75C1.52019 19.0045 1.29262 18.9592 1.0803 18.8713C0.867984 18.7833 0.675066 18.6544 0.512563 18.4919C0.350061 18.3294 0.221157 18.1365 0.133211 17.9242C0.0452652 17.7118 0 17.4843 0 17.2545V7.94446C0 7.28146 0.293 6.65246 0.8 6.22446L7.55 0.532465ZM9.483 1.67946C9.34779 1.56565 9.17673 1.50323 9 1.50323C8.82327 1.50323 8.65221 1.56565 8.517 1.67946L1.767 7.37046C1.68347 7.44078 1.6163 7.52849 1.57018 7.62746C1.52406 7.72643 1.50011 7.83428 1.5 7.94346V17.2535C1.5 17.3915 1.612 17.5035 1.75 17.5035H5.25C5.3163 17.5035 5.37989 17.4771 5.42678 17.4302C5.47366 17.3834 5.5 17.3198 5.5 17.2535V12.2465C5.5 11.2795 6.284 10.4965 7.25 10.4965H10.75C11.716 10.4965 12.5 11.2795 12.5 12.2465V17.2535C12.5 17.3915 12.612 17.5035 12.75 17.5035H16.25C16.3163 17.5035 16.3799 17.4771 16.4268 17.4302C16.4737 17.3834 16.5 17.3198 16.5 17.2535V7.94346C16.4999 7.83428 16.4759 7.72643 16.4298 7.62746C16.3837 7.52849 16.3165 7.44078 16.233 7.37046L9.483 1.67946Z" fill="#B3B3B3"/>
</svg>
