<svg width="24" height="24" viewBox="0 0 24 24" fill="none" xmlns="http://www.w3.org/2000/svg">
<g id="fluent:home-24-filled">
<path id="Vector" d="M13.45 2.53295C13.0442 2.19098 12.5307 2.00342 12 2.00342C11.4693 2.00342 10.9558 2.19098 10.55 2.53295L3.8 8.22795C3.54946 8.43911 3.34806 8.70243 3.20988 8.99952C3.0717 9.29661 3.00007 9.6203 3 9.94795V19.253C3 20.219 3.784 21.003 4.75 21.003H7.75C8.21413 21.003 8.65925 20.8186 8.98744 20.4904C9.31563 20.1622 9.5 19.7171 9.5 19.253V15.25C9.5 14.57 10.042 14.018 10.717 14H13.283C13.6088 14.0086 13.9183 14.144 14.1456 14.3775C14.373 14.611 14.5001 14.9241 14.5 15.25V19.253C14.5 20.219 15.284 21.003 16.25 21.003H19.25C19.7141 21.003 20.1592 20.8186 20.4874 20.4904C20.8156 20.1622 21 19.7171 21 19.253V9.94695C20.9999 9.6193 20.9283 9.29561 20.7901 8.99852C20.6519 8.70143 20.4505 8.43811 20.2 8.22695L13.45 2.53295Z" fill="#1CBF73"/>
</g>
</svg>
