<svg width="25" height="24" viewBox="0 0 25 24" fill="none" xmlns="http://www.w3.org/2000/svg">
<g id="Cabinet">
<path id="Vector" d="M15.5416 20.25H18.5416V14.25V9.75H10.2916V14.25H15.5416V20.25Z" fill="#78B9EB"/>
<path id="Vector_2" d="M5.41663 20.625H14.4166V15.375H5.41663V20.625ZM11.3679 16.875C11.284 17.196 11.096 17.4801 10.8334 17.6829C10.5708 17.8857 10.2484 17.9957 9.91663 17.9957C9.58484 17.9957 9.26242 17.8857 8.99983 17.6829C8.73723 17.4801 8.54927 17.196 8.46538 16.875H11.3679Z" fill="#78B9EB"/>
<path id="Vector_3" d="M18.5416 3.75H10.2916V8.25H18.5416V3.75Z" fill="#78B9EB"/>
<path id="Vector_4" d="M8.79163 8.25V3.75H5.79163V14.25H8.79163V8.25Z" fill="#78B9EB"/>
<path id="Vector_5" d="M3.16663 1.125V22.875H21.1666V1.125H3.16663ZM20.0416 8.25V21.75H4.29163V2.25H20.0416V8.25Z" fill="#78B9EB"/>
<path id="Vector_6" d="M21.1666 0.75H3.16663C3.06717 0.75 2.97179 0.789509 2.90146 0.859835C2.83113 0.930161 2.79163 1.02554 2.79163 1.125V22.875C2.79163 22.9745 2.83113 23.0698 2.90146 23.1402C2.97179 23.2105 3.06717 23.25 3.16663 23.25H21.1666C21.2661 23.25 21.3615 23.2105 21.4318 23.1402C21.5021 23.0698 21.5416 22.9745 21.5416 22.875V1.125C21.5416 1.02554 21.5021 0.930161 21.4318 0.859835C21.3615 0.789509 21.2661 0.75 21.1666 0.75ZM20.7916 22.5H3.54163V1.5H20.7916V22.5Z" fill="#006DF0"/>
<path id="Vector_7" d="M4.29163 22.125H20.0416C20.1411 22.125 20.2365 22.0855 20.3068 22.0152C20.3771 21.9448 20.4166 21.8495 20.4166 21.75V2.25C20.4166 2.15054 20.3771 2.05516 20.3068 1.98484C20.2365 1.91451 20.1411 1.875 20.0416 1.875H4.29163C4.19217 1.875 4.09679 1.91451 4.02646 1.98484C3.95613 2.05516 3.91663 2.15054 3.91663 2.25V21.75C3.91663 21.8495 3.95613 21.9448 4.02646 22.0152C4.09679 22.0855 4.19217 22.125 4.29163 22.125ZM5.41663 3.90525V13.875H4.66663V3.15525L5.41663 3.90525ZM10.6666 4.125H18.1666V7.875H10.6666V4.125ZM19.1364 8.625L18.3864 9.375H10.4469L9.69688 8.625H19.1364ZM9.16663 9.15525L9.91663 9.90525V13.875H9.16663V9.15525ZM10.6666 10.125H18.1666V13.875H10.6666V10.125ZM18.1666 14.625V19.875H15.9166V14.625H18.1666ZM15.9166 20.625H18.3864L19.1364 21.375H15.9166V20.625ZM18.9166 20.0947V14.625H19.6666V20.8447L18.9166 20.0947ZM19.6666 13.875H18.9166V9.90525L19.6666 9.15525V13.875ZM19.6666 7.875H18.9166V3.90525L19.6666 3.15525V7.875ZM18.3864 3.375H10.4469L9.69688 2.625H19.1364L18.3864 3.375ZM9.91663 3.90525V7.875H9.16663V3.15525L9.91663 3.90525ZM8.41663 13.875H6.16663V4.125H8.41663V13.875ZM4.66663 21.375V14.625H15.1666V21.375H4.66663ZM8.41663 3.375H5.94688L5.19688 2.625H8.41663V3.375Z" fill="#006DF0"/>
<path id="Vector_8" d="M14.4166 15H5.41663C5.31717 15 5.22179 15.0395 5.15146 15.1098C5.08113 15.1802 5.04163 15.2755 5.04163 15.375V20.625C5.04163 20.7245 5.08113 20.8198 5.15146 20.8902C5.22179 20.9605 5.31717 21 5.41663 21H14.4166C14.5161 21 14.6115 20.9605 14.6818 20.8902C14.7521 20.8198 14.7916 20.7245 14.7916 20.625V15.375C14.7916 15.2755 14.7521 15.1802 14.6818 15.1098C14.6115 15.0395 14.5161 15 14.4166 15ZM14.0416 20.25H5.79163V15.75H14.0416V20.25Z" fill="#006DF0"/>
<path id="Vector_9" d="M9.91663 18.375C10.281 18.3745 10.6374 18.2679 10.9422 18.0681C11.2469 17.8683 11.4869 17.584 11.6326 17.25H12.1666V16.5H7.66663V17.25H8.20063C8.34639 17.584 8.58632 17.8683 8.89108 18.0681C9.19584 18.2679 9.55221 18.3745 9.91663 18.375ZM10.7491 17.25C10.6448 17.3679 10.5167 17.4623 10.3732 17.527C10.2296 17.5916 10.074 17.625 9.91663 17.625C9.75922 17.625 9.6036 17.5916 9.46009 17.527C9.31657 17.4623 9.18842 17.3679 9.08413 17.25H10.7491Z" fill="#006DF0"/>
</g>
</svg>
