<svg width="14" height="24" viewBox="0 0 14 24" fill="none" xmlns="http://www.w3.org/2000/svg">
<g id="lamp-light">
<path id="Vector" d="M13.2084 16.5C13.208 17.6671 12.8872 18.8117 12.2811 19.809C11.6749 20.8063 10.8066 21.6181 9.77083 22.1558C8.73503 22.6936 7.57149 22.9367 6.40702 22.8586C5.24256 22.7806 4.12187 22.3844 3.1671 21.7132C2.21234 21.042 1.46015 20.1216 0.992511 19.0523C0.524877 17.983 0.359749 16.8059 0.515127 15.6492C0.670506 14.4925 1.14043 13.4007 1.87367 12.4927C2.60691 11.5847 3.57533 10.8954 4.67338 10.5H8.99338C10.2278 10.9451 11.2949 11.7601 12.0492 12.8338C12.8035 13.9076 13.2083 15.1878 13.2084 16.5Z" fill="#FFDA44"/>
<path id="Vector_2" d="M9.08337 3V7.125H4.58337V3H6.83337H9.08337Z" fill="#2488FF"/>
<path id="Vector_3" d="M9.83337 7.125V8.625H9.40587H4.26087H3.83337V7.125H4.69212H8.97462H9.83337Z" fill="#57A4FF"/>
<path id="Vector_4" d="M9.45837 8.625H4.20837V10.5H9.45837V8.625Z" fill="#2488FF"/>
<path id="Vector_5" d="M7.95837 10.5V16.5C7.95837 16.7984 7.83985 17.0845 7.62887 17.2955C7.41789 17.5065 7.13174 17.625 6.83337 17.625C6.53501 17.625 6.24886 17.5065 6.03788 17.2955C5.8269 17.0845 5.70837 16.7984 5.70837 16.5V10.5H7.95837Z" fill="#FF5023"/>
<path id="Vector_6" d="M9.83338 10.4587V9C9.93284 9 10.0282 8.96049 10.0985 8.89017C10.1689 8.81984 10.2084 8.72446 10.2084 8.625V7.125C10.2084 7.02554 10.1689 6.93016 10.0985 6.85983C10.0282 6.78951 9.93284 6.75 9.83338 6.75H9.45838V3C9.45838 2.90054 9.41887 2.80516 9.34855 2.73484C9.27822 2.66451 9.18284 2.625 9.08338 2.625H7.20838V0.75H6.45838V2.625H4.58338C4.48392 2.625 4.38854 2.66451 4.31821 2.73484C4.24789 2.80516 4.20838 2.90054 4.20838 3V6.75H3.83338C3.73392 6.75 3.63854 6.78951 3.56821 6.85983C3.49789 6.93016 3.45838 7.02554 3.45838 7.125V8.625C3.45838 8.72446 3.49789 8.81984 3.56821 8.89017C3.63854 8.96049 3.73392 9 3.83338 9V10.4587C2.46964 11.1354 1.37467 12.2531 0.726256 13.6305C0.0778474 15.0078 -0.0859159 16.5639 0.261558 18.0461C0.609033 19.5283 1.44734 20.8495 2.64035 21.7952C3.83336 22.7408 5.31102 23.2554 6.83338 23.2554C8.35574 23.2554 9.8334 22.7408 11.0264 21.7952C12.2194 20.8495 13.0577 19.5283 13.4052 18.0461C13.7527 16.5639 13.5889 15.0078 12.9405 13.6305C12.2921 12.2531 11.1971 11.1354 9.83338 10.4587ZM4.95838 3.375H8.70838V6.75H4.95838V3.375ZM4.20838 7.5H9.45838V8.25H4.20838V7.5ZM7.20838 15.75V10.875H7.58338V16.5C7.58338 16.6989 7.50436 16.8897 7.36371 17.0303C7.22306 17.171 7.03229 17.25 6.83338 17.25C6.63447 17.25 6.4437 17.171 6.30305 17.0303C6.1624 16.8897 6.08338 16.6989 6.08338 16.5V10.875H6.45838V15.75H7.20838ZM4.58338 10.125V9H9.08338V10.125H4.58338ZM6.83338 22.5C5.42597 22.5002 4.06328 22.0056 2.98361 21.1028C1.90394 20.2 1.176 18.9463 0.92711 17.5611C0.678216 16.1758 0.924199 14.7472 1.62204 13.525C2.31989 12.3028 3.42518 11.3648 4.74463 10.875H5.33338V16.5C5.33338 16.8978 5.49142 17.2794 5.77272 17.5607C6.05402 17.842 6.43555 18 6.83338 18C7.2312 18 7.61274 17.842 7.89404 17.5607C8.17534 17.2794 8.33338 16.8978 8.33338 16.5V10.875H8.92213C10.2416 11.3648 11.3469 12.3028 12.0447 13.525C12.7426 14.7472 12.9885 16.1758 12.7396 17.5611C12.4908 18.9463 11.7628 20.2 10.6832 21.1028C9.60348 22.0056 8.24079 22.5002 6.83338 22.5Z" fill="#231F20"/>
</g>
</svg>
