<svg width="16" height="16" viewBox="0 0 16 16" fill="none" xmlns="http://www.w3.org/2000/svg">
<g id="fluent:sign-out-24-filled">
<path id="Vector" d="M7.99996 2.90234V7.33567H3.03863L4.18663 6.18634C4.27148 6.10164 4.32307 5.98927 4.33201 5.86971C4.34094 5.75016 4.30662 5.63137 4.23529 5.535L4.18663 5.479C4.10188 5.39442 3.9896 5.34306 3.8702 5.33425C3.7508 5.32545 3.6322 5.35978 3.53596 5.431L3.47996 5.479L1.48196 7.47767C1.39728 7.56233 1.3458 7.67456 1.33687 7.79397C1.32793 7.91338 1.36215 8.03202 1.43329 8.12834L1.48196 8.18434L3.47929 10.1863C3.56852 10.2752 3.68799 10.3271 3.81383 10.3317C3.93966 10.3363 4.06261 10.2933 4.15809 10.2112C4.25358 10.1291 4.31457 10.014 4.32888 9.88889C4.34319 9.76378 4.30977 9.63788 4.23529 9.53634L4.18729 9.48034L3.04529 8.33567H7.99929L7.99996 12.833C8.00002 12.906 8.01605 12.978 8.04693 13.0441C8.0778 13.1102 8.12277 13.1688 8.17867 13.2157C8.23457 13.2626 8.30006 13.2966 8.37054 13.3155C8.44101 13.3344 8.51477 13.3377 8.58663 13.325L14.2533 12.3243C14.3691 12.3039 14.4741 12.2434 14.5497 12.1533C14.6253 12.0632 14.6667 11.9493 14.6666 11.8317V3.833C14.6666 3.7145 14.6245 3.59984 14.5478 3.50949C14.4712 3.41913 14.3649 3.35895 14.248 3.33967L8.58129 2.409C8.50972 2.3972 8.43643 2.40112 8.36652 2.42048C8.29661 2.43984 8.23175 2.47418 8.17644 2.52112C8.12113 2.56805 8.0767 2.62646 8.04622 2.69229C8.01575 2.75812 7.99996 2.8298 7.99996 2.90234ZM10.332 7.66567C10.5092 7.66567 10.6792 7.73608 10.8045 7.86142C10.9299 7.98676 11.0003 8.15675 11.0003 8.334C11.0003 8.51126 10.9299 8.68125 10.8045 8.80659C10.6792 8.93192 10.5092 9.00234 10.332 9.00234C10.1547 9.00234 9.98471 8.93192 9.85938 8.80659C9.73404 8.68125 9.66363 8.51126 9.66363 8.334C9.66363 8.15675 9.73404 7.98676 9.85938 7.86142C9.98471 7.73608 10.1547 7.66567 10.332 7.66567ZM7.33329 12.3343H6.82329L6.75529 12.3297C6.63548 12.3132 6.52568 12.2539 6.44625 12.1627C6.36682 12.0715 6.32314 11.9546 6.32329 11.8337L6.32796 9.00034H7.33329V12.3337V12.3343ZM7.33196 6.66634L7.33329 5.81634V3.333H6.83663C6.7159 3.33299 6.59925 3.37665 6.5082 3.45593C6.41716 3.53521 6.35787 3.64476 6.34129 3.76434L6.33663 3.83167L6.33196 6.66634H7.33196Z" fill="#EF4444"/>
</g>
</svg>
