<svg width="16" height="16" viewBox="0 0 16 16" fill="none" xmlns="http://www.w3.org/2000/svg">
<g id="fluent:mail-24-filled">
<path id="Vector" d="M14.6673 5.7385V11.1665C14.6674 11.7199 14.4556 12.2524 14.0755 12.6547C13.6955 13.0569 13.1759 13.2985 12.6233 13.3298L12.5007 13.3332H3.50065C2.94723 13.3332 2.41477 13.1215 2.0125 12.7414C1.61023 12.3613 1.36865 11.8417 1.33732 11.2892L1.33398 11.1665V5.7385L7.76865 9.10917C7.84024 9.14667 7.91984 9.16625 8.00065 9.16625C8.08146 9.16625 8.16107 9.14667 8.23265 9.10917L14.6673 5.7385ZM3.50065 2.6665H12.5007C13.0377 2.66644 13.5556 2.86583 13.954 3.22602C14.3524 3.5862 14.6028 4.08149 14.6566 4.61584L8.00065 8.1025L1.34465 4.61584C1.39633 4.10271 1.62935 3.62485 2.00182 3.26815C2.37428 2.91144 2.86177 2.6993 3.37665 2.66984L3.50065 2.6665Z" fill="#1CBF73"/>
</g>
</svg>
