<svg width="16" height="16" viewBox="0 0 16 16" fill="none" xmlns="http://www.w3.org/2000/svg">
<g id="fluent:chat-12-filled">
<path id="Vector" d="M1.33399 8.0001C1.33433 6.5385 1.81498 5.11752 2.70198 3.95583C3.58898 2.79415 4.83317 1.95616 6.24306 1.57082C7.65295 1.18549 9.1504 1.27416 10.505 1.82321C11.8595 2.37225 12.9961 3.35123 13.7398 4.60948C14.4835 5.86773 14.7931 7.33552 14.6209 8.78694C14.4487 10.2384 13.8044 11.593 12.7869 12.6423C11.7695 13.6917 10.4354 14.3776 8.99 14.5945C7.54458 14.8114 6.06794 14.5473 4.78732 13.8428L2.19533 14.6321C2.07971 14.6673 1.9567 14.6704 1.83945 14.6412C1.7222 14.6119 1.61511 14.5512 1.52966 14.4658C1.4442 14.3803 1.38358 14.2732 1.35428 14.156C1.32498 14.0387 1.32811 13.9157 1.36333 13.8001L2.15266 11.2041C1.61393 10.2222 1.33231 9.12006 1.33399 8.0001ZM5.33399 7.33344C5.33399 7.51025 5.40423 7.67982 5.52925 7.80484C5.65428 7.92987 5.82385 8.0001 6.00066 8.0001H10.0007C10.1775 8.0001 10.347 7.92987 10.4721 7.80484C10.5971 7.67982 10.6673 7.51025 10.6673 7.33344C10.6673 7.15663 10.5971 6.98706 10.4721 6.86203C10.347 6.73701 10.1775 6.66677 10.0007 6.66677H6.00066C5.82385 6.66677 5.65428 6.73701 5.52925 6.86203C5.40423 6.98706 5.33399 7.15663 5.33399 7.33344ZM6.00066 9.33344C5.82385 9.33344 5.65428 9.40368 5.52925 9.5287C5.40423 9.65372 5.33399 9.82329 5.33399 10.0001C5.33399 10.1769 5.40423 10.3465 5.52925 10.4715C5.65428 10.5965 5.82385 10.6668 6.00066 10.6668H8.66733C8.84414 10.6668 9.01371 10.5965 9.13873 10.4715C9.26375 10.3465 9.33399 10.1769 9.33399 10.0001C9.33399 9.82329 9.26375 9.65372 9.13873 9.5287C9.01371 9.40368 8.84414 9.33344 8.66733 9.33344H6.00066Z" fill="#1CBF73"/>
</g>
</svg>
