<svg width="25" height="24" viewBox="0 0 25 24" fill="none" xmlns="http://www.w3.org/2000/svg">
<g id="fluent:app-folder-24-filled">
<path id="Vector" d="M12.001 14.25C12.001 13.7859 11.8166 13.3408 11.4884 13.0126C11.1602 12.6844 10.7151 12.5 10.251 12.5H8.251C7.78687 12.5 7.34175 12.6844 7.01356 13.0126C6.68537 13.3408 6.501 13.7859 6.501 14.25V16.25C6.501 17.216 7.285 18 8.251 18H10.251C10.7151 18 11.1602 17.8156 11.4884 17.4874C11.8166 17.1592 12.001 16.7141 12.001 16.25V14.25ZM18.499 14.25C18.499 13.7859 18.3146 13.3408 17.9864 13.0126C17.6582 12.6844 17.2131 12.5 16.749 12.5H14.749C14.2849 12.5 13.8398 12.6844 13.5116 13.0126C13.1834 13.3408 12.999 13.7859 12.999 14.25V16.25C12.999 17.216 13.782 18 14.749 18H16.749C17.2131 18 17.6582 17.8156 17.9864 17.4874C18.3146 17.1592 18.499 16.7141 18.499 16.25V14.25ZM12 7.75C12 7.28587 11.8156 6.84075 11.4874 6.51256C11.1592 6.18437 10.7141 6 10.25 6H8.25C7.78587 6 7.34075 6.18437 7.01256 6.51256C6.68437 6.84075 6.5 7.28587 6.5 7.75V9.75C6.5 10.716 7.284 11.5 8.25 11.5H10.25C10.7141 11.5 11.1592 11.3156 11.4874 10.9874C11.8156 10.6592 12 10.2141 12 9.75V7.75ZM18.497 7.75C18.497 7.28587 18.3126 6.84075 17.9844 6.51256C17.6562 6.18437 17.2111 6 16.747 6H14.747C14.2829 6 13.8378 6.18437 13.5096 6.51256C13.1814 6.84075 12.997 7.28587 12.997 7.75V9.75C12.997 10.716 13.781 11.5 14.747 11.5H16.747C17.2111 11.5 17.6562 11.3156 17.9844 10.9874C18.3126 10.6592 18.497 10.2141 18.497 9.75V7.75ZM6.75 3C5.88805 3 5.0614 3.34241 4.4519 3.9519C3.84241 4.5614 3.5 5.38805 3.5 6.25V17.75C3.5 18.612 3.84241 19.4386 4.4519 20.0481C5.0614 20.6576 5.88805 21 6.75 21H18.25C19.112 21 19.9386 20.6576 20.5481 20.0481C21.1576 19.4386 21.5 18.612 21.5 17.75V6.25C21.5 5.38805 21.1576 4.5614 20.5481 3.9519C19.9386 3.34241 19.112 3 18.25 3H6.75ZM5 6.25C5 5.284 5.784 4.5 6.75 4.5H18.25C19.216 4.5 20 5.284 20 6.25V17.75C20 18.2141 19.8156 18.6592 19.4874 18.9874C19.1592 19.3156 18.7141 19.5 18.25 19.5H6.75C6.28587 19.5 5.84075 19.3156 5.51256 18.9874C5.18437 18.6592 5 18.2141 5 17.75V6.25Z" fill="#1CBF73"/>
</g>
</svg>
