<svg width="24" height="24" viewBox="0 0 24 24" fill="none" xmlns="http://www.w3.org/2000/svg">
<g id="fluent:alert-24-regular">
<path id="Vector" d="M12 1.9961C13.9467 1.99354 15.8178 2.74894 17.217 4.10226C18.6163 5.45557 19.4337 7.30048 19.496 9.2461L19.5 9.4961V13.5931L20.88 16.7491C20.9633 16.9393 20.9979 17.1472 20.9806 17.354C20.9633 17.5609 20.8948 17.7602 20.7811 17.9339C20.6674 18.1076 20.5123 18.2503 20.3296 18.349C20.147 18.4476 19.9426 18.4992 19.735 18.4991L15 18.5021C15.0011 19.2831 14.6975 20.0337 14.1538 20.5944C13.6101 21.1551 12.8692 21.4817 12.0886 21.5047C11.3079 21.5278 10.5491 21.2455 9.97325 20.7178C9.39745 20.1902 9.0501 19.4588 9.00504 18.6791L9.00004 18.4991H4.27504C4.06785 18.4989 3.86397 18.4472 3.6817 18.3486C3.49943 18.2501 3.34448 18.1079 3.23076 17.9347C3.11705 17.7615 3.04813 17.5628 3.03021 17.3564C3.01228 17.1499 3.0459 16.9423 3.12804 16.7521L4.50004 13.5941V9.4961C4.50004 5.3411 7.85204 1.9961 12 1.9961ZM13.5 18.5001L10.5 18.5021C10.5 18.8874 10.6482 19.258 10.9139 19.5369C11.1797 19.8159 11.5426 19.982 11.9275 20.0006C12.3123 20.0192 12.6896 19.8891 12.9811 19.6371C13.2725 19.3851 13.4559 19.0306 13.493 18.6471L13.5 18.5001ZM12 3.4961C8.68004 3.4961 6.00004 6.1701 6.00004 9.4961V13.9061L4.65604 17.0001H19.353L18 13.9071V9.5091L17.997 9.2841C17.9451 7.72935 17.2901 6.25583 16.1708 5.17552C15.0515 4.09521 13.5557 3.49289 12 3.4961Z" fill="#111111"/>
</g>
</svg>
