<svg width="16" height="16" viewBox="0 0 16 16" fill="none" xmlns="http://www.w3.org/2000/svg">
<g id="fluent:channel-24-filled">
<path id="Vector" d="M11.8334 2C12.408 2 12.9591 2.22827 13.3654 2.6346C13.7717 3.04093 14 3.59203 14 4.16667V11.8333C14 12.408 13.7717 12.9591 13.3654 13.3654C12.9591 13.7717 12.408 14 11.8334 14H4.16669C3.59205 14 3.04095 13.7717 2.63462 13.3654C2.22829 12.9591 2.00002 12.408 2.00002 11.8333V6.248C2.22003 6.32558 2.4551 6.35078 2.68655 6.32159C2.918 6.2924 3.13946 6.20963 3.33331 6.07985C3.52717 5.95008 3.68809 5.77687 3.80327 5.57401C3.91846 5.37114 3.98474 5.1442 3.99684 4.91123C4.00895 4.67826 3.96655 4.44568 3.87302 4.23196C3.77948 4.01825 3.63739 3.8293 3.45803 3.68012C3.27867 3.53095 3.06699 3.42567 2.83981 3.37264C2.61263 3.31962 2.37622 3.32031 2.14935 3.37467C2.30868 2.96945 2.58634 2.6216 2.94615 2.37641C3.30597 2.13123 3.73127 2.00006 4.16669 2H11.8334ZM8.83069 8.66867H5.83202L5.76402 8.67333C5.64435 8.6898 5.53468 8.74904 5.45529 8.84009C5.37591 8.93115 5.33217 9.04786 5.33217 9.16867C5.33217 9.28947 5.37591 9.40619 5.45529 9.49724C5.53468 9.5883 5.64435 9.64753 5.76402 9.664L5.83202 9.66867H8.83069L8.89869 9.664C9.02419 9.64673 9.13845 9.58247 9.2184 9.4842C9.29834 9.38593 9.33801 9.26097 9.32937 9.13459C9.32074 9.0082 9.26445 8.8898 9.17188 8.80332C9.07931 8.71683 8.95737 8.66871 8.83069 8.66867ZM10.168 6.33067H5.83202L5.76402 6.33533C5.64435 6.3518 5.53468 6.41104 5.45529 6.50209C5.37591 6.59315 5.33217 6.70987 5.33217 6.83067C5.33217 6.95147 5.37591 7.06819 5.45529 7.15924C5.53468 7.2503 5.64435 7.30953 5.76402 7.326L5.83202 7.33067H10.168L10.236 7.326C10.3615 7.30873 10.4758 7.24447 10.5557 7.1462C10.6357 7.04793 10.6753 6.92298 10.6667 6.79659C10.6581 6.6702 10.6018 6.5518 10.5092 6.46531C10.4166 6.37883 10.2947 6.33071 10.168 6.33067ZM2.50002 4C2.72103 4 2.933 4.0878 3.08928 4.24408C3.24556 4.40036 3.33335 4.61232 3.33335 4.83333C3.33335 5.05435 3.24556 5.26631 3.08928 5.42259C2.933 5.57887 2.72103 5.66667 2.50002 5.66667C2.27901 5.66667 2.06705 5.57887 1.91076 5.42259C1.75448 5.26631 1.66669 5.05435 1.66669 4.83333C1.66669 4.61232 1.75448 4.40036 1.91076 4.24408C2.06705 4.0878 2.27901 4 2.50002 4Z" fill="#8842F0"/>
</g>
</svg>
