<svg width="25" height="24" viewBox="0 0 25 24" fill="none" xmlns="http://www.w3.org/2000/svg">
<g id="Painting Roller">
<path id="Vector" d="M16.9666 10.3997H7.36659C7.27111 10.3997 7.17955 10.3618 7.11203 10.2942C7.04452 10.2267 7.00659 10.1352 7.00659 10.0397C7.00659 9.94421 7.04452 9.85264 7.11203 9.78513C7.17955 9.71762 7.27111 9.67969 7.36659 9.67969H16.9666C17.0621 9.67969 17.1536 9.71762 17.2212 9.78513C17.2887 9.85264 17.3266 9.94421 17.3266 10.0397C17.3266 10.1352 17.2887 10.2267 17.2212 10.2942C17.1536 10.3618 17.0621 10.3997 16.9666 10.3997Z" fill="#CCCCCC"/>
<path id="Vector_2" d="M10.6378 5.40004C10.5742 5.40004 10.5131 5.37475 10.4681 5.32974C10.4231 5.28474 10.3978 5.22369 10.3978 5.16004V2.52004C10.3978 2.45639 10.4231 2.39534 10.4681 2.35033C10.5131 2.30532 10.5742 2.28004 10.6378 2.28004C10.7015 2.28004 10.7625 2.30532 10.8075 2.35033C10.8525 2.39534 10.8778 2.45639 10.8778 2.52004V5.16004C10.8778 5.22369 10.8525 5.28474 10.8075 5.32974C10.7625 5.37475 10.7015 5.40004 10.6378 5.40004ZM16.7532 5.40004C16.6896 5.40004 16.6285 5.37475 16.5835 5.32974C16.5385 5.28474 16.5132 5.22369 16.5132 5.16004V4.20004C16.5132 4.13639 16.5385 4.07534 16.5835 4.03033C16.6285 3.98532 16.6896 3.96004 16.7532 3.96004C16.8169 3.96004 16.8779 3.98532 16.923 4.03033C16.968 4.07534 16.9932 4.13639 16.9932 4.20004V5.16004C16.9932 5.22369 16.968 5.28474 16.923 5.32974C16.8779 5.37475 16.8169 5.40004 16.7532 5.40004ZM16.7532 3.48004C16.6896 3.48004 16.6285 3.45475 16.5835 3.40974C16.5385 3.36474 16.5132 3.30369 16.5132 3.24004V2.28004C16.5132 2.21639 16.5385 2.15534 16.5835 2.11033C16.6285 2.06532 16.6896 2.04004 16.7532 2.04004C16.8169 2.04004 16.8779 2.06532 16.923 2.11033C16.968 2.15534 16.9932 2.21639 16.9932 2.28004V3.24004C16.9932 3.30369 16.968 3.36474 16.923 3.40974C16.8779 3.45475 16.8169 3.48004 16.7532 3.48004ZM7.57997 5.40004C7.51631 5.40004 7.45527 5.37475 7.41026 5.32974C7.36525 5.28474 7.33997 5.22369 7.33997 5.16004V3.96004C7.33997 3.89639 7.36525 3.83534 7.41026 3.79033C7.45527 3.74532 7.51631 3.72004 7.57997 3.72004C7.64362 3.72004 7.70466 3.74532 7.74967 3.79033C7.79468 3.83534 7.81997 3.89639 7.81997 3.96004V5.16004C7.81997 5.22369 7.79468 5.28474 7.74967 5.32974C7.70466 5.37475 7.64362 5.40004 7.57997 5.40004ZM7.57997 3.24004C7.51631 3.24004 7.45527 3.21475 7.41026 3.16974C7.36525 3.12474 7.33997 3.06369 7.33997 3.00004V2.52004C7.33997 2.45639 7.36525 2.39534 7.41026 2.35033C7.45527 2.30532 7.51631 2.28004 7.57997 2.28004C7.64362 2.28004 7.70466 2.30532 7.74967 2.35033C7.79468 2.39534 7.81997 2.45639 7.81997 2.52004V3.00004C7.81997 3.06369 7.79468 3.12474 7.74967 3.16974C7.70466 3.21475 7.64362 3.24004 7.57997 3.24004ZM13.6954 5.40004C13.6318 5.40004 13.5707 5.37475 13.5257 5.32974C13.4807 5.28474 13.4554 5.22369 13.4554 5.16004V2.52004C13.4554 2.45639 13.4807 2.39534 13.5257 2.35033C13.5707 2.30532 13.6318 2.28004 13.6954 2.28004C13.7591 2.28004 13.8201 2.30532 13.8651 2.35033C13.9101 2.39534 13.9354 2.45639 13.9354 2.52004V5.16004C13.9354 5.22369 13.9101 5.28474 13.8651 5.32974C13.8201 5.37475 13.7591 5.40004 13.6954 5.40004Z" fill="#0096FF"/>
<path id="Vector_3" d="M9.10877 5.40005C9.04512 5.40005 8.98408 5.37476 8.93907 5.32975C8.89406 5.28475 8.86877 5.2237 8.86877 5.16005V4.44005C8.86877 4.3764 8.89406 4.31535 8.93907 4.27034C8.98408 4.22533 9.04512 4.20005 9.10877 4.20005C9.17243 4.20005 9.23347 4.22533 9.27848 4.27034C9.32349 4.31535 9.34877 4.3764 9.34877 4.44005V5.16005C9.34877 5.2237 9.32349 5.28475 9.27848 5.32975C9.23347 5.37476 9.17243 5.40005 9.10877 5.40005ZM9.10877 3.72005C9.04512 3.72005 8.98408 3.69476 8.93907 3.64975C8.89406 3.60475 8.86877 3.5437 8.86877 3.48005V2.04005C8.86877 1.9764 8.89406 1.91535 8.93907 1.87034C8.98408 1.82533 9.04512 1.80005 9.10877 1.80005C9.17243 1.80005 9.23347 1.82533 9.27848 1.87034C9.32349 1.91535 9.34877 1.9764 9.34877 2.04005V3.48005C9.34877 3.5437 9.32349 3.60475 9.27848 3.64975C9.23347 3.69476 9.17243 3.72005 9.10877 3.72005ZM15.2245 5.40005C15.1608 5.40005 15.0998 5.37476 15.0547 5.32975C15.0097 5.28475 14.9845 5.2237 14.9845 5.16005V3.48005C14.9845 3.4164 15.0097 3.35535 15.0547 3.31034C15.0998 3.26533 15.1608 3.24005 15.2245 3.24005C15.2881 3.24005 15.3492 3.26533 15.3942 3.31034C15.4392 3.35535 15.4645 3.4164 15.4645 3.48005V5.16005C15.4645 5.2237 15.4392 5.28475 15.3942 5.32975C15.3492 5.37476 15.2881 5.40005 15.2245 5.40005ZM15.2245 2.76005C15.177 2.76005 15.1306 2.74597 15.0911 2.7196C15.0517 2.69323 15.0209 2.65575 15.0027 2.61189C14.9846 2.56804 14.9798 2.51978 14.9891 2.47323C14.9983 2.42667 15.0212 2.38391 15.0547 2.35034C15.0883 2.31678 15.1311 2.29392 15.1776 2.28466C15.2242 2.2754 15.2724 2.28015 15.3163 2.29832C15.3602 2.31648 15.3976 2.34724 15.424 2.38671C15.4504 2.42618 15.4645 2.47258 15.4645 2.52005C15.4645 2.5837 15.4392 2.64475 15.3942 2.68975C15.3492 2.73476 15.2881 2.76005 15.2245 2.76005ZM12.1666 5.40005C12.103 5.40005 12.0419 5.37476 11.9969 5.32975C11.9519 5.28475 11.9266 5.2237 11.9266 5.16005V3.24005C11.9266 3.1764 11.9519 3.11535 11.9969 3.07034C12.0419 3.02533 12.103 3.00005 12.1666 3.00005C12.2303 3.00005 12.2913 3.02533 12.3363 3.07034C12.3813 3.11535 12.4066 3.1764 12.4066 3.24005V5.16005C12.4066 5.2237 12.3813 5.28475 12.3363 5.32975C12.2913 5.37476 12.2303 5.40005 12.1666 5.40005ZM12.1666 2.52005C12.103 2.52005 12.0419 2.49476 11.9969 2.44975C11.9519 2.40475 11.9266 2.3437 11.9266 2.28005V2.04005C11.9266 1.9764 11.9519 1.91535 11.9969 1.87034C12.0419 1.82533 12.103 1.80005 12.1666 1.80005C12.2303 1.80005 12.2913 1.82533 12.3363 1.87034C12.3813 1.91535 12.4066 1.9764 12.4066 2.04005V2.28005C12.4066 2.3437 12.3813 2.40475 12.3363 2.44975C12.2913 2.49476 12.2303 2.52005 12.1666 2.52005ZM10.4866 15.84C10.0234 15.84 9.64661 16.2168 9.64661 16.68V21.48C9.64661 21.9432 10.0234 22.32 10.4866 22.32C10.9498 22.32 11.3266 21.9432 11.3266 21.48V16.68C11.3266 16.2168 10.9498 15.84 10.4866 15.84Z" fill="#9D00FF"/>
<path id="Vector_4" d="M10.8467 15.4443V13.1981L6.04666 11.2378V7.51807H5.32666V11.7217L10.1267 13.682V15.4443C10.2361 15.392 10.3573 15.3601 10.4867 15.3601C10.616 15.3601 10.7372 15.392 10.8467 15.4443Z" fill="#808080"/>
<path id="Vector_5" d="M9.64661 21.4799C9.64661 21.9431 10.0234 22.3199 10.4866 22.3199C10.9498 22.3199 11.3266 21.9431 11.3266 21.4799V16.6799L9.64661 21.4799Z" fill="#8D00E6"/>
<path id="Vector_6" d="M6.52661 9.0796C6.52661 9.5428 6.90341 9.9196 7.36661 9.9196H16.9666C17.4298 9.9196 17.8066 9.5428 17.8066 9.0796V6.6796C17.8066 6.2164 17.4298 5.8396 16.9666 5.8396H7.36661C7.23413 5.8396 7.11053 5.8732 6.99893 5.92816C6.99005 5.93296 6.98237 5.93848 6.97301 5.94232C6.70877 6.08416 6.52685 6.35968 6.52685 6.67984L6.52661 9.0796Z" fill="#0096FF"/>
<path id="Vector_7" d="M6.52661 9.0796C6.52661 9.5428 6.90341 9.9196 7.36661 9.9196H16.9666C17.4298 9.9196 17.8066 9.5428 17.8066 9.0796V6.6796C17.8066 6.2164 17.4298 5.8396 16.9666 5.8396L6.52661 9.0796Z" fill="#0087E6"/>
<path id="Vector_8" d="M17.0867 9.0196C17.0867 9.06734 17.0677 9.11312 17.0339 9.14688C17.0002 9.18064 16.9544 9.1996 16.9067 9.1996H14.5667C14.5189 9.1996 14.4731 9.18064 14.4394 9.14688C14.4056 9.11312 14.3867 9.06734 14.3867 9.0196C14.3867 8.97186 14.4056 8.92608 14.4394 8.89232C14.4731 8.85856 14.5189 8.8396 14.5667 8.8396H16.9067C16.9544 8.8396 17.0002 8.85856 17.0339 8.89232C17.0677 8.92608 17.0867 8.97186 17.0867 9.0196ZM13.9067 9.0196C13.9067 9.06734 13.8877 9.11312 13.8539 9.14688C13.8202 9.18064 13.7744 9.1996 13.7267 9.1996H13.1867C13.1389 9.1996 13.0931 9.18064 13.0594 9.14688C13.0256 9.11312 13.0067 9.06734 13.0067 9.0196C13.0067 8.97186 13.0256 8.92608 13.0594 8.89232C13.0931 8.85856 13.1389 8.8396 13.1867 8.8396H13.7267C13.7744 8.8396 13.8202 8.85856 13.8539 8.89232C13.8877 8.92608 13.9067 8.97186 13.9067 9.0196ZM12.4667 9.0196C12.4667 9.06734 12.4477 9.11312 12.4139 9.14688C12.3802 9.18064 12.3344 9.1996 12.2867 9.1996H11.2667C11.2189 9.1996 11.1731 9.18064 11.1394 9.14688C11.1056 9.11312 11.0867 9.06734 11.0867 9.0196C11.0867 8.97186 11.1056 8.92608 11.1394 8.89232C11.1731 8.85856 11.2189 8.8396 11.2667 8.8396H12.2867C12.3344 8.8396 12.3802 8.85856 12.4139 8.89232C12.4477 8.92608 12.4667 8.97186 12.4667 9.0196Z" fill="white"/>
</g>
</svg>
