<svg width="16" height="16" viewBox="0 0 16 16" fill="none" xmlns="http://www.w3.org/2000/svg">
<g id="fluent:shopping-bag-percent-24-filled">
<path id="Vector" d="M4.66669 3.33345V4.66679H3.66669C3.40147 4.66679 3.14712 4.77214 2.95958 4.95968C2.77204 5.14721 2.66669 5.40157 2.66669 5.66678V12.0001C2.66669 12.7074 2.94764 13.3856 3.44774 13.8857C3.94783 14.3858 4.62611 14.6668 5.33335 14.6668H8.11202C8.00902 14.4492 7.97584 14.2051 8.01702 13.968C8.05819 13.7308 8.17172 13.5122 8.34202 13.3421L8.81402 12.8688C8.71706 12.5894 8.66727 12.2958 8.66669 12.0001V11.7755C8.26748 11.5863 7.93016 11.2878 7.69394 10.9145C7.45773 10.5412 7.33234 10.1085 7.33234 9.66679C7.33234 9.22504 7.45773 8.79238 7.69394 8.41909C7.93016 8.04581 8.26748 7.74724 8.66669 7.55812V3.33345C8.66669 3.11079 8.63002 2.89612 8.56269 2.69612C8.69386 2.53748 8.87079 2.42319 9.06933 2.36884C9.26787 2.31449 9.47834 2.32274 9.67202 2.39245C9.8657 2.46216 10.0332 2.58995 10.1515 2.75836C10.2699 2.92677 10.3334 3.12761 10.3334 3.33345V4.66679H9.66669V7.33345C10.2855 7.33345 10.879 7.57928 11.3166 8.01687C11.7542 8.45445 12 9.04795 12 9.66679V9.68345L13.3334 8.35012V5.66678C13.3334 5.40157 13.228 5.14721 13.0405 4.95968C12.8529 4.77214 12.5986 4.66679 12.3334 4.66679H11.3334V3.33345C11.3333 2.94737 11.2216 2.56954 11.0116 2.24558C10.8016 1.92161 10.5023 1.66536 10.1498 1.50775C9.79739 1.35013 9.40686 1.2979 9.02538 1.35735C8.6439 1.4168 8.28779 1.5854 8.00002 1.84279C7.71225 1.5854 7.35614 1.4168 6.97466 1.35735C6.59319 1.2979 6.20265 1.35013 5.85021 1.50775C5.49777 1.66536 5.19848 1.92161 4.98846 2.24558C4.77845 2.56954 4.6667 2.94737 4.66669 3.33345ZM5.66669 4.66679V3.33345C5.66669 3.06824 5.77204 2.81388 5.95958 2.62635C6.14712 2.43881 6.40147 2.33345 6.66669 2.33345C6.9319 2.33345 7.18626 2.43881 7.37379 2.62635C7.56133 2.81388 7.66669 3.06824 7.66669 3.33345V4.66679H5.66669ZM9.66669 11.3335C10.1087 11.3335 10.5326 11.1579 10.8452 10.8453C11.1578 10.5327 11.3334 10.1088 11.3334 9.66679C11.3334 9.22476 11.1578 8.80083 10.8452 8.48827C10.5326 8.17571 10.1087 8.00012 9.66669 8.00012C9.22466 8.00012 8.80074 8.17571 8.48818 8.48827C8.17562 8.80083 8.00002 9.22476 8.00002 9.66679C8.00002 10.1088 8.17562 10.5327 8.48818 10.8453C8.80074 11.1579 9.22466 11.3335 9.66669 11.3335ZM9.66669 9.00012C9.8435 9.00012 10.0131 9.07036 10.1381 9.19538C10.2631 9.32041 10.3334 9.48997 10.3334 9.66679C10.3334 9.8436 10.2631 10.0132 10.1381 10.1382C10.0131 10.2632 9.8435 10.3335 9.66669 10.3335C9.48988 10.3335 9.32031 10.2632 9.19528 10.1382C9.07026 10.0132 9.00002 9.8436 9.00002 9.66679C9.00002 9.48997 9.07026 9.32041 9.19528 9.19538C9.32031 9.07036 9.48988 9.00012 9.66669 9.00012ZM13.6667 15.3335C14.1087 15.3335 14.5326 15.1579 14.8452 14.8453C15.1578 14.5327 15.3334 14.1088 15.3334 13.6668C15.3334 13.2248 15.1578 12.8008 14.8452 12.4883C14.5326 12.1757 14.1087 12.0001 13.6667 12.0001C13.2247 12.0001 12.8007 12.1757 12.4882 12.4883C12.1756 12.8008 12 13.2248 12 13.6668C12 14.1088 12.1756 14.5327 12.4882 14.8453C12.8007 15.1579 13.2247 15.3335 13.6667 15.3335ZM13.6667 13.0001C13.8435 13.0001 14.0131 13.0704 14.1381 13.1954C14.2631 13.3204 14.3334 13.49 14.3334 13.6668C14.3334 13.8436 14.2631 14.0132 14.1381 14.1382C14.0131 14.2632 13.8435 14.3335 13.6667 14.3335C13.4899 14.3335 13.3203 14.2632 13.1953 14.1382C13.0703 14.0132 13 13.8436 13 13.6668C13 13.49 13.0703 13.3204 13.1953 13.1954C13.3203 13.0704 13.4899 13.0001 13.6667 13.0001ZM14.52 9.52012C14.5691 9.47434 14.6085 9.41914 14.6359 9.35781C14.6632 9.29648 14.6779 9.23027 14.6791 9.16313C14.6803 9.096 14.6679 9.02931 14.6428 8.96705C14.6176 8.90479 14.5802 8.84824 14.5327 8.80076C14.4852 8.75328 14.4287 8.71585 14.3664 8.6907C14.3042 8.66556 14.2375 8.65321 14.1703 8.65439C14.1032 8.65558 14.037 8.67027 13.9757 8.6976C13.9143 8.72493 13.8591 8.76433 13.8134 8.81345L8.81335 13.8135C8.76423 13.8592 8.72483 13.9144 8.6975 13.9758C8.67017 14.0371 8.65548 14.1033 8.65429 14.1704C8.65311 14.2376 8.66546 14.3043 8.69061 14.3665C8.71575 14.4288 8.75318 14.4853 8.80066 14.5328C8.84814 14.5803 8.9047 14.6177 8.96696 14.6429C9.02921 14.668 9.0959 14.6804 9.16304 14.6792C9.23017 14.678 9.29638 14.6633 9.35771 14.636C9.41905 14.6086 9.47425 14.5692 9.52002 14.5201L14.52 9.52012Z" fill="#1CBF73"/>
</g>
</svg>
