<svg width="30" height="30" viewBox="0 0 30 30" fill="none" xmlns="http://www.w3.org/2000/svg">
<g id="fluent:person-circle-24-filled">
<path id="Vector" d="M15 27.5C8.09625 27.5 2.5 21.9037 2.5 15C2.5 8.09625 8.09625 2.5 15 2.5C21.9037 2.5 27.5 8.09625 27.5 15C27.5 21.9037 21.9037 27.5 15 27.5ZM21.25 16.875C21.25 16.3777 21.0525 15.9008 20.7008 15.5492C20.3492 15.1975 19.8723 15 19.375 15H10.625C10.1277 15 9.65081 15.1975 9.29917 15.5492C8.94754 15.9008 8.75 16.3777 8.75 16.875V17.5C8.75 19.9638 11.075 22.5 15 22.5C18.925 22.5 21.25 19.9638 21.25 17.5V16.875ZM18.4375 10.3125C18.4375 9.40082 18.0753 8.52648 17.4307 7.88182C16.786 7.23716 15.9117 6.875 15 6.875C14.0883 6.875 13.214 7.23716 12.5693 7.88182C11.9247 8.52648 11.5625 9.40082 11.5625 10.3125C11.5625 11.2242 11.9247 12.0985 12.5693 12.7432C13.214 13.3878 14.0883 13.75 15 13.75C15.9117 13.75 16.786 13.3878 17.4307 12.7432C18.0753 12.0985 18.4375 11.2242 18.4375 10.3125Z" fill="#1CBF73"/>
</g>
</svg>
