<svg width="16" height="16" viewBox="0 0 16 16" fill="none" xmlns="http://www.w3.org/2000/svg">
<g id="fluent:person-20-filled">
<path id="Vector" d="M8.00002 1.59961C7.15133 1.59961 6.3374 1.93675 5.73728 2.53687C5.13717 3.13698 4.80002 3.95092 4.80002 4.79961C4.80002 5.6483 5.13717 6.46223 5.73728 7.06235C6.3374 7.66247 7.15133 7.99961 8.00002 7.99961C8.84872 7.99961 9.66265 7.66247 10.2628 7.06235C10.8629 6.46223 11.2 5.6483 11.2 4.79961C11.2 3.95092 10.8629 3.13698 10.2628 2.53687C9.66265 1.93675 8.84872 1.59961 8.00002 1.59961ZM4.00722 8.79961C3.79653 8.79877 3.58775 8.83952 3.39284 8.91955C3.19794 8.99957 3.02075 9.11727 2.87143 9.26592C2.72212 9.41457 2.60361 9.59123 2.52272 9.78577C2.44182 9.98032 2.40013 10.1889 2.40002 10.3996C2.40002 11.7524 3.06642 12.7724 4.10802 13.4372C5.13362 14.0908 6.51602 14.3996 8.00002 14.3996C9.48402 14.3996 10.8664 14.0908 11.892 13.4372C12.9336 12.7732 13.6 11.7516 13.6 10.3996C13.6 9.97526 13.4315 9.5683 13.1314 9.26824C12.8313 8.96818 12.4244 8.79961 12 8.79961H4.00722Z" fill="#1CBF73"/>
</g>
</svg>
