<svg width="16" height="16" viewBox="0 0 16 16" fill="none" xmlns="http://www.w3.org/2000/svg">
<g id="fluent:gift-24-filled">
<path id="Vector" d="M7.5 8.66677V14.6668H4.83333C4.5488 14.6668 4.26706 14.6107 4.00419 14.5018C3.74131 14.393 3.50246 14.2334 3.30127 14.0322C3.10008 13.831 2.94048 13.5921 2.83159 13.3293C2.72271 13.0664 2.66667 12.7846 2.66667 12.5001V8.66677H7.5ZM13.3333 8.66677V12.5001C13.3333 12.7846 13.2773 13.0664 13.1684 13.3293C13.0595 13.5921 12.8999 13.831 12.6987 14.0322C12.4975 14.2334 12.2587 14.393 11.9958 14.5018C11.7329 14.6107 11.4512 14.6668 11.1667 14.6668H8.5V8.66677H13.3333ZM9.66667 1.33344C10.0554 1.33336 10.4371 1.43789 10.7715 1.63606C11.106 1.83423 11.381 2.11875 11.5677 2.45977C11.7543 2.8008 11.8458 3.18577 11.8325 3.57431C11.8192 3.96286 11.7016 4.34066 11.492 4.66811L13.1667 4.66677C13.6267 4.66677 14 4.97744 14 5.36144V7.30544C14 7.68944 13.6267 8.00011 13.1667 8.00011L8.5 7.99944V4.66677H7.5V7.99944L2.83333 8.00011C2.37333 8.00011 2 7.68944 2 7.30544V5.36144C2 4.97744 2.37333 4.66677 2.83333 4.66677L4.508 4.66811C4.21055 4.20361 4.10145 3.64316 4.20294 3.10101C4.30443 2.55886 4.60887 2.07582 5.0542 1.75037C5.49952 1.42492 6.0522 1.28156 6.59957 1.34952C7.14694 1.41748 7.64778 1.69164 8 2.11611C8.20297 1.8709 8.45763 1.67359 8.74576 1.53829C9.03388 1.40298 9.34835 1.33303 9.66667 1.33344ZM6.33333 2.33344C6.03232 2.33358 5.74301 2.45005 5.52588 2.65852C5.30874 2.86698 5.18058 3.15131 5.16818 3.45207C5.15579 3.75282 5.26012 4.04673 5.45936 4.27236C5.65861 4.49799 5.93735 4.63787 6.23733 4.66277L6.33333 4.66677H7.5V3.50011L7.496 3.40411C7.47191 3.11231 7.33898 2.84023 7.12359 2.64189C6.90821 2.44356 6.62613 2.33345 6.33333 2.33344ZM9.66667 2.33344C9.35725 2.33344 9.0605 2.45636 8.84171 2.67515C8.62292 2.89394 8.5 3.19069 8.5 3.50011V4.66677H9.66667C9.97609 4.66677 10.2728 4.54386 10.4916 4.32507C10.7104 4.10627 10.8333 3.80953 10.8333 3.50011C10.8333 3.19069 10.7104 2.89394 10.4916 2.67515C10.2728 2.45636 9.97609 2.33344 9.66667 2.33344Z" fill="#1CBF73"/>
</g>
</svg>
