<svg width="22" height="24" viewBox="0 0 22 24" fill="none" xmlns="http://www.w3.org/2000/svg">
<g id="Layer 26">
<path id="Vector" d="M17.75 5.25H12.5V6.75H17.75V5.25Z" fill="#43525B"/>
<path id="Vector_2" d="M17.4987 9.75C17.4138 9.74948 17.3296 9.76606 17.2512 9.79875L16.2012 10.2188C16.0363 10.284 15.8896 10.3883 15.7737 10.5225L15.3312 8.97C15.1966 9.00999 15.0533 9.00999 14.9187 8.97L14.4762 10.5225C14.3603 10.3883 14.2136 10.284 14.0487 10.2188L12.9987 9.79875C12.9203 9.76606 12.8362 9.74948 12.7512 9.75L13.25 9L14 4.125L14.75 4.5L15.125 5.25L15.5 4.5L16.25 4.125L17 9L17.4987 9.75Z" fill="#91989D"/>
<path id="Vector_3" d="M8.375 7.5V1.73175C8.37488 1.57935 8.33945 1.42904 8.2715 1.29263C8.18994 1.12954 8.06458 0.992395 7.90946 0.896554C7.75434 0.800713 7.57559 0.749966 7.39325 0.75H6.35675C6.17441 0.749966 5.99566 0.800713 5.84054 0.896554C5.68542 0.992395 5.56006 1.12954 5.4785 1.29263C5.41055 1.42904 5.37512 1.57935 5.375 1.73175V7.5" fill="#69737A"/>
<path id="Vector_4" d="M8.75 7.5H5V18.75H8.75V7.5Z" fill="#DD4334"/>
<path id="Vector_5" d="M8.75 7.5H6.125V18.75H8.75V7.5Z" fill="#E47971"/>
<path id="Vector_6" d="M5 7.875C4.25008 7.87485 3.52163 8.12541 2.93048 8.58685C2.33934 9.04828 1.91942 9.6941 1.7375 10.4216L0.894125 13.7966C0.881363 13.8492 0.874942 13.9031 0.875 13.9571C0.875 14.1343 0.945366 14.3041 1.07062 14.4294C1.19587 14.5546 1.36574 14.625 1.54288 14.625C1.79888 14.625 2.05092 14.5618 2.27661 14.4409C2.5023 14.3201 2.69467 14.1454 2.83663 13.9324C3.0259 13.6484 3.14268 13.3224 3.17675 12.9829L3.35 11.2425C3.39093 10.8334 3.58245 10.4541 3.88737 10.1783C4.19229 9.90246 4.58884 9.74982 5 9.75" fill="#43525B"/>
<path id="Vector_7" d="M5.375 18.75V20.25H8.375V18.75" fill="#69737A"/>
<path id="Vector_8" d="M7.625 20.25H6.125V23.625H7.625V20.25Z" fill="#2E383D"/>
<path id="Vector_9" d="M7.25 9H6.5V16.5H7.25V9Z" fill="#DD4334"/>
<path id="Vector_10" d="M14.0502 10.2199L13.0002 9.7995C12.9182 9.7666 12.8306 9.74979 12.7422 9.75C12.5725 9.75006 12.4088 9.81267 12.2823 9.92584C12.1559 10.039 12.0756 10.1948 12.0568 10.3635L12.0815 11.3558C12.0952 11.9126 11.9916 12.4661 11.7775 12.9803C11.5633 13.4945 11.2433 13.9579 10.8384 14.3404C10.6999 14.5252 10.6251 14.7499 10.625 14.9809C10.6251 15.2049 10.6956 15.4232 10.8265 15.6049C10.9575 15.7866 11.1423 15.9225 11.3547 15.9934L12.725 16.4505C12.8237 16.4832 12.927 16.4999 13.031 16.5C13.1582 16.5001 13.2841 16.4751 13.4017 16.4265C13.5192 16.378 13.626 16.3067 13.716 16.2168C13.806 16.1269 13.8774 16.0202 13.9261 15.9027C13.9748 15.7852 14 15.6593 14 15.5321V13.7321C14 13.091 14.1829 12.4632 14.5272 11.9224C14.672 11.7295 14.7502 11.4949 14.75 11.2538C14.75 11.0312 14.6833 10.8138 14.5586 10.6296C14.4339 10.4453 14.2568 10.3026 14.0502 10.2199Z" fill="#DD4334"/>
<path id="Vector_11" d="M21.5 23.625H20.75V15.1125C20.7503 12.8183 20.5242 10.5297 20.075 8.28C19.9664 7.74317 19.6756 7.26035 19.2519 6.91322C18.8283 6.56608 18.2977 6.37596 17.75 6.375V5.625C18.4708 5.6266 19.1689 5.87708 19.7262 6.33407C20.2836 6.79107 20.666 7.42653 20.8089 8.133C21.2681 10.4311 21.4996 12.7689 21.5 15.1125V23.625Z" fill="#69737A"/>
<path id="Vector_12" d="M8.2715 1.29263C8.18994 1.12954 8.06458 0.992395 7.90946 0.896554C7.75434 0.800713 7.57559 0.749966 7.39325 0.75H6.875V7.5H8.375V1.73175C8.37488 1.57935 8.33945 1.42904 8.2715 1.29263Z" fill="#43525B"/>
<path id="Vector_13" d="M5.00001 9.74991V8.71191C4.39498 8.85002 3.84 9.15291 3.39654 9.58704C2.95307 10.0212 2.63845 10.5696 2.48751 11.1715L1.64413 14.5465C1.63979 14.5714 1.63679 14.5964 1.63513 14.6215C1.87459 14.6075 2.10754 14.5382 2.31574 14.4191C2.52393 14.3 2.70171 14.1342 2.83513 13.9349C3.02435 13.6508 3.14113 13.3247 3.17526 12.985L3.35001 11.2424C3.39094 10.8333 3.58246 10.454 3.88738 10.1782C4.1923 9.90237 4.58885 9.74973 5.00001 9.74991Z" fill="#2E383D"/>
<path id="Vector_14" d="M8.375 19.125H5.375V20.25H8.375V19.125Z" fill="#91989D"/>
<path id="Vector_15" d="M14.75 11.254C14.75 11.0314 14.6833 10.814 14.5586 10.6298C14.4339 10.4455 14.2568 10.3028 14.0503 10.2201L13.0003 9.79971C12.9601 9.78318 12.9184 9.77062 12.8758 9.76221C12.8405 9.83275 12.8178 9.90888 12.8086 9.98721L12.8334 10.9795C12.8471 11.5363 12.7435 12.0898 12.5293 12.604C12.3152 13.1182 11.9952 13.5816 11.5903 13.9641C11.4888 14.0994 11.421 14.2569 11.3924 14.4235C11.3637 14.5902 11.3751 14.7613 11.4255 14.9227C11.4759 15.0841 11.564 15.2312 11.6824 15.352C11.8008 15.4727 11.9462 15.5636 12.1066 15.6171L13.475 16.0757C13.5737 16.1084 13.677 16.1251 13.781 16.1252C13.7848 16.1252 13.7881 16.1252 13.7919 16.1252C13.9259 15.9566 13.9992 15.7477 14 15.5323V13.7323C14 13.0912 14.1829 12.4634 14.5273 11.9226C14.672 11.7297 14.7502 11.4951 14.75 11.254Z" fill="#E47971"/>
<path id="Vector_16" d="M15.5 7.875V4.5L15.125 5.25L14.75 4.5V7.875H15.5Z" fill="#43525B"/>
<path id="Vector_17" d="M15.125 9C15.5392 9 15.875 8.66421 15.875 8.25C15.875 7.83579 15.5392 7.5 15.125 7.5C14.7108 7.5 14.375 7.83579 14.375 8.25C14.375 8.66421 14.7108 9 15.125 9Z" fill="#2E383D"/>
<path id="Vector_18" d="M16.1998 10.2199L17.2516 9.7995C17.3331 9.76683 17.42 9.75003 17.5078 9.75C17.6775 9.75006 17.8412 9.81266 17.9677 9.92584C18.0941 10.039 18.1744 10.1948 18.1933 10.3635L18.1685 11.3557C18.1548 11.9126 18.2584 12.4661 18.4725 12.9803C18.6867 13.4945 19.0067 13.9579 19.4116 14.3404C19.5501 14.5252 19.6249 14.7499 19.625 14.9809C19.6249 15.2049 19.5545 15.4232 19.4235 15.6049C19.2925 15.7866 19.1077 15.9225 18.8953 15.9934L17.525 16.4505C17.4263 16.4832 17.323 16.4999 17.219 16.5C17.0918 16.5001 16.9659 16.4751 16.8483 16.4265C16.7308 16.378 16.624 16.3067 16.534 16.2168C16.444 16.1269 16.3726 16.0202 16.3239 15.9027C16.2752 15.7852 16.25 15.6593 16.25 15.5321V13.7321C16.25 13.091 16.0671 12.4632 15.7228 11.9224C15.578 11.7295 15.4998 11.4949 15.5 11.2538C15.5 11.0312 15.5667 10.8138 15.6914 10.6296C15.8161 10.4453 15.9932 10.3026 16.1998 10.2199Z" fill="#DD4334"/>
<path id="Vector_19" d="M15.5 11.254C15.5 11.0314 15.5667 10.814 15.6914 10.6298C15.8161 10.4455 15.9932 10.3028 16.1998 10.2201L17.2516 9.79971C17.2918 9.78318 17.3335 9.77062 17.3761 9.76221C17.4114 9.83275 17.4341 9.90888 17.4433 9.98721L17.4185 10.9795C17.4048 11.5363 17.5084 12.0898 17.7225 12.604C17.9367 13.1182 18.2567 13.5816 18.6616 13.9641C18.763 14.0994 18.8309 14.2569 18.8595 14.4235C18.8881 14.5902 18.8768 14.7613 18.8264 14.9227C18.7759 15.0841 18.6879 15.2312 18.5695 15.352C18.4511 15.4727 18.3057 15.5636 18.1453 15.6171L16.775 16.0757C16.6763 16.1084 16.573 16.1251 16.469 16.1252C16.4653 16.1252 16.4619 16.1252 16.4581 16.1252C16.3241 15.9566 16.2508 15.7477 16.25 15.5323V13.7323C16.25 13.0912 16.0671 12.4634 15.7228 11.9226C15.578 11.7297 15.4998 11.4951 15.5 11.254Z" fill="#E47971"/>
</g>
</svg>
