<svg width="16" height="16" viewBox="0 0 16 16" fill="none" xmlns="http://www.w3.org/2000/svg">
<g id="fluent:ribbon-24-filled">
<path id="Vector" d="M11.3346 10.1628L11.3333 14.1635C11.3333 14.2551 11.3081 14.3449 11.2606 14.4232C11.213 14.5014 11.1448 14.5651 11.0635 14.6073C10.9822 14.6495 10.8909 14.6685 10.7995 14.6623C10.7081 14.6561 10.6202 14.6249 10.5453 14.5722L7.99998 12.7808L5.45531 14.5722C5.38045 14.6247 5.29259 14.6558 5.20131 14.6619C5.11003 14.668 5.01883 14.6489 4.93763 14.6067C4.85644 14.5646 4.78836 14.501 4.74082 14.4228C4.69327 14.3447 4.66808 14.255 4.66798 14.1635L4.66665 10.1635C5.61168 10.9225 6.78791 11.3353 7.99998 11.3335C9.21259 11.3354 10.3893 10.9223 11.3346 10.1628ZM7.99998 1.3335C9.23766 1.3335 10.4246 1.82516 11.2998 2.70033C12.175 3.5755 12.6666 4.76249 12.6666 6.00016C12.6666 7.23784 12.175 8.42482 11.2998 9.29999C10.4246 10.1752 9.23766 10.6668 7.99998 10.6668C6.7623 10.6668 5.57532 10.1752 4.70015 9.29999C3.82498 8.42482 3.33331 7.23784 3.33331 6.00016C3.33331 4.76249 3.82498 3.5755 4.70015 2.70033C5.57532 1.82516 6.7623 1.3335 7.99998 1.3335Z" fill="#111111"/>
</g>
</svg>
