<svg width="16" height="17" viewBox="0 0 16 17" fill="none" xmlns="http://www.w3.org/2000/svg">
<g id="mdi:password">
<path id="Vector" d="M7.99996 11.8337C8.35358 11.8337 8.69272 11.6932 8.94277 11.4431C9.19282 11.1931 9.33329 10.8539 9.33329 10.5003C9.33329 10.1467 9.19282 9.80757 8.94277 9.55752C8.69272 9.30747 8.35358 9.16699 7.99996 9.16699C7.64634 9.16699 7.3072 9.30747 7.05715 9.55752C6.8071 9.80757 6.66663 10.1467 6.66663 10.5003C6.66663 10.8539 6.8071 11.1931 7.05715 11.4431C7.3072 11.6932 7.64634 11.8337 7.99996 11.8337ZM12 5.83366C12.3536 5.83366 12.6927 5.97413 12.9428 6.22418C13.1928 6.47423 13.3333 6.81337 13.3333 7.16699V13.8337C13.3333 14.1873 13.1928 14.5264 12.9428 14.7765C12.6927 15.0265 12.3536 15.167 12 15.167H3.99996C3.64634 15.167 3.3072 15.0265 3.05715 14.7765C2.8071 14.5264 2.66663 14.1873 2.66663 13.8337V7.16699C2.66663 6.81337 2.8071 6.47423 3.05715 6.22418C3.3072 5.97413 3.64634 5.83366 3.99996 5.83366H4.66663V4.50033C4.66663 3.61627 5.01782 2.76842 5.64294 2.1433C6.26806 1.51818 7.1159 1.16699 7.99996 1.16699C8.4377 1.16699 8.87115 1.25321 9.27557 1.42073C9.67999 1.58824 10.0475 1.83377 10.357 2.1433C10.6665 2.45283 10.912 2.8203 11.0796 3.22471C11.2471 3.62913 11.3333 4.06259 11.3333 4.50033V5.83366H12ZM7.99996 2.50033C7.46953 2.50033 6.96082 2.71104 6.58575 3.08611C6.21067 3.46118 5.99996 3.96989 5.99996 4.50033V5.83366H9.99996V4.50033C9.99996 3.96989 9.78925 3.46118 9.41417 3.08611C9.0391 2.71104 8.53039 2.50033 7.99996 2.50033Z" fill="#1CBF73"/>
</g>
</svg>
