<svg width="25" height="24" viewBox="0 0 25 24" fill="none" xmlns="http://www.w3.org/2000/svg">
<g id="fluent:settings-24-regular">
<path id="Vector" d="M12.512 2.25C13.246 2.258 13.977 2.343 14.694 2.503C14.8465 2.53705 14.9846 2.6179 15.0889 2.73426C15.1933 2.85062 15.2587 2.99667 15.276 3.152L15.446 4.679C15.47 4.89428 15.5442 5.10093 15.6626 5.28231C15.781 5.46368 15.9404 5.61473 16.1278 5.72329C16.3153 5.83185 16.5256 5.89489 16.7419 5.90735C16.9581 5.9198 17.1743 5.88132 17.373 5.795L18.773 5.18C18.9152 5.11735 19.0734 5.10044 19.2257 5.13161C19.378 5.16278 19.5168 5.24049 19.623 5.354C20.6352 6.43501 21.3892 7.73153 21.828 9.146C21.8738 9.29474 21.8723 9.45406 21.8236 9.60189C21.7748 9.74971 21.6813 9.87871 21.556 9.971L20.315 10.887C20.1401 11.0152 19.9979 11.1827 19.8999 11.3761C19.8019 11.5695 19.7508 11.7832 19.7508 12C19.7508 12.2168 19.8019 12.4305 19.8999 12.6239C19.9979 12.8173 20.1401 12.9848 20.315 13.113L21.558 14.028C21.6835 14.1204 21.7772 14.2495 21.8259 14.3976C21.8747 14.5456 21.8761 14.7051 21.83 14.854C21.3913 16.2683 20.6377 17.5648 19.626 18.646C19.52 18.7595 19.3814 18.8372 19.2293 18.8686C19.0772 18.8999 18.9192 18.8833 18.777 18.821L17.371 18.204C17.1726 18.117 16.9565 18.0779 16.7402 18.09C16.5238 18.102 16.3134 18.1648 16.1259 18.2733C15.9383 18.3817 15.779 18.5328 15.6607 18.7143C15.5424 18.8958 15.4685 19.1026 15.445 19.318L15.275 20.844C15.258 20.9975 15.194 21.142 15.0918 21.2578C14.9896 21.3736 14.8542 21.4551 14.704 21.491C13.2555 21.8356 11.7464 21.8356 10.298 21.491C10.1476 21.4553 10.0119 21.3739 9.9095 21.2581C9.80711 21.1423 9.74301 20.9976 9.72597 20.844L9.55697 19.32C9.53242 19.1053 9.45787 18.8994 9.33931 18.7187C9.22074 18.5381 9.06146 18.3877 8.87426 18.2798C8.68707 18.1718 8.47716 18.1093 8.26141 18.0972C8.04566 18.0851 7.83008 18.1237 7.63197 18.21L6.22597 18.826C6.08363 18.8885 5.92537 18.9053 5.77309 18.8739C5.62081 18.8426 5.48204 18.7647 5.37597 18.651C4.36404 17.5685 3.61081 16.2706 3.17297 14.855C3.12687 14.7061 3.12829 14.5466 3.17703 14.3986C3.22578 14.2505 3.31943 14.1214 3.44497 14.029L4.68797 13.113C4.86282 12.9848 5.00501 12.8173 5.10302 12.6239C5.20103 12.4305 5.25211 12.2168 5.25211 12C5.25211 11.7832 5.20103 11.5695 5.10302 11.3761C5.00501 11.1827 4.86282 11.0152 4.68797 10.887L3.44497 9.973C3.31943 9.88065 3.22578 9.75148 3.17703 9.60345C3.12829 9.45542 3.12687 9.29588 3.17297 9.147C3.61179 7.73253 4.3657 6.43601 5.37797 5.355C5.48416 5.24149 5.62298 5.16378 5.77526 5.13261C5.92753 5.10144 6.08573 5.11835 6.22797 5.181L7.62797 5.796C7.82699 5.88227 8.04347 5.92066 8.26002 5.90809C8.47657 5.89551 8.68715 5.83232 8.87484 5.7236C9.06254 5.61487 9.22212 5.46363 9.34076 5.28204C9.4594 5.10045 9.5338 4.89356 9.55797 4.678L9.72797 3.152C9.74513 2.99635 9.81058 2.84998 9.91513 2.73341C10.0197 2.61684 10.1581 2.53592 10.311 2.502C11.034 2.34221 11.7716 2.25776 12.512 2.25ZM12.512 3.75C12.0584 3.75533 11.6058 3.79444 11.158 3.867L11.048 4.844C10.9979 5.2933 10.8431 5.72457 10.5958 6.10305C10.3486 6.48152 10.0159 6.79662 9.62451 7.02294C9.23316 7.24927 8.79412 7.38049 8.34276 7.40603C7.8914 7.43158 7.44036 7.35073 7.02597 7.17L6.12697 6.776C5.55541 7.46989 5.10047 8.25209 4.77997 9.092L5.57697 9.679C5.94124 9.94659 6.23745 10.2961 6.44163 10.6994C6.64582 11.1026 6.75227 11.5483 6.75237 12.0002C6.75246 12.4522 6.64621 12.8979 6.44219 13.3012C6.23818 13.7046 5.94213 14.0543 5.57797 14.322L4.77897 14.91C5.09897 15.752 5.55497 16.536 6.12697 17.232L7.03197 16.835C7.44546 16.6545 7.89556 16.5735 8.34604 16.5987C8.79653 16.6239 9.2348 16.7545 9.62559 16.98C10.0164 17.2055 10.3488 17.5196 10.596 17.897C10.8432 18.2745 10.9984 18.7047 11.049 19.153L11.158 20.137C12.048 20.287 12.957 20.287 13.846 20.137L13.956 19.153C14.0058 18.7041 14.1604 18.2732 14.4074 17.895C14.6544 17.5169 14.9868 17.2021 15.3779 16.9761C15.769 16.7501 16.2077 16.6192 16.6586 16.594C17.1096 16.5688 17.5602 16.65 17.974 16.831L18.878 17.227C19.45 16.5325 19.9053 15.7496 20.226 14.909L19.428 14.321C19.0635 14.0535 18.7671 13.704 18.5628 13.3008C18.3585 12.8975 18.252 12.4518 18.2519 11.9998C18.2518 11.5477 18.3581 11.1019 18.5623 10.6986C18.7664 10.2952 19.0626 9.94562 19.427 9.678L20.224 9.091C19.9033 8.25068 19.448 7.46812 18.876 6.774L17.979 7.167C17.5647 7.34835 17.1136 7.42974 16.6621 7.40461C16.2106 7.37949 15.7713 7.24853 15.3798 7.02233C14.9882 6.79613 14.6553 6.48103 14.408 6.10245C14.1607 5.72388 14.0058 5.29245 13.956 4.843L13.847 3.867C13.4058 3.79489 12.9589 3.75578 12.512 3.75ZM12.5 8.25C13.4945 8.25 14.4484 8.64509 15.1516 9.34835C15.8549 10.0516 16.25 11.0054 16.25 12C16.25 12.9946 15.8549 13.9484 15.1516 14.6517C14.4484 15.3549 13.4945 15.75 12.5 15.75C11.5054 15.75 10.5516 15.3549 9.84832 14.6517C9.14506 13.9484 8.74997 12.9946 8.74997 12C8.74997 11.0054 9.14506 10.0516 9.84832 9.34835C10.5516 8.64509 11.5054 8.25 12.5 8.25ZM12.5 9.75C11.9032 9.75 11.3309 9.98705 10.909 10.409C10.487 10.831 10.25 11.4033 10.25 12C10.25 12.5967 10.487 13.169 10.909 13.591C11.3309 14.0129 11.9032 14.25 12.5 14.25C13.0967 14.25 13.669 14.0129 14.091 13.591C14.5129 13.169 14.75 12.5967 14.75 12C14.75 11.4033 14.5129 10.831 14.091 10.409C13.669 9.98705 13.0967 9.75 12.5 9.75Z" fill="#B3B3B3"/>
</g>
</svg>
