<svg width="25" height="24" viewBox="0 0 25 24" fill="none" xmlns="http://www.w3.org/2000/svg">
<g id="fluent:settings-24-filled">
<path id="Vector" d="M12.512 2.25C13.246 2.258 13.977 2.343 14.694 2.503C14.8465 2.53705 14.9846 2.6179 15.0889 2.73426C15.1933 2.85062 15.2587 2.99667 15.276 3.152L15.446 4.679C15.47 4.89428 15.5442 5.10093 15.6626 5.28231C15.781 5.46368 15.9404 5.61473 16.1278 5.72329C16.3153 5.83185 16.5256 5.89489 16.7419 5.90735C16.9581 5.9198 17.1743 5.88132 17.373 5.795L18.773 5.18C18.9152 5.11735 19.0734 5.10044 19.2257 5.13161C19.378 5.16278 19.5168 5.24049 19.623 5.354C20.6352 6.43501 21.3892 7.73153 21.828 9.146C21.8738 9.29474 21.8723 9.45406 21.8236 9.60189C21.7748 9.74971 21.6813 9.87871 21.556 9.971L20.315 10.887C20.1401 11.0152 19.9979 11.1827 19.8999 11.3761C19.8019 11.5695 19.7508 11.7832 19.7508 12C19.7508 12.2168 19.8019 12.4305 19.8999 12.6239C19.9979 12.8173 20.1401 12.9848 20.315 13.113L21.558 14.028C21.6835 14.1204 21.7772 14.2495 21.8259 14.3976C21.8747 14.5456 21.8761 14.7051 21.83 14.854C21.3913 16.2683 20.6377 17.5648 19.626 18.646C19.52 18.7595 19.3814 18.8372 19.2293 18.8686C19.0772 18.8999 18.9192 18.8833 18.777 18.821L17.371 18.204C17.1726 18.117 16.9565 18.0779 16.7402 18.09C16.5238 18.102 16.3134 18.1648 16.1259 18.2733C15.9383 18.3817 15.779 18.5328 15.6607 18.7143C15.5424 18.8958 15.4685 19.1026 15.445 19.318L15.275 20.844C15.258 20.9975 15.194 21.142 15.0918 21.2578C14.9896 21.3736 14.8542 21.4551 14.704 21.491C13.2555 21.8356 11.7464 21.8356 10.298 21.491C10.1476 21.4553 10.0119 21.3739 9.9095 21.2581C9.80711 21.1423 9.74301 20.9976 9.72597 20.844L9.55697 19.32C9.53242 19.1053 9.45787 18.8994 9.33931 18.7187C9.22074 18.5381 9.06146 18.3877 8.87426 18.2798C8.68707 18.1718 8.47716 18.1093 8.26141 18.0972C8.04566 18.0851 7.83008 18.1237 7.63197 18.21L6.22597 18.826C6.08363 18.8885 5.92537 18.9053 5.77309 18.8739C5.62081 18.8426 5.48204 18.7647 5.37597 18.651C4.36404 17.5685 3.61081 16.2706 3.17297 14.855C3.12687 14.7061 3.12829 14.5466 3.17703 14.3986C3.22578 14.2505 3.31943 14.1214 3.44497 14.029L4.68797 13.113C4.86282 12.9848 5.00501 12.8173 5.10302 12.6239C5.20103 12.4305 5.25211 12.2168 5.25211 12C5.25211 11.7832 5.20103 11.5695 5.10302 11.3761C5.00501 11.1827 4.86282 11.0152 4.68797 10.887L3.44497 9.973C3.31943 9.88065 3.22578 9.75148 3.17703 9.60345C3.12829 9.45542 3.12687 9.29588 3.17297 9.147C3.61179 7.73253 4.3657 6.43601 5.37797 5.355C5.48416 5.24149 5.62298 5.16378 5.77526 5.13261C5.92753 5.10144 6.08573 5.11835 6.22797 5.181L7.62797 5.796C7.82699 5.88227 8.04347 5.92066 8.26002 5.90809C8.47657 5.89551 8.68715 5.83232 8.87484 5.7236C9.06254 5.61487 9.22212 5.46363 9.34076 5.28204C9.4594 5.10045 9.5338 4.89356 9.55797 4.678L9.72797 3.152C9.74513 2.99635 9.81058 2.84998 9.91513 2.73341C10.0197 2.61684 10.1581 2.53592 10.311 2.502C11.034 2.34221 11.7716 2.25776 12.512 2.25ZM12.5 9C11.7043 9 10.9413 9.31607 10.3787 9.87868C9.81604 10.4413 9.49997 11.2044 9.49997 12C9.49997 12.7956 9.81604 13.5587 10.3787 14.1213C10.9413 14.6839 11.7043 15 12.5 15C13.2956 15 14.0587 14.6839 14.6213 14.1213C15.1839 13.5587 15.5 12.7956 15.5 12C15.5 11.2044 15.1839 10.4413 14.6213 9.87868C14.0587 9.31607 13.2956 9 12.5 9Z" fill="#1CBF73"/>
</g>
</svg>
