<svg width="16" height="16" viewBox="0 0 16 16" fill="none" xmlns="http://www.w3.org/2000/svg">
<g id="fluent:star-24-regular">
<path id="Vector" d="M7.19194 2.06791C7.52194 1.39924 8.47594 1.39924 8.80594 2.06791L10.3779 5.25324L13.8933 5.76391C14.6313 5.87057 14.9259 6.77857 14.3919 7.29924L11.8479 9.77857L12.4486 13.2786C12.5753 14.0146 11.8033 14.5752 11.1426 14.2279L7.99861 12.5746L4.85527 14.2279C4.19527 14.5746 3.42327 14.0146 3.54861 13.2792L4.14927 9.77857L1.60594 7.29857C1.07194 6.77857 1.36661 5.87124 2.10461 5.76391L5.61994 5.25324L7.19194 2.06791ZM7.99861 2.69257L6.49327 5.74257C6.42876 5.87345 6.3334 5.98667 6.21541 6.0725C6.09741 6.15833 5.96032 6.21418 5.81594 6.23524L2.44927 6.72457L4.88527 9.09924C5.09727 9.30591 5.19394 9.60391 5.14394 9.89591L4.56927 13.2486L7.57994 11.6652C7.70915 11.5973 7.85295 11.5618 7.99894 11.5618C8.14493 11.5618 8.28873 11.5973 8.41794 11.6652L11.4286 13.2486L10.8539 9.89524C10.8294 9.75153 10.8401 9.604 10.8851 9.46534C10.9302 9.32668 11.0082 9.20105 11.1126 9.09924L13.5486 6.72457L10.1819 6.23524C10.0376 6.21418 9.90047 6.15833 9.78247 6.0725C9.66448 5.98667 9.56911 5.87345 9.50461 5.74257L7.99861 2.69257Z" fill="#111111"/>
</g>
</svg>
