<svg width="24" height="24" viewBox="0 0 24 24" fill="none" xmlns="http://www.w3.org/2000/svg">
<path d="M4.75 4C4.02065 4 3.32118 4.28973 2.80546 4.80546C2.28973 5.32118 2 6.02065 2 6.75V15.25C2 15.9793 2.28973 16.6788 2.80546 17.1945C3.32118 17.7103 4.02065 18 4.75 18H19.25C19.9793 18 20.6788 17.7103 21.1945 17.1945C21.7103 16.6788 22 15.9793 22 15.25V6.75C22 6.02065 21.7103 5.32118 21.1945 4.80546C20.6788 4.28973 19.9793 4 19.25 4H4.75ZM3.5 6.75C3.5 6.06 4.06 5.5 4.75 5.5H19.25C19.94 5.5 20.5 6.06 20.5 6.75V15.25C20.5 15.94 19.94 16.5 19.25 16.5H4.75C4.06 16.5 3.5 15.94 3.5 15.25V6.75ZM5.75 19.5C5.55109 19.5 5.36032 19.579 5.21967 19.7197C5.07902 19.8603 5 20.0511 5 20.25C5 20.4489 5.07902 20.6397 5.21967 20.7803C5.36032 20.921 5.55109 21 5.75 21H18.25C18.4489 21 18.6397 20.921 18.7803 20.7803C18.921 20.6397 19 20.4489 19 20.25C19 20.0511 18.921 19.8603 18.7803 19.7197C18.6397 19.579 18.4489 19.5 18.25 19.5H5.75Z" fill="#1CBF73"/>
</svg>
