<svg width="16" height="16" viewBox="0 0 16 16" fill="none" xmlns="http://www.w3.org/2000/svg">
<g id="fluent:shield-question-24-filled">
<path id="Vector" d="M2 3.83301C2 3.7004 2.05268 3.57322 2.14645 3.47945C2.24021 3.38569 2.36739 3.33301 2.5 3.33301C4.27533 3.33301 6.00533 2.70434 7.7 1.43301C7.78655 1.3681 7.89182 1.33301 8 1.33301C8.10819 1.33301 8.21345 1.3681 8.3 1.43301C9.99467 2.70434 11.7247 3.33301 13.5 3.33301C13.6326 3.33301 13.7598 3.38569 13.8536 3.47945C13.9473 3.57322 14 3.7004 14 3.83301V7.33301C14 10.667 12.028 13.117 8.18333 14.6317C8.06552 14.6781 7.93448 14.6781 7.81667 14.6317C3.972 13.117 2 10.6663 2 7.33301V3.83301ZM8.66667 10.6663C8.66667 10.4895 8.59643 10.32 8.4714 10.1949C8.34638 10.0699 8.17681 9.99967 8 9.99967C7.82319 9.99967 7.65362 10.0699 7.5286 10.1949C7.40357 10.32 7.33333 10.4895 7.33333 10.6663C7.33333 10.8432 7.40357 11.0127 7.5286 11.1377C7.65362 11.2628 7.82319 11.333 8 11.333C8.17681 11.333 8.34638 11.2628 8.4714 11.1377C8.59643 11.0127 8.66667 10.8432 8.66667 10.6663ZM7.16667 6.49967C7.16667 6.27866 7.25446 6.0667 7.41074 5.91042C7.56702 5.75414 7.77899 5.66634 8 5.66634C8.22101 5.66634 8.43298 5.75414 8.58926 5.91042C8.74554 6.0667 8.83333 6.27866 8.83333 6.49967C8.83333 6.79767 8.668 6.99101 8.31333 7.34501L8.282 7.37634C7.96867 7.68834 7.5 8.15434 7.5 8.89967C7.5 9.03228 7.55268 9.15946 7.64645 9.25323C7.74022 9.347 7.86739 9.39968 8 9.39968C8.13261 9.39968 8.25979 9.347 8.35355 9.25323C8.44732 9.15946 8.5 9.03228 8.5 8.89967C8.5 8.59968 8.666 8.40634 9.02 8.05301L9.05267 8.01967C9.366 7.70834 9.83333 7.24301 9.83333 6.49967C9.83333 6.01344 9.64018 5.54713 9.29636 5.20331C8.95255 4.8595 8.48623 4.66634 8 4.66634C7.51377 4.66634 7.04745 4.8595 6.70364 5.20331C6.35982 5.54713 6.16667 6.01344 6.16667 6.49967C6.16667 6.63228 6.21935 6.75946 6.31311 6.85323C6.40688 6.947 6.53406 6.99967 6.66667 6.99967C6.79927 6.99967 6.92645 6.947 7.02022 6.85323C7.11399 6.75946 7.16667 6.63228 7.16667 6.49967Z" fill="#1CBF73"/>
</g>
</svg>
