<svg width="98" height="98" viewBox="0 0 98 98" fill="none" xmlns="http://www.w3.org/2000/svg">
<g clip-path="url(#clip0_954_6709)">
<rect width="98" height="98" rx="49" fill="#FEE6DA"/>
<path d="M9.63479 57L9.63532 116C9.63534 117.657 10.9785 119 12.6353 119H85.0535C86.7103 119 88.0535 117.657 88.0535 116V60.9469C88.0535 59.2901 86.7103 57.9469 85.0535 57.9469H43.2285C42.636 57.9469 42.0567 57.7715 41.5638 57.4426L37.1586 54.5043C36.6657 54.1755 36.0864 54 35.4939 54H12.6348C10.9779 54 9.63478 55.3432 9.63479 57Z" fill="#796CF7"/>
<path d="M16.6845 86.8418C15.1404 86.8418 13.884 85.5991 13.867 84.0552L13.947 26.8487C13.9298 25.2805 15.1962 24 16.7645 24L58.9499 24C60.4953 24 61.7524 25.2449 61.7674 26.7903L61.787 83.9967C61.8022 85.5635 60.5363 86.8418 58.9694 86.8418L16.6845 86.8418Z" fill="url(#paint0_linear_954_6709)"/>
<g filter="url(#filter0_i_954_6709)">
<path d="M21.2236 48.5775C20.1343 48.5775 19.2512 47.6945 19.2512 46.6052C19.2512 45.5159 20.1343 44.6328 21.2236 44.6328L55.0353 44.6327C56.1246 44.6327 57.0077 45.5157 57.0077 46.605C57.0077 47.6943 56.1246 48.5774 55.0353 48.5774L21.2236 48.5775Z" fill="#40A0D8"/>
<path d="M21.2223 56.1862C20.133 56.1862 19.25 55.3032 19.25 54.2139C19.25 53.1246 20.133 52.2415 21.2223 52.2415L55.0341 52.2414C56.1234 52.2414 57.0064 53.1244 57.0064 54.2137C57.0064 55.303 56.1234 56.1861 55.0341 56.1861L21.2223 56.1862Z" fill="#40A0D8"/>
<path d="M21.2242 63.23C20.1349 63.23 19.2518 62.347 19.2518 61.2577C19.2518 60.1684 20.1349 59.2853 21.2242 59.2853L55.0359 59.2852C56.1252 59.2852 57.0083 60.1683 57.0083 61.2576C57.0083 62.3469 56.1252 63.2299 55.0359 63.2299L21.2242 63.23Z" fill="#40A0D8"/>
</g>
<path d="M21.2236 48.5775C20.1343 48.5775 19.2512 47.6945 19.2512 46.6052C19.2512 45.5159 20.1343 44.6328 21.2236 44.6328L55.0353 44.6327C56.1246 44.6327 57.0077 45.5157 57.0077 46.605C57.0077 47.6943 56.1246 48.5774 55.0353 48.5774L21.2236 48.5775Z" stroke="#B3D9EF" stroke-width="0.5"/>
<path d="M21.2223 56.1862C20.133 56.1862 19.25 55.3032 19.25 54.2139C19.25 53.1246 20.133 52.2415 21.2223 52.2415L55.0341 52.2414C56.1234 52.2414 57.0064 53.1244 57.0064 54.2137C57.0064 55.303 56.1234 56.1861 55.0341 56.1861L21.2223 56.1862Z" stroke="#B3D9EF" stroke-width="0.5"/>
<path d="M21.2242 63.23C20.1349 63.23 19.2518 62.347 19.2518 61.2577C19.2518 60.1684 20.1349 59.2853 21.2242 59.2853L55.0359 59.2852C56.1252 59.2852 57.0083 60.1683 57.0083 61.2576C57.0083 62.3469 56.1252 63.2299 55.0359 63.2299L21.2242 63.23Z" stroke="#B3D9EF" stroke-width="0.5"/>
<g filter="url(#filter1_i_954_6709)">
<path d="M24.4082 33.0821C24.4082 33.3149 24.3392 33.5426 24.2098 33.7362C24.0804 33.9298 23.8965 34.0807 23.6814 34.1698C23.4662 34.259 23.2295 34.2823 23.0011 34.2368C22.7727 34.1914 22.5629 34.0793 22.3983 33.9146C22.2336 33.75 22.1215 33.5402 22.0761 33.3118C22.0306 33.0834 22.0539 32.8466 22.1431 32.6315C22.2322 32.4164 22.3831 32.2325 22.5767 32.1031C22.7703 31.9737 22.998 31.9047 23.2308 31.9047C23.5431 31.9047 23.8426 32.0287 24.0634 32.2495C24.2842 32.4703 24.4082 32.7698 24.4082 33.0821ZM27.548 29.5499L27.5479 38.1841C27.5479 38.3923 27.4652 38.5919 27.318 38.7391C27.1708 38.8863 26.9712 38.969 26.763 38.969H19.6986C19.4904 38.969 19.2908 38.8863 19.1436 38.7391C18.9964 38.5919 18.9137 38.3923 18.9137 38.1841L18.9137 37.0067H18.1288C18.0247 37.0067 17.9249 36.9654 17.8513 36.8918C17.7776 36.8182 17.7363 36.7183 17.7363 36.6143C17.7363 36.5102 17.7777 36.4103 17.8513 36.3367C17.9249 36.2631 18.0247 36.2218 18.1288 36.2218H18.9137L18.9137 34.2595H18.1288C18.0247 34.2595 17.9249 34.2181 17.8513 34.1445C17.7777 34.0709 17.7363 33.9711 17.7363 33.867C17.7363 33.7629 17.7777 33.6631 17.8513 33.5895C17.9249 33.5159 18.0247 33.4745 18.1288 33.4745H18.9137L18.9137 31.5122H18.1288C18.0247 31.5122 17.9249 31.4709 17.8513 31.3973C17.7777 31.3237 17.7363 31.2238 17.7363 31.1197C17.7363 31.0157 17.7777 30.9158 17.8513 30.8422C17.9249 30.7686 18.0247 30.7273 18.1288 30.7273H18.9137L18.9137 29.5499C18.9137 29.3417 18.9964 29.1421 19.1436 28.9949C19.2908 28.8477 19.4905 28.765 19.6987 28.765H26.763C26.9712 28.765 27.1709 28.8477 27.3181 28.9949C27.4653 29.1421 27.548 29.3417 27.548 29.5499ZM25.8996 35.5938C25.5521 35.1279 25.0886 34.7611 24.5554 34.5298C24.8476 34.263 25.0524 33.914 25.1427 33.5288C25.2331 33.1435 25.2049 32.74 25.0618 32.371C24.9188 32.0021 24.6675 31.685 24.341 31.4615C24.0145 31.2379 23.628 31.1183 23.2323 31.1183C22.8366 31.1183 22.4501 31.2379 22.1236 31.4615C21.7971 31.685 21.5458 32.0021 21.4028 32.371C21.2597 32.74 21.2315 33.1435 21.3218 33.5288C21.4122 33.914 21.617 34.263 21.9092 34.5298C21.3749 34.7606 20.9104 35.1275 20.5621 35.5938C20.5311 35.6351 20.5086 35.682 20.4958 35.7319C20.483 35.7819 20.4802 35.8338 20.4875 35.8848C20.4948 35.9359 20.5121 35.9849 20.5383 36.0293C20.5646 36.0736 20.5993 36.1124 20.6405 36.1433C20.6818 36.1742 20.7287 36.1967 20.7786 36.2095C20.8285 36.2223 20.8805 36.2251 20.9315 36.2178C20.9825 36.2106 21.0316 36.1933 21.076 36.167C21.1203 36.1408 21.1591 36.106 21.19 36.0648C21.4276 35.748 21.7357 35.4908 22.09 35.3137C22.4442 35.1366 22.8348 35.0444 23.2308 35.0444C23.6269 35.0444 24.0174 35.1366 24.3717 35.3137C24.7259 35.4908 25.034 35.748 25.2716 36.0648C25.3341 36.1481 25.4271 36.2031 25.5301 36.2178C25.6331 36.2326 25.7378 36.2058 25.8211 36.1433C25.9044 36.0808 25.9594 35.9879 25.9741 35.8848C25.9888 35.7818 25.962 35.6771 25.8996 35.5938Z" fill="#40A0D8"/>
</g>
<g filter="url(#filter2_d_954_6709)">
<path d="M39.6395 96.71C38.0955 96.71 36.8391 95.4673 36.8221 93.9234L36.9021 36.7169C36.8848 35.1487 38.1513 33.8682 39.7196 33.8682L81.9049 33.8682C83.4504 33.8682 84.7074 35.1131 84.7225 36.6585L84.7421 93.865C84.7573 95.4317 83.4914 96.71 81.9245 96.71L39.6395 96.71Z" fill="url(#paint1_linear_954_6709)"/>
</g>
<g filter="url(#filter3_i_954_6709)">
<path d="M71.9722 45.6313C70.8829 45.6313 69.9999 44.7482 69.9999 43.6589C69.9999 42.5696 70.8829 41.6865 71.9722 41.6865L77.6076 41.6865C78.6969 41.6865 79.5799 42.5696 79.5799 43.6589C79.5799 44.7482 78.6969 45.6312 77.6076 45.6313L71.9722 45.6313Z" fill="#F6E4F0"/>
<path d="M71.9722 51.8301C70.8829 51.8301 69.9999 50.947 69.9999 49.8577C69.9999 48.7684 70.8829 47.8854 71.9722 47.8854H77.6076C78.6969 47.8854 79.5799 48.7684 79.5799 49.8577C79.5799 50.9471 78.6969 51.8301 77.6075 51.8301L71.9722 51.8301Z" fill="#F6E4F0"/>
<path d="M43.7958 69.2997C42.7065 69.2997 41.8234 68.4166 41.8234 67.3273C41.8234 66.238 42.7065 65.3549 43.7958 65.3549L77.6075 65.3548C78.6968 65.3548 79.5799 66.2379 79.5799 67.3272C79.5799 68.4165 78.6968 69.2995 77.6075 69.2995L43.7958 69.2997Z" fill="#F6E4F0"/>
<path d="M43.7945 76.9083C42.7052 76.9083 41.8222 76.0253 41.8222 74.936C41.8222 73.8467 42.7052 72.9636 43.7945 72.9636L77.6062 72.9635C78.6956 72.9635 79.5786 73.8466 79.5786 74.9359C79.5786 76.0252 78.6955 76.9082 77.6062 76.9082L43.7945 76.9083Z" fill="#F6E4F0"/>
<path d="M43.7964 83.9522C42.7071 83.9522 41.824 83.0691 41.824 81.9798C41.824 80.8905 42.7071 80.0075 43.7964 80.0075L77.6081 80.0073C78.6974 80.0073 79.5805 80.8904 79.5805 81.9797C79.5805 83.069 78.6974 83.9521 77.6081 83.9521L43.7964 83.9522Z" fill="#F6E4F0"/>
</g>
<path d="M71.9722 45.6313C70.8829 45.6313 69.9999 44.7482 69.9999 43.6589C69.9999 42.5696 70.8829 41.6865 71.9722 41.6865L77.6076 41.6865C78.6969 41.6865 79.5799 42.5696 79.5799 43.6589C79.5799 44.7482 78.6969 45.6312 77.6076 45.6313L71.9722 45.6313Z" stroke="#F7C9E3" stroke-opacity="0.5" stroke-width="0.563533"/>
<path d="M71.9722 51.8301C70.8829 51.8301 69.9999 50.947 69.9999 49.8577C69.9999 48.7684 70.8829 47.8854 71.9722 47.8854H77.6076C78.6969 47.8854 79.5799 48.7684 79.5799 49.8577C79.5799 50.9471 78.6969 51.8301 77.6075 51.8301L71.9722 51.8301Z" stroke="#F7C9E3" stroke-opacity="0.5" stroke-width="0.563533"/>
<path d="M43.7958 69.2997C42.7065 69.2997 41.8234 68.4166 41.8234 67.3273C41.8234 66.238 42.7065 65.3549 43.7958 65.3549L77.6075 65.3548C78.6968 65.3548 79.5799 66.2379 79.5799 67.3272C79.5799 68.4165 78.6968 69.2995 77.6075 69.2995L43.7958 69.2997Z" stroke="#F7C9E3" stroke-opacity="0.5" stroke-width="0.563533"/>
<path d="M43.7945 76.9083C42.7052 76.9083 41.8222 76.0253 41.8222 74.936C41.8222 73.8467 42.7052 72.9636 43.7945 72.9636L77.6062 72.9635C78.6956 72.9635 79.5786 73.8466 79.5786 74.9359C79.5786 76.0252 78.6955 76.9082 77.6062 76.9082L43.7945 76.9083Z" stroke="#F7C9E3" stroke-opacity="0.5" stroke-width="0.563533"/>
<path d="M43.7964 83.9522C42.7071 83.9522 41.824 83.0691 41.824 81.9798C41.824 80.8905 42.7071 80.0075 43.7964 80.0075L77.6081 80.0073C78.6974 80.0073 79.5805 80.8904 79.5805 81.9797C79.5805 83.069 78.6974 83.9521 77.6081 83.9521L43.7964 83.9522Z" stroke="#F7C9E3" stroke-opacity="0.5" stroke-width="0.563533"/>
<g filter="url(#filter4_i_954_6709)">
<g clip-path="url(#clip1_954_6709)">
<rect x="40.8223" y="39" width="17" height="17" rx="8.5" fill="#FEF3EF"/>
<g clip-path="url(#clip2_954_6709)">
<g filter="url(#filter5_i_954_6709)">
<path d="M56.8223 54.999C56.8223 55.1316 56.7696 55.2588 56.6758 55.3526C56.5821 55.4464 56.4549 55.499 56.3223 55.499H42.3223C42.1897 55.499 42.0625 55.4464 41.9687 55.3526C41.8749 55.2588 41.8223 55.1316 41.8223 54.999C41.8223 54.8664 41.8749 54.7392 41.9687 54.6455C42.0625 54.5517 42.1897 54.499 42.3223 54.499H56.3223C56.4549 54.499 56.5821 54.5517 56.6758 54.6455C56.7696 54.7392 56.8223 54.8664 56.8223 54.999ZM42.341 48.1353C42.3113 48.0304 42.3166 47.9187 42.3562 47.8172C42.3958 47.7156 42.4675 47.6298 42.5604 47.5728L49.0604 43.5728C49.1392 43.5244 49.2298 43.4987 49.3223 43.4987C49.4147 43.4987 49.5054 43.5244 49.5841 43.5728L56.0841 47.5728C56.177 47.6297 56.2488 47.7155 56.2885 47.817C56.3281 47.9185 56.3336 48.0302 56.3039 48.1351C56.2743 48.2399 56.2112 48.3322 56.1242 48.3979C56.0373 48.4636 55.9312 48.4991 55.8223 48.499H54.3223V52.499H55.3223C55.4549 52.499 55.5821 52.5517 55.6758 52.6455C55.7696 52.7392 55.8223 52.8664 55.8223 52.999C55.8223 53.1316 55.7696 53.2588 55.6758 53.3526C55.5821 53.4464 55.4549 53.499 55.3223 53.499H43.3223C43.1897 53.499 43.0625 53.4464 42.9687 53.3526C42.8749 53.2588 42.8223 53.1316 42.8223 52.999C42.8223 52.8664 42.8749 52.7392 42.9687 52.6455C43.0625 52.5517 43.1897 52.499 43.3223 52.499H44.3223V48.499H42.8223C42.7134 48.4991 42.6075 48.4636 42.5206 48.3979C42.4337 48.3323 42.3707 48.24 42.341 48.1353ZM50.3223 51.999C50.3223 52.1316 50.3749 52.2588 50.4687 52.3526C50.5625 52.4464 50.6897 52.499 50.8223 52.499C50.9549 52.499 51.0821 52.4464 51.1758 52.3526C51.2696 52.2588 51.3223 52.1316 51.3223 51.999V48.999C51.3223 48.8664 51.2696 48.7392 51.1758 48.6455C51.0821 48.5517 50.9549 48.499 50.8223 48.499C50.6897 48.499 50.5625 48.5517 50.4687 48.6455C50.3749 48.7392 50.3223 48.8664 50.3223 48.999V51.999ZM47.3223 51.999C47.3223 52.1316 47.3749 52.2588 47.4687 52.3526C47.5625 52.4464 47.6897 52.499 47.8223 52.499C47.9549 52.499 48.0821 52.4464 48.1758 52.3526C48.2696 52.2588 48.3223 52.1316 48.3223 51.999V48.999C48.3223 48.8664 48.2696 48.7392 48.1758 48.6455C48.0821 48.5517 47.9549 48.499 47.8223 48.499C47.6897 48.499 47.5625 48.5517 47.4687 48.6455C47.3749 48.7392 47.3223 48.8664 47.3223 48.999V51.999Z" fill="#FE7122"/>
</g>
</g>
</g>
</g>
<g filter="url(#filter6_i_954_6709)">
<path d="M6.96609 65.2705C5.35317 65.2705 4.06941 66.6219 4.15214 68.2327L6.63664 116.607C6.71358 118.105 7.95061 119.28 9.4506 119.28H89.559C91.0754 119.28 92.3198 118.08 92.3748 116.565L94.1286 68.1903C94.1864 66.5951 92.9089 65.2705 91.3127 65.2705H89.2719H15.2589H10.8532H6.96609Z" fill="#CBB2EB"/>
</g>
</g>
<defs>
<filter id="filter0_i_954_6709" x="19" y="44.3827" width="38.2578" height="19.5974" filterUnits="userSpaceOnUse" color-interpolation-filters="sRGB">
<feFlood flood-opacity="0" result="BackgroundImageFix"/>
<feBlend mode="normal" in="SourceGraphic" in2="BackgroundImageFix" result="shape"/>
<feColorMatrix in="SourceAlpha" type="matrix" values="0 0 0 0 0 0 0 0 0 0 0 0 0 0 0 0 0 0 127 0" result="hardAlpha"/>
<feOffset dy="1"/>
<feGaussianBlur stdDeviation="0.25"/>
<feComposite in2="hardAlpha" operator="arithmetic" k2="-1" k3="1"/>
<feColorMatrix type="matrix" values="0 0 0 0 0.841667 0 0 0 0 0.941666 0 0 0 0 1 0 0 0 0.5 0"/>
<feBlend mode="normal" in2="shape" result="effect1_innerShadow_954_6709"/>
</filter>
<filter id="filter1_i_954_6709" x="17.7363" y="28.765" width="9.8125" height="10.7041" filterUnits="userSpaceOnUse" color-interpolation-filters="sRGB">
<feFlood flood-opacity="0" result="BackgroundImageFix"/>
<feBlend mode="normal" in="SourceGraphic" in2="BackgroundImageFix" result="shape"/>
<feColorMatrix in="SourceAlpha" type="matrix" values="0 0 0 0 0 0 0 0 0 0 0 0 0 0 0 0 0 0 127 0" result="hardAlpha"/>
<feOffset dy="0.5"/>
<feGaussianBlur stdDeviation="0.25"/>
<feComposite in2="hardAlpha" operator="arithmetic" k2="-1" k3="1"/>
<feColorMatrix type="matrix" values="0 0 0 0 0.841667 0 0 0 0 0.941666 0 0 0 0 1 0 0 0 0.5 0"/>
<feBlend mode="normal" in2="shape" result="effect1_innerShadow_954_6709"/>
</filter>
<filter id="filter2_d_954_6709" x="34.5681" y="31.6141" width="52.4282" height="67.3501" filterUnits="userSpaceOnUse" color-interpolation-filters="sRGB">
<feFlood flood-opacity="0" result="BackgroundImageFix"/>
<feColorMatrix in="SourceAlpha" type="matrix" values="0 0 0 0 0 0 0 0 0 0 0 0 0 0 0 0 0 0 127 0" result="hardAlpha"/>
<feOffset/>
<feGaussianBlur stdDeviation="1.12707"/>
<feComposite in2="hardAlpha" operator="out"/>
<feColorMatrix type="matrix" values="0 0 0 0 0.592157 0 0 0 0 0.278431 0 0 0 0 1 0 0 0 0.24 0"/>
<feBlend mode="normal" in2="BackgroundImageFix" result="effect1_dropShadow_954_6709"/>
<feBlend mode="normal" in="SourceGraphic" in2="effect1_dropShadow_954_6709" result="shape"/>
</filter>
<filter id="filter3_i_954_6709" x="41.541" y="41.4048" width="38.3203" height="43.3292" filterUnits="userSpaceOnUse" color-interpolation-filters="sRGB">
<feFlood flood-opacity="0" result="BackgroundImageFix"/>
<feBlend mode="normal" in="SourceGraphic" in2="BackgroundImageFix" result="shape"/>
<feColorMatrix in="SourceAlpha" type="matrix" values="0 0 0 0 0 0 0 0 0 0 0 0 0 0 0 0 0 0 127 0" result="hardAlpha"/>
<feOffset dy="1"/>
<feGaussianBlur stdDeviation="0.25"/>
<feComposite in2="hardAlpha" operator="arithmetic" k2="-1" k3="1"/>
<feColorMatrix type="matrix" values="0 0 0 0 0.841667 0 0 0 0 0.941666 0 0 0 0 1 0 0 0 0.5 0"/>
<feBlend mode="normal" in2="shape" result="effect1_innerShadow_954_6709"/>
</filter>
<filter id="filter4_i_954_6709" x="40.8223" y="39" width="17" height="17.5" filterUnits="userSpaceOnUse" color-interpolation-filters="sRGB">
<feFlood flood-opacity="0" result="BackgroundImageFix"/>
<feBlend mode="normal" in="SourceGraphic" in2="BackgroundImageFix" result="shape"/>
<feColorMatrix in="SourceAlpha" type="matrix" values="0 0 0 0 0 0 0 0 0 0 0 0 0 0 0 0 0 0 127 0" result="hardAlpha"/>
<feOffset dy="1"/>
<feGaussianBlur stdDeviation="0.25"/>
<feComposite in2="hardAlpha" operator="arithmetic" k2="-1" k3="1"/>
<feColorMatrix type="matrix" values="0 0 0 0 1 0 0 0 0 0.924306 0 0 0 0 0.891667 0 0 0 1 0"/>
<feBlend mode="normal" in2="shape" result="effect1_innerShadow_954_6709"/>
</filter>
<filter id="filter5_i_954_6709" x="41.8223" y="43.4987" width="15" height="12.5336" filterUnits="userSpaceOnUse" color-interpolation-filters="sRGB">
<feFlood flood-opacity="0" result="BackgroundImageFix"/>
<feBlend mode="normal" in="SourceGraphic" in2="BackgroundImageFix" result="shape"/>
<feColorMatrix in="SourceAlpha" type="matrix" values="0 0 0 0 0 0 0 0 0 0 0 0 0 0 0 0 0 0 127 0" result="hardAlpha"/>
<feOffset dy="1.06667"/>
<feGaussianBlur stdDeviation="0.266667"/>
<feComposite in2="hardAlpha" operator="arithmetic" k2="-1" k3="1"/>
<feColorMatrix type="matrix" values="0 0 0 0 1 0 0 0 0 0.970887 0 0 0 0 0.958333 0 0 0 0.3 0"/>
<feBlend mode="normal" in2="shape" result="effect1_innerShadow_954_6709"/>
</filter>
<filter id="filter6_i_954_6709" x="4.14844" y="65.2705" width="89.9824" height="58.0099" filterUnits="userSpaceOnUse" color-interpolation-filters="sRGB">
<feFlood flood-opacity="0" result="BackgroundImageFix"/>
<feBlend mode="normal" in="SourceGraphic" in2="BackgroundImageFix" result="shape"/>
<feColorMatrix in="SourceAlpha" type="matrix" values="0 0 0 0 0 0 0 0 0 0 0 0 0 0 0 0 0 0 127 0" result="hardAlpha"/>
<feOffset dy="4"/>
<feGaussianBlur stdDeviation="2"/>
<feComposite in2="hardAlpha" operator="arithmetic" k2="-1" k3="1"/>
<feColorMatrix type="matrix" values="0 0 0 0 0.592157 0 0 0 0 0.278431 0 0 0 0 1 0 0 0 0.24 0"/>
<feBlend mode="normal" in2="shape" result="effect1_innerShadow_954_6709"/>
</filter>
<linearGradient id="paint0_linear_954_6709" x1="37.827" y1="35" x2="37.8273" y2="119" gradientUnits="userSpaceOnUse">
<stop stop-color="white"/>
<stop offset="1" stop-color="#B6DBF1"/>
</linearGradient>
<linearGradient id="paint1_linear_954_6709" x1="60.7823" y1="49.5001" x2="60.7827" y2="148" gradientUnits="userSpaceOnUse">
<stop stop-color="white"/>
<stop offset="1" stop-color="#FFDBB9"/>
</linearGradient>
<clipPath id="clip0_954_6709">
<rect width="98" height="98" rx="49" fill="white"/>
</clipPath>
<clipPath id="clip1_954_6709">
<rect x="40.8223" y="39" width="17" height="17" rx="8.5" fill="white"/>
</clipPath>
<clipPath id="clip2_954_6709">
<rect width="16" height="16" fill="white" transform="translate(41.3223 42)"/>
</clipPath>
</defs>
</svg>
