<svg width="92" height="92" viewBox="0 0 92 92" fill="none" xmlns="http://www.w3.org/2000/svg">
<circle cx="46.0199" cy="45.9799" r="45.6762" fill="#1CBF73"/>
<g clip-path="url(#clip0_4387_5799)">
<path d="M58.2406 39.75C57.4446 35.1248 54.9434 30.9661 51.231 28.0948C47.5185 25.2236 42.8646 23.8485 38.1878 24.2409C33.511 24.6333 29.1513 26.7648 25.9692 30.2146C22.7872 33.6644 21.0141 38.1818 21 42.875C20.9996 45.602 21.594 48.2962 22.7418 50.7699C23.8896 53.2436 25.5632 55.4371 27.6458 57.1975C29.7285 58.9579 32.17 60.2429 34.8003 60.9628C37.4305 61.6826 40.1862 61.8201 42.875 61.3656V58.1875C41.8625 58.3958 40.8208 58.5 39.75 58.5C36.7937 58.4994 33.8981 57.6601 31.3998 56.0796C28.9014 54.4991 26.9026 52.2422 25.6357 49.5711C24.3688 46.9 23.8856 43.9242 24.2424 40.9895C24.5991 38.0547 25.7811 35.2814 27.6511 32.9916C29.5211 30.7019 32.0023 28.9896 34.8066 28.0537C37.6109 27.1177 40.6232 26.9966 43.4936 27.7043C46.364 28.412 48.9747 29.9195 51.0225 32.0517C53.0703 34.184 54.4712 36.8534 55.0625 39.75H58.2406ZM45.125 43.0313C44.9107 42.9275 44.6756 42.874 44.4375 42.875H39.7563V35.0625L39.7281 34.7813C39.655 34.4006 39.443 34.0608 39.1333 33.8277C38.8236 33.5946 38.4384 33.4849 38.0524 33.52C37.6664 33.555 37.3072 33.7323 37.0445 34.0174C36.7819 34.3024 36.6346 34.6749 36.6312 35.0625V44.4375L36.6563 44.7188C36.7221 45.0785 36.912 45.4037 37.1929 45.6378C37.4739 45.872 37.828 46.0001 38.1938 46H43.4062C43.7938 44.9031 44.3812 43.9 45.125 43.0313ZM64.75 42.875H52.25C50.5924 42.875 49.0027 43.5335 47.8306 44.7056C46.6585 45.8777 46 47.4674 46 49.125V64.75C46 66.4076 46.6585 67.9973 47.8306 69.1694C49.0027 70.3415 50.5924 71 52.25 71H64.75C66.4076 71 67.9973 70.3415 69.1694 69.1694C70.3415 67.9973 71 66.4076 71 64.75V49.125C71 47.4674 70.3415 45.8777 69.1694 44.7056C67.9973 43.5335 66.4076 42.875 64.75 42.875ZM63.1875 64.75H53.8125C53.3981 64.75 53.0007 64.5854 52.7076 64.2924C52.4146 63.9993 52.25 63.6019 52.25 63.1875C52.25 62.7731 52.4146 62.3757 52.7076 62.0826C53.0007 61.7896 53.3981 61.625 53.8125 61.625H63.1875C63.6019 61.625 63.9993 61.7896 64.2924 62.0826C64.5854 62.3757 64.75 62.7731 64.75 63.1875C64.75 63.6019 64.5854 63.9993 64.2924 64.2924C63.9993 64.5854 63.6019 64.75 63.1875 64.75ZM63.1875 58.5H53.8125C53.3981 58.5 53.0007 58.3354 52.7076 58.0424C52.4146 57.7493 52.25 57.3519 52.25 56.9375C52.25 56.5231 52.4146 56.1257 52.7076 55.8326C53.0007 55.5396 53.3981 55.375 53.8125 55.375H63.1875C63.6019 55.375 63.9993 55.5396 64.2924 55.8326C64.5854 56.1257 64.75 56.5231 64.75 56.9375C64.75 57.3519 64.5854 57.7493 64.2924 58.0424C63.9993 58.3354 63.6019 58.5 63.1875 58.5ZM63.1875 52.25H53.8125C53.3981 52.25 53.0007 52.0854 52.7076 51.7924C52.4146 51.4993 52.25 51.1019 52.25 50.6875C52.25 50.2731 52.4146 49.8757 52.7076 49.5826C53.0007 49.2896 53.3981 49.125 53.8125 49.125H63.1875C63.6019 49.125 63.9993 49.2896 64.2924 49.5826C64.5854 49.8757 64.75 50.2731 64.75 50.6875C64.75 51.1019 64.5854 51.4993 64.2924 51.7924C63.9993 52.0854 63.6019 52.25 63.1875 52.25Z" fill="white"/>
</g>
<defs>
<clipPath id="clip0_4387_5799">
<rect width="50" height="50" fill="white" transform="translate(21 21)"/>
</clipPath>
</defs>
</svg>
