<svg width="16" height="16" viewBox="0 0 16 16" fill="none" xmlns="http://www.w3.org/2000/svg">
<g id="fluent:slide-text-person-24-filled">
<path id="Vector" d="M12.8327 2.6665C13.3189 2.6665 13.7852 2.85966 14.129 3.20347C14.4729 3.54729 14.666 4.01361 14.666 4.49984V11.4998C14.666 11.7406 14.6186 11.979 14.5265 12.2014C14.4343 12.4239 14.2993 12.626 14.129 12.7962C13.9588 12.9664 13.7567 13.1015 13.5343 13.1936C13.3118 13.2858 13.0734 13.3332 12.8327 13.3332H7.33135C7.33223 13.3054 7.33267 13.2776 7.33268 13.2498V13.1812C7.33268 12.9384 7.28486 12.6981 7.19195 12.4738C7.09904 12.2496 6.96285 12.0458 6.79118 11.8742C6.61951 11.7026 6.41571 11.5665 6.19142 11.4736C5.96713 11.3808 5.72675 11.3331 5.48402 11.3332H5.29935C5.52132 11.1161 5.69761 10.8568 5.81783 10.5706C5.93805 10.2844 5.99977 9.97696 5.99935 9.6665C5.99935 9.1705 5.84468 8.71117 5.58135 8.33317H11.4993C11.632 8.33317 11.7591 8.28049 11.8529 8.18672C11.9467 8.09296 11.9993 7.96578 11.9993 7.83317C11.9993 7.70056 11.9467 7.57339 11.8529 7.47962C11.7591 7.38585 11.632 7.33317 11.4993 7.33317H5.49935C5.38014 7.33317 5.26485 7.37575 5.17427 7.45325C5.0837 7.53075 5.02379 7.63806 5.00535 7.75584C4.6789 7.52709 4.2993 7.38576 3.90274 7.34533C3.50617 7.30489 3.10586 7.36669 2.73996 7.52485C2.37406 7.683 2.05476 7.93223 1.81249 8.24878C1.57023 8.56533 1.41308 8.93866 1.35602 9.33317H1.33268V4.49984C1.33268 4.01361 1.52584 3.54729 1.86965 3.20347C2.21347 2.85966 2.67978 2.6665 3.16602 2.6665H12.8327ZM11.9993 5.83317C11.9993 5.70056 11.9467 5.57339 11.8529 5.47962C11.7591 5.38585 11.632 5.33317 11.4993 5.33317H8.49935C8.36674 5.33317 8.23956 5.38585 8.1458 5.47962C8.05203 5.57339 7.99935 5.70056 7.99935 5.83317C7.99935 5.96578 8.05203 6.09296 8.1458 6.18672C8.23956 6.28049 8.36674 6.33317 8.49935 6.33317H11.4993C11.632 6.33317 11.7591 6.28049 11.8529 6.18672C11.9467 6.09296 11.9993 5.96578 11.9993 5.83317ZM11.4993 10.3332C11.632 10.3332 11.7591 10.2805 11.8529 10.1867C11.9467 10.093 11.9993 9.96578 11.9993 9.83317C11.9993 9.70056 11.9467 9.57339 11.8529 9.47962C11.7591 9.38585 11.632 9.33317 11.4993 9.33317H7.16602C7.03341 9.33317 6.90623 9.38585 6.81246 9.47962C6.71869 9.57339 6.66602 9.70056 6.66602 9.83317C6.66602 9.96578 6.71869 10.093 6.81246 10.1867C6.90623 10.2805 7.03341 10.3332 7.16602 10.3332H11.4993ZM1.99935 9.6665C1.99935 10.1085 2.17494 10.5325 2.4875 10.845C2.80007 11.1576 3.22399 11.3332 3.66602 11.3332C4.10804 11.3332 4.53197 11.1576 4.84453 10.845C5.15709 10.5325 5.33268 10.1085 5.33268 9.6665C5.33268 9.22448 5.15709 8.80055 4.84453 8.48799C4.53197 8.17543 4.10804 7.99984 3.66602 7.99984C3.22399 7.99984 2.80007 8.17543 2.4875 8.48799C2.17494 8.80055 1.99935 9.22448 1.99935 9.6665ZM0.666016 13.2498C0.666016 14.2872 1.52335 15.3332 3.66602 15.3332C5.80868 15.3332 6.66602 14.2912 6.66602 13.2498V13.1812C6.66602 12.5278 6.13668 11.9998 5.48402 11.9998H1.84802C1.19468 11.9998 0.666016 12.5285 0.666016 13.1812V13.2498Z" fill="#1CBF73"/>
</g>
</svg>
