<svg width="24" height="24" viewBox="0 0 24 24" fill="none" xmlns="http://www.w3.org/2000/svg">
<path d="M3 5V17.75C3 18.612 3.34241 19.4386 3.9519 20.0481C4.5614 20.6576 5.38805 21 6.25 21H18.25C19.112 21 19.9386 20.6576 20.5481 20.0481C21.1576 19.4386 21.5 18.612 21.5 17.75V9.25C21.5 8.51838 21.2532 7.80815 20.7995 7.23417C20.3458 6.66019 19.7118 6.25601 19 6.087V5.25C19 4.95453 18.9418 4.66194 18.8287 4.38896C18.7157 4.11598 18.5499 3.86794 18.341 3.65901C18.1321 3.45008 17.884 3.28434 17.611 3.17127C17.3381 3.0582 17.0455 3 16.75 3H5.25C4.69656 3.00002 4.16255 3.20401 3.75004 3.57297C3.33754 3.94194 3.07549 4.44999 3.014 5H3ZM5.25 6C5.05109 6 4.86032 5.92098 4.71967 5.78033C4.57902 5.63968 4.5 5.44891 4.5 5.25C4.5 5.05109 4.57902 4.86032 4.71967 4.71967C4.86032 4.57902 5.05109 4.5 5.25 4.5H16.75C16.9489 4.5 17.1397 4.57902 17.2803 4.71967C17.421 4.86032 17.5 5.05109 17.5 5.25V6H5.25ZM16.25 13H18.25C18.4489 13 18.6397 13.079 18.7803 13.2197C18.921 13.3603 19 13.5511 19 13.75C19 13.9489 18.921 14.1397 18.7803 14.2803C18.6397 14.421 18.4489 14.5 18.25 14.5H16.25C16.0511 14.5 15.8603 14.421 15.7197 14.2803C15.579 14.1397 15.5 13.9489 15.5 13.75C15.5 13.5511 15.579 13.3603 15.7197 13.2197C15.8603 13.079 16.0511 13 16.25 13Z" fill="#1CBF73"/>
</svg>
