<svg width="81" height="80" viewBox="0 0 81 80" fill="none" xmlns="http://www.w3.org/2000/svg">
<g clip-path="url(#clip0_1159_8648)">
<rect x="0.5" width="80" height="80" rx="40" fill="#FEE6DA"/>
<path d="M8.36526 46.5306L8.36569 94.6939C8.3657 96.0464 9.46214 97.1429 10.8147 97.1429H69.9315C71.2841 97.1429 72.3805 96.0464 72.3805 94.6939V49.7526C72.3805 48.4001 71.2841 47.3036 69.9315 47.3036H35.7887C35.305 47.3036 34.8321 47.1604 34.4297 46.892L30.8337 44.4933C30.4313 44.2249 29.9584 44.0816 29.4747 44.0816H10.8142C9.46169 44.0816 8.36524 45.1781 8.36526 46.5306Z" fill="#796CF7"/>
<g filter="url(#filter0_d_1159_8648)">
<path d="M23.0635 78.947C21.803 78.947 20.7774 77.9325 20.7635 76.6721L20.8288 29.973C20.8148 28.6928 21.8486 27.6475 23.1288 27.6475L57.5658 27.6475C58.8275 27.6475 59.8536 28.6637 59.8659 29.9253L59.8819 76.6244C59.8943 77.9035 58.8609 78.9469 57.5818 78.9469L23.0635 78.947Z" fill="url(#paint0_linear_1159_8648)"/>
</g>
<g filter="url(#filter1_i_1159_8648)">
<path d="M49.4579 37.25C48.5687 37.25 47.8478 36.5291 47.8478 35.6399C47.8478 34.7507 48.5687 34.0298 49.4579 34.0298L54.0582 34.0298C54.9474 34.0298 55.6683 34.7507 55.6683 35.6399C55.6683 36.5291 54.9474 37.25 54.0582 37.25L49.4579 37.25Z" fill="#A2E5C6"/>
<path d="M49.4579 42.3103C48.5687 42.3103 47.8478 41.5894 47.8478 40.7002C47.8478 39.811 48.5687 39.0901 49.4579 39.0901H54.0582C54.9474 39.0901 55.6683 39.811 55.6683 40.7002C55.6683 41.5894 54.9474 42.3103 54.0582 42.3103L49.4579 42.3103Z" fill="#A2E5C6"/>
<path d="M26.4567 56.5711C25.5675 56.5711 24.8466 55.8503 24.8466 54.9611C24.8466 54.0718 25.5675 53.351 26.4567 53.351L54.0581 53.3509C54.9474 53.3509 55.6682 54.0717 55.6682 54.961C55.6682 55.8502 54.9474 56.571 54.0581 56.5711L26.4567 56.5711Z" fill="#A2E5C6"/>
<path d="M26.4557 62.7823C25.5665 62.7823 24.8456 62.0615 24.8456 61.1722C24.8456 60.283 25.5665 59.5621 26.4557 59.5621L54.0571 59.562C54.9463 59.562 55.6672 60.2829 55.6672 61.1721C55.6672 62.0614 54.9463 62.7822 54.0571 62.7822L26.4557 62.7823Z" fill="#A2E5C6"/>
<path d="M26.4572 68.5324C25.568 68.5324 24.8471 67.8115 24.8471 66.9223C24.8471 66.0331 25.568 65.3122 26.4572 65.3122L54.0586 65.3121C54.9479 65.3121 55.6687 66.033 55.6687 66.9222C55.6687 67.8114 54.9479 68.5323 54.0586 68.5323L26.4572 68.5324Z" fill="#A2E5C6"/>
</g>
<path d="M49.4579 37.25C48.5687 37.25 47.8478 36.5291 47.8478 35.6399C47.8478 34.7507 48.5687 34.0298 49.4579 34.0298L54.0582 34.0298C54.9474 34.0298 55.6683 34.7507 55.6683 35.6399C55.6683 36.5291 54.9474 37.25 54.0582 37.25L49.4579 37.25Z" stroke="#F7C9E3" stroke-opacity="0.5" stroke-width="0.460027"/>
<path d="M49.4579 42.3103C48.5687 42.3103 47.8478 41.5894 47.8478 40.7002C47.8478 39.811 48.5687 39.0901 49.4579 39.0901H54.0582C54.9474 39.0901 55.6683 39.811 55.6683 40.7002C55.6683 41.5894 54.9474 42.3103 54.0582 42.3103L49.4579 42.3103Z" stroke="#F7C9E3" stroke-opacity="0.5" stroke-width="0.460027"/>
<path d="M26.4567 56.5711C25.5675 56.5711 24.8466 55.8503 24.8466 54.9611C24.8466 54.0718 25.5675 53.351 26.4567 53.351L54.0581 53.3509C54.9474 53.3509 55.6682 54.0717 55.6682 54.961C55.6682 55.8502 54.9474 56.571 54.0581 56.5711L26.4567 56.5711Z" stroke="#F7C9E3" stroke-opacity="0.5" stroke-width="0.460027"/>
<path d="M26.4557 62.7823C25.5665 62.7823 24.8456 62.0615 24.8456 61.1722C24.8456 60.283 25.5665 59.5621 26.4557 59.5621L54.0571 59.562C54.9463 59.562 55.6672 60.2829 55.6672 61.1721C55.6672 62.0614 54.9463 62.7822 54.0571 62.7822L26.4557 62.7823Z" stroke="#F7C9E3" stroke-opacity="0.5" stroke-width="0.460027"/>
<path d="M26.4572 68.5324C25.568 68.5324 24.8471 67.8115 24.8471 66.9223C24.8471 66.0331 25.568 65.3122 26.4572 65.3122L54.0586 65.3121C54.9479 65.3121 55.6687 66.033 55.6687 66.9222C55.6687 67.8114 54.9479 68.5323 54.0586 68.5323L26.4572 68.5324Z" stroke="#F7C9E3" stroke-opacity="0.5" stroke-width="0.460027"/>
<g filter="url(#filter2_i_1159_8648)">
<g clip-path="url(#clip1_1159_8648)">
<rect x="24.0293" y="31.8367" width="13.8776" height="13.8776" rx="6.93878" fill="#E8F9F1"/>
<g clip-path="url(#clip2_1159_8648)">
<g filter="url(#filter3_i_1159_8648)">
<path d="M37.0906 44.8971C37.0906 45.0054 37.0476 45.1092 36.9711 45.1858C36.8945 45.2623 36.7907 45.3053 36.6824 45.3053H25.2539C25.1456 45.3053 25.0418 45.2623 24.9653 45.1858C24.8887 45.1092 24.8457 45.0054 24.8457 44.8971C24.8457 44.7889 24.8887 44.6851 24.9653 44.6085C25.0418 44.532 25.1456 44.489 25.2539 44.489H36.6824C36.7907 44.489 36.8945 44.532 36.9711 44.6085C37.0476 44.6851 37.0906 44.7889 37.0906 44.8971ZM25.2692 39.2941C25.2449 39.2085 25.2493 39.1173 25.2816 39.0344C25.3139 38.9515 25.3724 38.8815 25.4483 38.8349L30.7544 35.5696C30.8187 35.5301 30.8927 35.5091 30.9682 35.5091C31.0436 35.5091 31.1176 35.5301 31.1819 35.5696L36.488 38.8349C36.5639 38.8814 36.6225 38.9514 36.6548 39.0343C36.6872 39.1171 36.6917 39.2083 36.6675 39.2939C36.6433 39.3795 36.5917 39.4549 36.5208 39.5085C36.4498 39.5621 36.3632 39.5911 36.2743 39.591H35.0498V42.8563H35.8661C35.9744 42.8563 36.0782 42.8993 36.1547 42.9759C36.2313 43.0524 36.2743 43.1562 36.2743 43.2645C36.2743 43.3727 36.2313 43.4766 36.1547 43.5531C36.0782 43.6296 35.9744 43.6726 35.8661 43.6726H26.0702C25.9619 43.6726 25.8581 43.6296 25.7816 43.5531C25.705 43.4766 25.662 43.3727 25.662 43.2645C25.662 43.1562 25.705 43.0524 25.7816 42.9759C25.8581 42.8993 25.9619 42.8563 26.0702 42.8563H26.8865V39.591H25.662C25.5731 39.591 25.4867 39.5621 25.4158 39.5085C25.3449 39.4549 25.2934 39.3796 25.2692 39.2941ZM31.7845 42.4482C31.7845 42.5564 31.8275 42.6602 31.904 42.7368C31.9806 42.8133 32.0844 42.8563 32.1926 42.8563C32.3009 42.8563 32.4047 42.8133 32.4813 42.7368C32.5578 42.6602 32.6008 42.5564 32.6008 42.4482V39.9992C32.6008 39.8909 32.5578 39.7871 32.4813 39.7106C32.4047 39.634 32.3009 39.591 32.1926 39.591C32.0844 39.591 31.9806 39.634 31.904 39.7106C31.8275 39.7871 31.7845 39.8909 31.7845 39.9992V42.4482ZM29.3355 42.4482C29.3355 42.5564 29.3785 42.6602 29.455 42.7368C29.5316 42.8133 29.6354 42.8563 29.7437 42.8563C29.8519 42.8563 29.9557 42.8133 30.0323 42.7368C30.1088 42.6602 30.1518 42.5564 30.1518 42.4482V39.9992C30.1518 39.8909 30.1088 39.7871 30.0323 39.7106C29.9557 39.634 29.8519 39.591 29.7437 39.591C29.6354 39.591 29.5316 39.634 29.455 39.7106C29.3785 39.7871 29.3355 39.8909 29.3355 39.9992V42.4482Z" fill="#1CBF73"/>
</g>
</g>
</g>
</g>
<g filter="url(#filter4_i_1159_8648)">
<path d="M6.18692 53.282C4.87025 53.282 3.82228 54.3852 3.88982 55.7002L5.91798 95.1896C5.98079 96.4125 6.99061 97.3718 8.21509 97.3718H73.6097C74.8476 97.3718 75.8634 96.392 75.9083 95.155L77.3399 55.6655C77.3872 54.3634 76.3443 53.282 75.0413 53.282H73.3754H12.9566H9.36011H6.18692Z" fill="#CBB2EB"/>
</g>
</g>
<defs>
<filter id="filter0_d_1159_8648" x="18.9236" y="25.8074" width="42.7994" height="54.9797" filterUnits="userSpaceOnUse" color-interpolation-filters="sRGB">
<feFlood flood-opacity="0" result="BackgroundImageFix"/>
<feColorMatrix in="SourceAlpha" type="matrix" values="0 0 0 0 0 0 0 0 0 0 0 0 0 0 0 0 0 0 127 0" result="hardAlpha"/>
<feOffset/>
<feGaussianBlur stdDeviation="0.920053"/>
<feComposite in2="hardAlpha" operator="out"/>
<feColorMatrix type="matrix" values="0 0 0 0 0.592157 0 0 0 0 0.278431 0 0 0 0 1 0 0 0 0.24 0"/>
<feBlend mode="normal" in2="BackgroundImageFix" result="effect1_dropShadow_1159_8648"/>
<feBlend mode="normal" in="SourceGraphic" in2="effect1_dropShadow_1159_8648" result="shape"/>
</filter>
<filter id="filter1_i_1159_8648" x="24.6152" y="33.7998" width="31.2832" height="35.3707" filterUnits="userSpaceOnUse" color-interpolation-filters="sRGB">
<feFlood flood-opacity="0" result="BackgroundImageFix"/>
<feBlend mode="normal" in="SourceGraphic" in2="BackgroundImageFix" result="shape"/>
<feColorMatrix in="SourceAlpha" type="matrix" values="0 0 0 0 0 0 0 0 0 0 0 0 0 0 0 0 0 0 127 0" result="hardAlpha"/>
<feOffset dy="0.816326"/>
<feGaussianBlur stdDeviation="0.204082"/>
<feComposite in2="hardAlpha" operator="arithmetic" k2="-1" k3="1"/>
<feColorMatrix type="matrix" values="0 0 0 0 0.841667 0 0 0 0 0.941666 0 0 0 0 1 0 0 0 0.5 0"/>
<feBlend mode="normal" in2="shape" result="effect1_innerShadow_1159_8648"/>
</filter>
<filter id="filter2_i_1159_8648" x="24.0293" y="31.8367" width="13.877" height="14.2857" filterUnits="userSpaceOnUse" color-interpolation-filters="sRGB">
<feFlood flood-opacity="0" result="BackgroundImageFix"/>
<feBlend mode="normal" in="SourceGraphic" in2="BackgroundImageFix" result="shape"/>
<feColorMatrix in="SourceAlpha" type="matrix" values="0 0 0 0 0 0 0 0 0 0 0 0 0 0 0 0 0 0 127 0" result="hardAlpha"/>
<feOffset dy="0.816326"/>
<feGaussianBlur stdDeviation="0.204082"/>
<feComposite in2="hardAlpha" operator="arithmetic" k2="-1" k3="1"/>
<feColorMatrix type="matrix" values="0 0 0 0 0.733715 0 0 0 0 0.941667 0 0 0 0 0.914901 0 0 0 1 0"/>
<feBlend mode="normal" in2="shape" result="effect1_innerShadow_1159_8648"/>
</filter>
<filter id="filter3_i_1159_8648" x="24.8457" y="35.5091" width="12.2441" height="10.2315" filterUnits="userSpaceOnUse" color-interpolation-filters="sRGB">
<feFlood flood-opacity="0" result="BackgroundImageFix"/>
<feBlend mode="normal" in="SourceGraphic" in2="BackgroundImageFix" result="shape"/>
<feColorMatrix in="SourceAlpha" type="matrix" values="0 0 0 0 0 0 0 0 0 0 0 0 0 0 0 0 0 0 127 0" result="hardAlpha"/>
<feOffset dy="0.870748"/>
<feGaussianBlur stdDeviation="0.217687"/>
<feComposite in2="hardAlpha" operator="arithmetic" k2="-1" k3="1"/>
<feColorMatrix type="matrix" values="0 0 0 0 1 0 0 0 0 0.970887 0 0 0 0 0.958333 0 0 0 0.3 0"/>
<feBlend mode="normal" in2="shape" result="effect1_innerShadow_1159_8648"/>
</filter>
<filter id="filter4_i_1159_8648" x="3.88672" y="53.282" width="73.4551" height="47.355" filterUnits="userSpaceOnUse" color-interpolation-filters="sRGB">
<feFlood flood-opacity="0" result="BackgroundImageFix"/>
<feBlend mode="normal" in="SourceGraphic" in2="BackgroundImageFix" result="shape"/>
<feColorMatrix in="SourceAlpha" type="matrix" values="0 0 0 0 0 0 0 0 0 0 0 0 0 0 0 0 0 0 127 0" result="hardAlpha"/>
<feOffset dy="3.26531"/>
<feGaussianBlur stdDeviation="1.63265"/>
<feComposite in2="hardAlpha" operator="arithmetic" k2="-1" k3="1"/>
<feColorMatrix type="matrix" values="0 0 0 0 0.592157 0 0 0 0 0.278431 0 0 0 0 1 0 0 0 0.24 0"/>
<feBlend mode="normal" in2="shape" result="effect1_innerShadow_1159_8648"/>
</filter>
<linearGradient id="paint0_linear_1159_8648" x1="40.3229" y1="40.4082" x2="40.3232" y2="120.816" gradientUnits="userSpaceOnUse">
<stop stop-color="white"/>
<stop offset="1" stop-color="#FFDBB9"/>
</linearGradient>
<clipPath id="clip0_1159_8648">
<rect x="0.5" width="80" height="80" rx="40" fill="white"/>
</clipPath>
<clipPath id="clip1_1159_8648">
<rect x="24.0293" y="31.8367" width="13.8776" height="13.8776" rx="6.93878" fill="white"/>
</clipPath>
<clipPath id="clip2_1159_8648">
<rect width="13.0612" height="13.0612" fill="white" transform="translate(24.4375 34.2857)"/>
</clipPath>
</defs>
</svg>
