<svg width="24" height="25" viewBox="0 0 24 25" fill="none" xmlns="http://www.w3.org/2000/svg">
<g id="logos:whatsapp-icon" clip-path="url(#clip0_1159_7801)">
<path id="Vector" d="M0.512578 12.3554C0.512016 14.3876 1.04302 16.3719 2.0527 18.1209L0.416016 24.0967L6.53152 22.4932C8.22298 23.414 10.1181 23.8965 12.044 23.8966H12.0491C18.4067 23.8966 23.582 18.7232 23.5847 12.3644C23.586 9.28317 22.3871 6.38573 20.2089 4.20586C18.0311 2.02617 15.1347 0.825137 12.0486 0.82373C5.6902 0.82373 0.515297 5.99686 0.512672 12.3554" fill="url(#paint0_linear_1159_7801)"/>
<path id="Vector_2" d="M0.100313 12.3515C0.0996563 14.4568 0.649687 16.5121 1.69537 18.3237L0 24.5138L6.33478 22.8528C8.08022 23.8045 10.0454 24.3062 12.0451 24.307H12.0502C18.636 24.307 23.9972 18.9475 24 12.3611C24.0011 9.16906 22.7591 6.16747 20.5031 3.9095C18.2468 1.65181 15.2468 0.407563 12.0502 0.40625C5.46337 0.40625 0.102938 5.765 0.100313 12.3515ZM3.87281 18.0118L3.63628 17.6363C2.64197 16.0553 2.11716 14.2283 2.11791 12.3523C2.12006 6.87772 6.57544 2.42375 12.054 2.42375C14.7071 2.42488 17.2005 3.45913 19.0759 5.33563C20.9512 7.21231 21.9831 9.707 21.9824 12.3603C21.98 17.8348 17.5245 22.2894 12.0502 22.2894H12.0463C10.2638 22.2884 8.51569 21.8097 6.99113 20.9052L6.62831 20.69L2.86912 21.6756L3.87281 18.0117V18.0118Z" fill="url(#paint1_linear_1159_7801)"/>
<path id="Vector_3" d="M9.06383 7.35781C8.84014 6.86066 8.60473 6.85063 8.39202 6.84191C8.21783 6.83441 8.0187 6.83497 7.81977 6.83497C7.62064 6.83497 7.29711 6.90988 7.02364 7.20847C6.74989 7.50735 5.97852 8.2296 5.97852 9.69856C5.97852 11.1676 7.04848 12.5873 7.19764 12.7867C7.34698 12.9857 9.26323 16.0967 12.2981 17.2935C14.8204 18.2881 15.3336 18.0903 15.881 18.0404C16.4285 17.9908 17.6477 17.3184 17.8964 16.6212C18.1453 15.924 18.1453 15.3265 18.0707 15.2016C17.996 15.0772 17.7969 15.0025 17.4983 14.8532C17.1996 14.7039 15.7317 13.9815 15.458 13.8819C15.1843 13.7823 14.9853 13.7326 14.7861 14.0316C14.587 14.3301 14.0152 15.0025 13.841 15.2016C13.6669 15.4012 13.4926 15.426 13.1941 15.2767C12.8953 15.1269 11.9337 14.812 10.7929 13.7949C9.90523 13.0034 9.30598 12.0261 9.1318 11.7271C8.95761 11.4286 9.11314 11.2668 9.26286 11.118C9.39702 10.9843 9.56155 10.7694 9.71098 10.5951C9.85986 10.4207 9.90955 10.2963 10.0091 10.0972C10.1088 9.89788 10.0589 9.7235 9.98436 9.57416C9.90955 9.42481 9.32933 7.94816 9.06383 7.35781Z" fill="white"/>
</g>
<defs>
<linearGradient id="paint0_linear_1159_7801" x1="1158.85" y1="2328.12" x2="1158.85" y2="0.82373" gradientUnits="userSpaceOnUse">
<stop stop-color="#1FAF38"/>
<stop offset="1" stop-color="#60D669"/>
</linearGradient>
<linearGradient id="paint1_linear_1159_7801" x1="1200" y1="2411.16" x2="1200" y2="0.40625" gradientUnits="userSpaceOnUse">
<stop stop-color="#F9F9F9"/>
<stop offset="1" stop-color="white"/>
</linearGradient>
<clipPath id="clip0_1159_7801">
<rect width="24" height="24.1875" fill="white" transform="translate(0 0.40625)"/>
</clipPath>
</defs>
</svg>
