<svg width="16" height="16" viewBox="0 0 16 16" fill="none" xmlns="http://www.w3.org/2000/svg">
<path d="M14.666 1.33325H1.33268C1.15587 1.33325 0.986302 1.40349 0.861278 1.52851C0.736253 1.65354 0.666016 1.82311 0.666016 1.99992V7.33325C0.666016 7.51006 0.736253 7.67963 0.861278 7.80466C0.986302 7.92968 1.15587 7.99992 1.33268 7.99992H3.33268V13.9999C3.33268 14.1767 3.40292 14.3463 3.52794 14.4713C3.65297 14.5963 3.82254 14.6666 3.99935 14.6666H11.9993C12.1762 14.6666 12.3457 14.5963 12.4708 14.4713C12.5958 14.3463 12.666 14.1767 12.666 13.9999V7.99992H14.666C14.8428 7.99992 15.0124 7.92968 15.1374 7.80466C15.2624 7.67963 15.3327 7.51006 15.3327 7.33325V1.99992C15.3327 1.82311 15.2624 1.65354 15.1374 1.52851C15.0124 1.40349 14.8428 1.33325 14.666 1.33325ZM4.66602 13.3333V11.9999C5.01964 11.9999 5.35878 12.1404 5.60882 12.3904C5.85887 12.6405 5.99935 12.9796 5.99935 13.3333H4.66602ZM11.3327 13.3333H9.99935C9.99935 12.9796 10.1398 12.6405 10.3899 12.3904C10.6399 12.1404 10.9791 11.9999 11.3327 11.9999V13.3333ZM11.3327 10.6666C10.6254 10.6666 9.94716 10.9475 9.44706 11.4476C8.94697 11.9477 8.66602 12.626 8.66602 13.3333H7.33268C7.33268 12.626 7.05173 11.9477 6.55163 11.4476C6.05154 10.9475 5.37326 10.6666 4.66602 10.6666V5.33325H11.3327V10.6666ZM13.9993 6.66658H12.666V4.66658C12.666 4.48977 12.5958 4.3202 12.4708 4.19518C12.3457 4.07016 12.1762 3.99992 11.9993 3.99992H3.99935C3.82254 3.99992 3.65297 4.07016 3.52794 4.19518C3.40292 4.3202 3.33268 4.48977 3.33268 4.66658V6.66658H1.99935V2.66659H13.9993V6.66658ZM7.99935 9.99992C8.39491 9.99992 8.78159 9.88262 9.11049 9.66286C9.43939 9.44309 9.69573 9.13074 9.84711 8.76529C9.99848 8.39983 10.0381 7.9977 9.96092 7.60974C9.88375 7.22178 9.69327 6.86541 9.41356 6.5857C9.13386 6.306 8.77749 6.11552 8.38953 6.03835C8.00157 5.96118 7.59943 6.00078 7.23398 6.15216C6.86853 6.30353 6.55617 6.55988 6.33641 6.88878C6.11665 7.21768 5.99935 7.60436 5.99935 7.99992C5.99935 8.53035 6.21006 9.03906 6.58514 9.41413C6.96021 9.7892 7.46892 9.99992 7.99935 9.99992ZM7.99935 7.33325C8.1312 7.33325 8.2601 7.37235 8.36973 7.44561C8.47936 7.51886 8.56481 7.62298 8.61527 7.7448C8.66573 7.86661 8.67893 8.00066 8.65321 8.12998C8.62748 8.2593 8.56399 8.37809 8.47075 8.47132C8.37752 8.56456 8.25873 8.62805 8.12941 8.65378C8.00009 8.6795 7.86604 8.6663 7.74423 8.61584C7.62241 8.56538 7.51829 8.47993 7.44504 8.3703C7.37178 8.26067 7.33268 8.13177 7.33268 7.99992C7.33268 7.82311 7.40292 7.65354 7.52794 7.52851C7.65297 7.40349 7.82254 7.33325 7.99935 7.33325Z" fill="white"/>
</svg>
